<svg width="184px" height="64px" viewBox="0 0 184 64" xmlns="http://www.w3.org/2000/svg"><title>AA Insurance logo</title><g id="logo" stroke="none" stroke-width="1" fill="none" fill-rule="evenodd"><rect id="Rectangle" x="0" y="0" width="184" height="64"></rect><path d="M162.425265,26.7938903 C166.564644,26.7938903 168.380921,29.398044 168.380921,33.5571689 C168.380921,34.294229 168.35266,35.1149605 168.295194,35.8228766 L160.041872,35.8228766 C160.212384,37.0676057 161.147842,38.0020926 163.218473,38.0020926 C164.806774,38.0020926 166.366813,37.8027855 167.61409,37.3797281 L167.75634,40.63351 C166.338551,41.1994669 164.721989,41.4269778 163.104485,41.4269778 C158.42531,41.4269778 155.759301,39.4724523 155.759301,34.1240659 L155.759301,34.0385143 C155.759301,29.3689001 158.11349,26.7938903 162.425265,26.7938903 Z M150.341086,26.7937963 C151.787136,26.7937963 153.233187,27.0767748 154.226111,27.5289762 L154.000018,31.0958206 C153.148402,30.6426791 151.928444,30.3597006 150.936463,30.3597006 C148.696262,30.3597006 147.504566,31.6053698 147.504566,34.0666241 C147.504566,36.8127371 148.696262,37.916447 150.964725,37.916447 C151.844602,37.916447 152.893106,37.7754278 154.141326,37.3504901 L154.282634,40.7753753 C153.120141,41.2567206 151.53184,41.4268838 150.255359,41.4268838 C147.476304,41.4268838 145.68923,40.6898237 144.554999,39.1329722 C143.704326,37.9446508 143.193733,36.274984 143.193733,34.294135 L143.193733,34.1239719 C143.193733,28.6336262 146.653892,26.7937963 150.341086,26.7937963 Z M120.267848,26.7932322 C122.933857,26.7932322 124.862238,27.5293522 125.543342,29.6521605 C125.743057,30.2463212 125.827842,31.1526043 125.827842,31.915988 L125.827842,31.915988 L125.827842,40.9731781 L122.083183,40.9731781 L121.973905,39.7904975 C121.972963,39.7886173 121.971079,39.786737 121.971079,39.7848567 L121.971079,39.7848567 L121.912672,39.7848567 C121.118521,40.8039552 119.757255,41.4263197 118.027647,41.4263197 C115.701719,41.4263197 113.688553,40.0678352 113.688553,37.2089069 C113.688553,33.7840217 116.440288,32.0015396 121.233452,32.0015396 L121.233452,32.0015396 L121.686579,32.0015396 L121.686579,31.5201943 C121.686579,30.4446882 121.233452,30.0761581 119.757255,30.0761581 C118.396932,30.0761581 116.411085,30.5857073 115.107284,31.2372158 L115.107284,31.2372158 L114.567488,28.0106976 C116.099265,27.3319254 118.453455,26.7932322 120.267848,26.7932322 Z M93.918167,27.2465618 L93.918167,34.662289 C93.918167,35.6804473 93.9454866,36.4447711 94.0594749,36.8697088 C94.258248,37.6058288 94.9110904,38.0307665 95.9313333,38.0307665 C96.9525183,38.0307665 97.6044187,37.6058288 97.8031918,36.8697088 C97.9068175,36.4834018 97.9388162,35.8166104 97.9437777,34.9336108 L97.9444996,27.2465618 L102.085763,27.2465618 L102.085763,34.1527398 C102.085763,35.5958358 102.058443,36.643138 102.000978,37.0389318 C101.631693,40.2372462 99.6467886,41.4265077 95.9313333,41.4265077 C92.2158781,41.4265077 90.2319154,40.2372462 89.8626308,37.0389318 C89.8096403,36.6678752 89.7806612,35.7242036 89.7772458,34.4186197 L89.776904,27.2465618 L93.918167,27.2465618 Z M82.5620061,26.7930442 C84.0080568,26.7930442 85.5671538,27.1042265 86.7871118,27.557368 L86.3895656,30.9822532 C85.5398342,30.472704 84.1503067,30.1333179 82.9868718,30.1333179 C81.7395942,30.1333179 81.1997981,30.472704 81.1997981,31.0668647 C81.1997981,31.5200062 81.682129,31.8311885 82.7880987,32.1715147 L84.0080568,32.5109008 C86.9001581,33.3316323 87.7517736,34.6055053 87.7517736,36.8702729 C87.7517736,39.8410764 85.5398342,41.4261317 81.7669138,41.4261317 C80.2360784,41.4261317 78.4207431,41.1140093 77.2299887,40.662748 L77.5983312,37.2369227 C78.6760393,37.7756159 80.3783283,38.1150019 81.4268328,38.1150019 C82.9020871,38.1150019 83.5549295,37.8028796 83.5549295,37.1523112 C83.5549295,36.5299467 83.2431101,36.3033759 81.6256059,35.8502344 L80.4913746,35.5108483 C78.3642199,34.8884837 76.9746924,33.3889801 76.9746924,31.1242125 C76.9746924,28.5200588 79.0726435,26.7930442 82.5620061,26.7930442 Z M136.577415,26.7934203 C137.938681,26.7934203 139.215163,27.2747656 139.92547,28.0099455 C140.803463,28.9162286 141.171806,30.3029169 141.171806,32.1427468 L141.171806,40.9733662 L137.003223,40.9733662 L137.003223,32.7933152 C137.003223,31.94532 136.889235,31.4639746 136.634881,31.1245885 C136.351323,30.7560585 135.869934,30.5294877 135.216149,30.5294877 C134.138441,30.5294877 133.202983,31.0390369 132.550141,31.7469531 L132.550141,40.9733662 L128.381558,40.9733662 L128.381558,27.2465618 L132.096071,27.2465618 L132.238321,28.5768425 L132.294845,28.5768425 C133.287768,27.5295403 134.649034,26.7934203 136.577415,26.7934203 Z M112.892895,26.9635834 L112.779849,30.7842623 C110.878787,30.7842623 109.716294,31.2656077 108.81004,32.1709506 L108.81004,40.9733662 L104.639573,40.9733662 L104.639573,27.2465618 L108.326767,27.2465618 L108.582063,29.1427994 L108.638586,29.1427994 C109.433678,27.925334 110.878787,26.9635834 112.892895,26.9635834 Z M70.3660054,26.7934203 C71.7272713,26.7934203 73.0037525,27.2747656 73.7131181,28.0099455 C74.5920531,28.9162286 74.9603957,30.3029169 74.9603957,32.1427468 L74.9603957,40.9733662 L70.7918131,40.9733662 L70.7918131,32.7933152 C70.7918131,31.94532 70.6778248,31.4639746 70.4225285,31.1245885 C70.1399127,30.7560585 69.6575818,30.5294877 69.0047394,30.5294877 C67.9270313,30.5294877 66.9915731,31.0390369 66.3387307,31.7469531 L66.3387307,40.9733662 L62.1701481,40.9733662 L62.1701481,27.2465618 L65.8846614,27.2465618 L66.0269113,28.5768425 L66.0834345,28.5768425 C67.0763578,27.5295403 68.4376238,26.7934203 70.3660054,26.7934203 Z M59.6158669,21.9261912 L59.6158669,40.9731781 L55.1345229,40.9731781 L55.1345229,21.9261912 L59.6158669,21.9261912 Z M121.686579,34.7749163 L121.402079,34.7749163 C120.494883,34.7749163 119.560367,34.8886718 118.934844,35.2271177 C118.396932,35.5110363 117.999385,36.0487893 117.999385,36.7275615 C117.999385,37.6338446 118.509978,38.1998015 119.560367,38.1998015 C120.326255,38.1998015 121.118521,37.8312714 121.686579,37.3217222 L121.686579,37.3217222 L121.686579,34.7749163 Z M162.226492,29.9640009 C160.60993,29.9640009 160.01361,31.0959146 160.01361,32.7091737 L160.01361,32.9066006 L164.239658,32.9066006 L164.239658,32.5954183 C164.239658,31.2369338 163.899577,29.9640009 162.226492,29.9640009 Z" id="Combined-Shape" fill="#231F20"></path><path d="M46.3670282,31.7364236 C46.3670282,44.0708989 36.3482993,54.0682167 23.9895118,54.0682167 C11.6297823,54.0682167 1.61105342,44.0708989 1.61105342,31.7364236 C1.61105342,19.4019484 11.6297823,9.40369044 23.9895118,9.40369044 C36.3482993,9.40369044 46.3670282,19.4019484 46.3670282,31.7364236" id="Fill-4" fill="#FFD300"></path><path d="M23.989135,7.93351876 C10.8371393,7.93351876 0.137306403,18.611489 0.137306403,31.7366116 C0.137306403,44.8607941 10.8371393,55.5397045 23.989135,55.5397045 C37.1411307,55.5397045 47.8409636,44.8607941 47.8409636,31.7366116 C47.8409636,18.611489 37.1411307,7.93351876 23.989135,7.93351876 M23.989135,9.40387846 C36.3479224,9.40387846 46.3666513,19.4021364 46.3666513,31.7366116 C46.3666513,44.0701468 36.3479224,54.0684047 23.989135,54.0684047 C11.6294055,54.0684047 1.6106766,44.0701468 1.6106766,31.7366116 C1.6106766,19.4021364 11.6294055,9.40387846 23.989135,9.40387846" id="Fill-6" fill="#FEFEFE"></path><path d="M30.2468133,34.5177914 L33.0541299,28.3289308 L33.0541299,34.5177914 L30.2468133,34.5177914 Z M16.0500813,34.5177914 L18.8573979,28.3289308 L18.8573979,34.5177914 L16.0500813,34.5177914 Z M31.2868393,21.9257212 L23.770202,37.2046763 L23.770202,21.9257212 L17.0901073,21.9257212 L7.71856853,40.9727081 L13.122182,40.9727081 L13.9954647,39.0473266 L18.8573979,39.0473266 L18.8573979,40.9727081 L27.3189139,40.9727081 L28.1921967,39.0473266 L33.0541299,39.0473266 L33.0541299,40.9727081 L37.9659919,40.9727081 L37.9659919,21.9257212 L31.2868393,21.9257212 Z" id="Fill-8" fill="#231F20"></path></g></svg>