<?xml version="1.0" encoding="UTF-8"?>
<svg xmlns="http://www.w3.org/2000/svg" style="display: none;">
<symbol id="chevron-down" viewBox="0 0 512 512">
<path d="M233.4 406.6c12.5 12.5 32.8 12.5 45.3 0l192-192c12.5-12.5 12.5-32.8 0-45.3s-32.8-12.5-45.3 0L256 338.7 86.6 169.4c-12.5-12.5-32.8-12.5-45.3 0s-12.5 32.8 0 45.3l192 192z"/>
</symbol>
<symbol id="chevron-right" viewBox="0 0 320 512">
<path d="M310.6 233.4c12.5 12.5 12.5 32.8 0 45.3l-192 192c-12.5 12.5-32.8 12.5-45.3 0s-12.5-32.8 0-45.3L242.7 256 73.4 86.6c-12.5-12.5-12.5-32.8 0-45.3s32.8-12.5 45.3 0l192 192z"/>
</symbol>
<symbol id="badge-check" viewBox="0 0 512 512">
<path d="M256 0c36.8 0 68.8 20.7 84.9 51.1C373.8 41 411 49 437 75s34 63.3 23.9 96.1C491.3 187.2 512 219.2 512 256s-20.7 68.8-51.1 84.9C471 373.8 463 411 437 437s-63.3 34-96.1 23.9C324.8 491.3 292.8 512 256 512s-68.8-20.7-84.9-51.1C138.2 471 101 463 75 437s-34-63.3-23.9-96.1C20.7 324.8 0 292.8 0 256s20.7-68.8 51.1-84.9C41 138.2 49 101 75 75s63.3-34 96.1-23.9C187.2 20.7 219.2 0 256 0zM369 209c9.4-9.4 9.4-24.6 0-33.9s-24.6-9.4-33.9 0l-111 111-47-47c-9.4-9.4-24.6-9.4-33.9 0s-9.4 24.6 0 33.9l64 64c9.4 9.4 24.6 9.4 33.9 0L369 209z"/>
</symbol>
<symbol id="badge-dollar" viewBox="0 0 512 512">
<path d="M256 0c36.8 0 68.8 20.7 84.9 51.1C373.8 41 411 49 437 75s34 63.3 23.9 96.1C491.3 187.2 512 219.2 512 256s-20.7 68.8-51.1 84.9C471 373.8 463 411 437 437s-63.3 34-96.1 23.9C324.8 491.3 292.8 512 256 512s-68.8-20.7-84.9-51.1C138.2 471 101 463 75 437s-34-63.3-23.9-96.1C20.7 324.8 0 292.8 0 256s20.7-68.8 51.1-84.9C41 138.2 49 101 75 75s63.3-34 96.1-23.9C187.2 20.7 219.2 0 256 0zm20.9 140.4c0-11-9-20-20-20s-20 9-20 20v17.4c-8.8 1.8-17.7 4.8-25.7 9.6c-15 8.9-27.7 24.4-27.6 46.9c.1 21.5 12.6 35.1 26.3 43.4c11.9 7.2 27 11.7 39.1 15.4l1.9 .6c13.9 4.2 24.4 7.6 31.7 12.2c6.1 3.8 7.5 6.8 7.6 11c.1 6.5-2.5 10.4-7.6 13.6c-6 3.7-15.2 5.9-25.1 5.6c-12.7-.4-24.6-4.4-39.7-9.6l0 0 0 0 0 0 0 0c-2.6-.9-5.2-1.8-8-2.7c-10.5-3.5-21.8 2.2-25.3 12.6s2.2 21.8 12.6 25.3c2.2 .7 4.5 1.5 6.8 2.3c9.7 3.3 20.9 7.2 32.8 9.6v18c0 11 9 20 20 20s20-9 20-20V354.4c9.3-1.7 18.6-4.9 26.8-10.1c15.3-9.5 26.8-25.7 26.5-48.1c-.3-21.6-12.4-35.6-26.3-44.3c-12.5-7.9-28.3-12.6-40.8-16.4l-.6-.2c-14.1-4.3-24.6-7.5-31.9-11.9c-6.2-3.7-7-6.3-7-9.3c0-5.1 2.1-8.8 7.9-12.3c6.5-3.8 16-6 25-5.8c10.9 .2 22.9 2.6 35.2 5.8c10.7 2.8 21.6-3.5 24.5-14.2s-3.5-21.6-14.2-24.5c-7.8-2.1-16.3-4.1-25.1-5.4V140.4z"/>
</symbol>
<symbol id="star-half-stroke" viewBox="0 0 640 512">
<path d="M320 376.4l.1-.1 26.4 14.1 85.2 45.5-16.5-97.6-4.8-28.7 20.7-20.5 70.1-69.3-96.1-14.2-29.3-4.3-12.9-26.6L320.1 86.9l-.1 .3V376.4zm175.1 98.3c2 12-3 24.2-12.9 31.3s-23 8-33.8 2.3L320.1 439.8 191.8 508.3C181 514 167.9 513.1 158 506s-14.9-19.3-12.9-31.3L169.8 329 65.6 225.9c-8.6-8.5-11.7-21.2-7.9-32.7s13.7-19.9 25.7-21.7L227 150.3 291.4 18c5.4-11 16.5-18 28.8-18s23.4 7 28.8 18l64.3 132.3 143.6 21.2c12 1.8 22 10.2 25.7 21.7s.7 24.2-7.9 32.7L470.5 329l24.6 145.7z"/>
</symbol>
<symbol id="star-sharp" viewBox="0 0 576 512">
<path d="M310.9 16.7C307.7 6.8 298.5 0 288 0s-19.7 6.8-22.9 16.7L214.5 176H56c-10.3 0-19.4 6.5-22.7 16.2s-.1 20.4 8 26.7L172.1 320.7 121.1 480.7c-3.2 10 .5 21 9.1 27s20.2 5.7 28.5-.7L288 406.4 417.3 506.9c8.3 6.5 19.8 6.8 28.5 .7s12.3-16.9 9.1-27L403.9 320.7 534.7 218.9c8.1-6.3 11.3-17 8-26.7s-12.4-16.2-22.7-16.2H361.5L310.9 16.7z"/>
</symbol>
<symbol id="circle-arrow-right" viewBox="0 0 512 512">
<path d="M0 256a256 256 0 1 0 512 0A256 256 0 1 0 0 256zM281 385c-9.4 9.4-24.6 9.4-33.9 0s-9.4-24.6 0-33.9l71-71L136 280c-13.3 0-24-10.7-24-24s10.7-24 24-24l182.1 0-71-71c-9.4-9.4-9.4-24.6 0-33.9s24.6-9.4 33.9 0L393 239c9.4 9.4 9.4 24.6 0 33.9L281 385z"/>
</symbol>
<symbol id="circle-notch" viewBox="0 0 512 512">
<path d="M222.7 32.1c5 16.9-4.6 34.8-21.5 39.8C121.8 95.6 64 169.1 64 256c0 106 86 192 192 192s192-86 192-192c0-86.9-57.8-160.4-137.1-184.1c-16.9-5-26.6-22.9-21.5-39.8s22.9-26.6 39.8-21.5C434.9 42.1 512 140 512 256c0 141.4-114.6 256-256 256S0 397.4 0 256C0 140 77.1 42.1 182.9 10.6c16.9-5 34.8 4.6 39.8 21.5z"/>
</symbol>
<symbol id="star" viewBox="0 0 576 512">
<path d="M316.9 18C311.6 7 300.4 0 288.1 0s-23.4 7-28.8 18L195 150.3 51.4 171.5c-12 1.8-22 10.2-25.7 21.7s-.7 24.2 7.9 32.7L137.8 329 113.2 474.7c-2 12 3 24.2 12.9 31.3s23 8 33.8 2.3l128.3-68.5 128.3 68.5c10.8 5.7 23.9 4.9 33.8-2.3s14.9-19.3 12.9-31.3L438.5 329 542.7 225.9c8.6-8.5 11.7-21.2 7.9-32.7s-13.7-19.9-25.7-21.7L381.2 150.3 316.9 18z"/>
</symbol>
<symbol id="circle-check" viewBox="0 0 512 512">
<path d="M256 512A256 256 0 1 0 256 0a256 256 0 1 0 0 512zM369 209L241 337c-9.4 9.4-24.6 9.4-33.9 0l-64-64c-9.4-9.4-9.4-24.6 0-33.9s24.6-9.4 33.9 0l47 47L335 175c9.4-9.4 24.6-9.4 33.9 0s9.4 24.6 0 33.9z"/>
</symbol>
<symbol id="circle-plus" viewBox="0 0 512 512">
<path d="M256 512A256 256 0 1 0 256 0a256 256 0 1 0 0 512zM232 344V280H168c-13.3 0-24-10.7-24-24s10.7-24 24-24h64V168c0-13.3 10.7-24 24-24s24 10.7 24 24v64h64c13.3 0 24 10.7 24 24s-10.7 24-24 24H280v64c0 13.3-10.7 24-24 24s-24-10.7-24-24z"/>
</symbol>
<symbol id="square" viewBox="0 0 448 512">
<path d="M0 96C0 60.7 28.7 32 64 32H384c35.3 0 64 28.7 64 64V416c0 35.3-28.7 64-64 64H64c-35.3 0-64-28.7-64-64V96z"/>
</symbol>
<symbol id="star-sharp-half" viewBox="0 0 576 512">
<path d="M254.4 50.4L214.5 176H90.3 88 74.7 56c-10.3 0-19.4 6.5-22.7 16.2s-.1 20.4 8 26.7L56 230.4l10.5 8.2 1.8 1.4 103.7 80.7L132 446.7l-1.1 3.5L126.1 465l-5 15.7c-3.2 10 .5 21 9.1 27s20.2 5.7 28.5-.7l13-10.1 12.3-9.5 2.9-2.3L288 406.4V325.3 155.9 0c-10.5 0-19.7 6.8-22.9 16.7L260 32.9l0 0-4.6 14.3-1 3.2z"/>
</symbol>
<symbol id="plus" viewBox="0 0 448 512">
<path d="M256 80c0-17.7-14.3-32-32-32s-32 14.3-32 32V224H48c-17.7 0-32 14.3-32 32s14.3 32 32 32H192V432c0 17.7 14.3 32 32 32s32-14.3 32-32V288H400c17.7 0 32-14.3 32-32s-14.3-32-32-32H256V80z"/>
</symbol>
<symbol id="magnifying-glass" viewBox="0 0 512 512">
<path d="M416 208c0 45.9-14.9 88.3-40 122.7L502.6 457.4c12.5 12.5 12.5 32.8 0 45.3s-32.8 12.5-45.3 0L330.7 376c-34.4 25.2-76.8 40-122.7 40C93.1 416 0 322.9 0 208S93.1 0 208 0S416 93.1 416 208zM208 352a144 144 0 1 0 0-288 144 144 0 1 0 0 288z"/>
</symbol>
<symbol id="laptop" viewBox="0 0 640 512">
<path d="M128 32C92.7 32 64 60.7 64 96V352h64V96H512V352h64V96c0-35.3-28.7-64-64-64H128zM19.2 384C8.6 384 0 392.6 0 403.2C0 445.6 34.4 480 76.8 480H563.2c42.4 0 76.8-34.4 76.8-76.8c0-10.6-8.6-19.2-19.2-19.2H19.2z"/>
</symbol>
<symbol id="envelope" viewBox="0 0 512 512">
<path d="M48 64C21.5 64 0 85.5 0 112c0 15.1 7.1 29.3 19.2 38.4L236.8 313.6c11.4 8.5 27 8.5 38.4 0L492.8 150.4c12.1-9.1 19.2-23.3 19.2-38.4c0-26.5-21.5-48-48-48H48zM0 176V384c0 35.3 28.7 64 64 64H448c35.3 0 64-28.7 64-64V176L294.4 339.2c-22.8 17.1-54 17.1-76.8 0L0 176z"/>
</symbol>
<symbol id="star-sharp-half" viewBox="0 0 576 512">
<path d="M254.4 50.4L214.5 176H90.3 88 74.7 56c-10.3 0-19.4 6.5-22.7 16.2s-.1 20.4 8 26.7L56 230.4l10.5 8.2 1.8 1.4 103.7 80.7L132 446.7l-1.1 3.5L126.1 465l-5 15.7c-3.2 10 .5 21 9.1 27s20.2 5.7 28.5-.7l13-10.1 12.3-9.5 2.9-2.3L288 406.4V325.3 155.9 0c-10.5 0-19.7 6.8-22.9 16.7L260 32.9l0 0-4.6 14.3-1 3.2z"/>
</symbol>
<symbol id="square-envelope" viewBox="0 0 448 512">
<path d="M64 32C28.7 32 0 60.7 0 96V416c0 35.3 28.7 64 64 64H384c35.3 0 64-28.7 64-64V96c0-35.3-28.7-64-64-64H64zM218 271.7L64.2 172.4C66 156.4 79.5 144 96 144H352c16.5 0 30 12.4 31.8 28.4L230 271.7c-1.8 1.2-3.9 1.8-6 1.8s-4.2-.6-6-1.8zm29.4 26.9L384 210.4V336c0 17.7-14.3 32-32 32H96c-17.7 0-32-14.3-32-32V210.4l136.6 88.2c7 4.5 15.1 6.9 23.4 6.9s16.4-2.4 23.4-6.9z"/>
</symbol>
<symbol id="cubes" viewBox="0 0 576 512">
<path d="M290.8 48.6l78.4 29.7L288 109.5 206.8 78.3l78.4-29.7c1.8-.7 3.8-.7 5.7 0zM136 92.5V204.7c-1.3 .4-2.6 .8-3.9 1.3l-96 36.4C14.4 250.6 0 271.5 0 294.7V413.9c0 22.2 13.1 42.3 33.5 51.3l96 42.2c14.4 6.3 30.7 6.3 45.1 0L288 457.5l113.5 49.9c14.4 6.3 30.7 6.3 45.1 0l96-42.2c20.3-8.9 33.5-29.1 33.5-51.3V294.7c0-23.3-14.4-44.1-36.1-52.4l-96-36.4c-1.3-.5-2.6-.9-3.9-1.3V92.5c0-23.3-14.4-44.1-36.1-52.4l-96-36.4c-12.8-4.8-26.9-4.8-39.7 0l-96 36.4C150.4 48.4 136 69.3 136 92.5zM392 210.6l-82.4 31.2V152.6L392 121v89.6zM154.8 250.9l78.4 29.7L152 311.7 70.8 280.6l78.4-29.7c1.8-.7 3.8-.7 5.7 0zm18.8 204.4V354.8L256 323.2v95.9l-82.4 36.2zM421.2 250.9c1.8-.7 3.8-.7 5.7 0l78.4 29.7L424 311.7l-81.2-31.1 78.4-29.7zM523.2 421.2l-77.6 34.1V354.8L528 323.2v90.7c0 3.2-1.9 6-4.8 7.3z"/>
</symbol>
<symbol id="phone" viewBox="0 0 512 512">
<path d="M164.9 24.6c-7.7-18.6-28-28.5-47.4-23.2l-88 24C12.1 30.2 0 46 0 64C0 311.4 200.6 512 448 512c18 0 33.8-12.1 38.6-29.5l24-88c5.3-19.4-4.6-39.7-23.2-47.4l-96-40c-16.3-6.8-35.2-2.1-46.3 11.6L304.7 368C234.3 334.7 177.3 277.7 144 207.3L193.3 167c13.7-11.2 18.4-30 11.6-46.3l-40-96z"/>
</symbol>
<symbol id="scroll" viewBox="0 0 576 512">
<path d="M0 80v48c0 17.7 14.3 32 32 32H48 96V80c0-26.5-21.5-48-48-48S0 53.5 0 80zM112 32c10 13.4 16 30 16 48V384c0 35.3 28.7 64 64 64s64-28.7 64-64v-5.3c0-32.4 26.3-58.7 58.7-58.7H480V128c0-53-43-96-96-96H112zM464 480c61.9 0 112-50.1 112-112c0-8.8-7.2-16-16-16H314.7c-14.7 0-26.7 11.9-26.7 26.7V384c0 53-43 96-96 96H368h96z"/>
</symbol>
<symbol id="circle" viewBox="0 0 512 512">
<path d="M256 512A256 256 0 1 0 256 0a256 256 0 1 0 0 512z"/>
</symbol>
<symbol id="check" viewBox="0 0 448 512">
<path d="M438.6 105.4c12.5 12.5 12.5 32.8 0 45.3l-256 256c-12.5 12.5-32.8 12.5-45.3 0l-128-128c-12.5-12.5-12.5-32.8 0-45.3s32.8-12.5 45.3 0L160 338.7 393.4 105.4c12.5-12.5 32.8-12.5 45.3 0z"/>
</symbol>
<symbol id="star-half" viewBox="0 0 576 512">
<path d="M288 0c-12.2 .1-23.3 7-28.6 18L195 150.3 51.4 171.5c-12 1.8-22 10.2-25.7 21.7s-.7 24.2 7.9 32.7L137.8 329 113.2 474.7c-2 12 3 24.2 12.9 31.3s23 8 33.8 2.3L288 439.8V0zM429.9 512c1.1 .1 2.1 .1 3.2 0h-3.2z"/>
</symbol>
<symbol id="chevron-left" viewBox="0 0 320 512">
<path d="M9.4 233.4c-12.5 12.5-12.5 32.8 0 45.3l192 192c12.5 12.5 32.8 12.5 45.3 0s12.5-32.8 0-45.3L77.3 256 246.6 86.6c12.5-12.5 12.5-32.8 0-45.3s-32.8-12.5-45.3 0l-192 192z"/>
</symbol>
<symbol id="bullseye-arrow" viewBox="0 0 512 512">
<path d="M335.2 244.7c.5 3.7 .8 7.5 .8 11.3c0 44.2-35.8 80-80 80s-80-35.8-80-80s35.8-80 80-80c3.8 0 7.6 .3 11.3 .8l31.2-31.2L293.7 117c-12-3.3-24.7-5-37.7-5c-79.5 0-144 64.5-144 144s64.5 144 144 144s144-64.5 144-144c0-13.1-1.7-25.7-5-37.7l-28.6-4.8-31.2 31.2zm110.1-20.8c1.8 10.4 2.7 21.1 2.7 32.1c0 106-86 192-192 192S64 362 64 256S150 64 256 64c10.9 0 21.6 .9 32.1 2.7l9.3-9.3 43.1-43.1C314 5 285.6 0 256 0C114.6 0 0 114.6 0 256S114.6 512 256 512s256-114.6 256-256c0-29.6-5-58-14.3-84.5l-43.1 43.1-9.3 9.3zm-80.2-43.1l50.7 8.4c10.2 1.7 20.6-1.6 27.9-8.9l51.2-51.2c8.1-8.1 5.3-21.9-5.4-26.2L432 80 409 22.5c-4.3-10.7-18-13.5-26.2-5.4L331.6 68.4c-7.3 7.3-10.6 17.7-8.9 27.9l8.4 50.7L239 239c-9.4 9.4-9.4 24.6 0 33.9s24.6 9.4 33.9 0l92.1-92.1z"/>
</symbol>
<symbol id="award" viewBox="0 0 384 512">
<path d="M173.8 5.5c11-7.3 25.4-7.3 36.4 0L228 17.2c6 3.9 13 5.8 20.1 5.4l21.3-1.3c13.2-.8 25.6 6.4 31.5 18.2l9.6 19.1c3.2 6.4 8.4 11.5 14.7 14.7L344.5 83c11.8 5.9 19 18.3 18.2 31.5l-1.3 21.3c-.4 7.1 1.5 14.2 5.4 20.1l11.8 17.8c7.3 11 7.3 25.4 0 36.4L366.8 228c-3.9 6-5.8 13-5.4 20.1l1.3 21.3c.8 13.2-6.4 25.6-18.2 31.5l-19.1 9.6c-6.4 3.2-11.5 8.4-14.7 14.7L301 344.5c-5.9 11.8-18.3 19-31.5 18.2l-21.3-1.3c-7.1-.4-14.2 1.5-20.1 5.4l-17.8 11.8c-11 7.3-25.4 7.3-36.4 0L156 366.8c-6-3.9-13-5.8-20.1-5.4l-21.3 1.3c-13.2 .8-25.6-6.4-31.5-18.2l-9.6-19.1c-3.2-6.4-8.4-11.5-14.7-14.7L39.5 301c-11.8-5.9-19-18.3-18.2-31.5l1.3-21.3c.4-7.1-1.5-14.2-5.4-20.1L5.5 210.2c-7.3-11-7.3-25.4 0-36.4L17.2 156c3.9-6 5.8-13 5.4-20.1l-1.3-21.3c-.8-13.2 6.4-25.6 18.2-31.5l19.1-9.6C65 70.2 70.2 65 73.4 58.6L83 39.5c5.9-11.8 18.3-19 31.5-18.2l21.3 1.3c7.1 .4 14.2-1.5 20.1-5.4L173.8 5.5zM272 192a80 80 0 1 0 -160 0 80 80 0 1 0 160 0zM1.3 441.8L44.4 339.3c.2 .1 .3 .2 .4 .4l9.6 19.1c11.7 23.2 36 37.3 62 35.8l21.3-1.3c.2 0 .5 0 .7 .2l17.8 11.8c5.1 3.3 10.5 5.9 16.1 7.7l-37.6 89.3c-2.3 5.5-7.4 9.2-13.3 9.7s-11.6-2.2-14.8-7.2L74.4 455.5l-56.1 8.3c-5.7 .8-11.4-1.5-15-6s-4.3-10.7-2.1-16zm248 60.4L211.7 413c5.6-1.8 11-4.3 16.1-7.7l17.8-11.8c.2-.1 .4-.2 .7-.2l21.3 1.3c26 1.5 50.3-12.6 62-35.8l9.6-19.1c.1-.2 .2-.3 .4-.4l43.2 102.5c2.2 5.3 1.4 11.4-2.1 16s-9.3 6.9-15 6l-56.1-8.3-32.2 49.2c-3.2 5-8.9 7.7-14.8 7.2s-11-4.3-13.3-9.7z"/>
</symbol>
<symbol id="gauge-low" viewBox="0 0 512 512">
<path d="M0 256a256 256 0 1 1 512 0A256 256 0 1 1 0 256zM288 96a32 32 0 1 0 -64 0 32 32 0 1 0 64 0zM256 416c35.3 0 64-28.7 64-64s-28.7-64-64-64c-.6 0-1.3 0-1.9 0L190 142.3c-5.3-12.1-19.5-17.6-31.6-12.3s-17.6 19.5-12.3 31.6l64.1 145.7C198.9 318.9 192 334.6 192 352c0 35.3 28.7 64 64 64zM128 256a32 32 0 1 0 -64 0 32 32 0 1 0 64 0zm288 32a32 32 0 1 0 0-64 32 32 0 1 0 0 64zM400 144a32 32 0 1 0 -64 0 32 32 0 1 0 64 0z"/>
</symbol>
<symbol id="circle-dot" viewBox="0 0 512 512">
<path d="M256 512A256 256 0 1 0 256 0a256 256 0 1 0 0 512zm0-352a96 96 0 1 1 0 192 96 96 0 1 1 0-192z"/>
</symbol>
<symbol id="star-sharp-half-stroke" viewBox="0 0 576 512">
<path d="M56 230.4L41.3 218.9c-8.1-6.3-11.3-17-8-26.7S45.7 176 56 176H74.7h2.5 .1H214.5L258.6 37.2l.1-.3 1.3-4 0 0 5.2-16.2C268.3 6.8 277.6 0 288 0s19.7 6.8 22.9 16.7L316 32.9l1.3 4 .1 .3L361.6 176H498.7h.1 2.5H520c10.3 0 19.4 6.5 22.7 16.2s.1 20.4-8 26.7L520 230.4l-2 1.5-.1 .1-114 88.7 44.4 139.5 .1 .4 1.4 4.5 5 15.7c3.2 10-.5 21-9.1 27s-20.2 5.7-28.5-.7l-13-10.1-3.7-2.9-.3-.3L288 406.4 175.8 493.7l-.3 .3-3.7 2.9-13 10.1c-8.3 6.5-19.8 6.8-28.5 .7s-12.3-16.9-9.1-27l5-15.7 1.4-4.5 .1-.4 44.4-139.5L58.1 232l-.1-.1-2-1.5zM288 335.5l0 0 34.4 26.7 47.9 37.2-19.7-61.8-11.8-37.2 30.8-24L426.7 232H361.6h-41l-12.4-39L288 129.5l0 0V335.5z"/>
</symbol>
<symbol id="triangle-exclamation" viewBox="0 0 512 512">
<path d="M256 32c14.2 0 27.3 7.5 34.5 19.8l216 368c7.3 12.4 7.3 27.7 .2 40.1S486.3 480 472 480H40c-14.3 0-27.6-7.7-34.7-20.1s-7-27.8 .2-40.1l216-368C228.7 39.5 241.8 32 256 32zm0 128c-13.3 0-24 10.7-24 24V296c0 13.3 10.7 24 24 24s24-10.7 24-24V184c0-13.3-10.7-24-24-24zm32 224a32 32 0 1 0 -64 0 32 32 0 1 0 64 0z"/>
</symbol>
<symbol id="paper-plane-top" viewBox="0 0 512 512">
<path d="M49.9 27.8C15.1 12.7-19.2 50.1-1.2 83.5L68.1 212.2c4.4 8.3 12.6 13.8 21.9 15c0 0 0 0 0 0l176 22c3.4 .4 6 3.3 6 6.7s-2.6 6.3-6 6.7l-176 22s0 0 0 0c-9.3 1.2-17.5 6.8-21.9 15L-1.2 428.5c-18 33.4 16.3 70.8 51.1 55.7L491.8 292.7c32.1-13.9 32.1-59.5 0-73.4L49.9 27.8z"/>
</symbol>
<symbol id="xmark" viewBox="0 0 384 512">
<path d="M342.6 150.6c12.5-12.5 12.5-32.8 0-45.3s-32.8-12.5-45.3 0L192 210.7 86.6 105.4c-12.5-12.5-32.8-12.5-45.3 0s-12.5 32.8 0 45.3L146.7 256 41.4 361.4c-12.5 12.5-12.5 32.8 0 45.3s32.8 12.5 45.3 0L192 301.3 297.4 406.6c12.5 12.5 32.8 12.5 45.3 0s12.5-32.8 0-45.3L237.3 256 342.6 150.6z"/>
</symbol>
<symbol id="circle-info" viewBox="0 0 512 512">
<path d="M256 512A256 256 0 1 0 256 0a256 256 0 1 0 0 512zM216 336h24V272H216c-13.3 0-24-10.7-24-24s10.7-24 24-24h48c13.3 0 24 10.7 24 24v88h8c13.3 0 24 10.7 24 24s-10.7 24-24 24H216c-13.3 0-24-10.7-24-24s10.7-24 24-24zm40-208a32 32 0 1 1 0 64 32 32 0 1 1 0-64z"/>
</symbol>
<symbol id="square-check" viewBox="0 0 448 512">
<path d="M64 32C28.7 32 0 60.7 0 96V416c0 35.3 28.7 64 64 64H384c35.3 0 64-28.7 64-64V96c0-35.3-28.7-64-64-64H64zM337 209L209 337c-9.4 9.4-24.6 9.4-33.9 0l-64-64c-9.4-9.4-9.4-24.6 0-33.9s24.6-9.4 33.9 0l47 47L303 175c9.4-9.4 24.6-9.4 33.9 0s9.4 24.6 0 33.9z"/>
</symbol>
<symbol id="up-right-from-square" viewBox="0 0 512 512">
<path d="M352 0c-12.9 0-24.6 7.8-29.6 19.8s-2.2 25.7 6.9 34.9L370.7 96 201.4 265.4c-12.5 12.5-12.5 32.8 0 45.3s32.8 12.5 45.3 0L416 141.3l41.4 41.4c9.2 9.2 22.9 11.9 34.9 6.9s19.8-16.6 19.8-29.6V32c0-17.7-14.3-32-32-32H352zM80 32C35.8 32 0 67.8 0 112V432c0 44.2 35.8 80 80 80H400c44.2 0 80-35.8 80-80V320c0-17.7-14.3-32-32-32s-32 14.3-32 32V432c0 8.8-7.2 16-16 16H80c-8.8 0-16-7.2-16-16V112c0-8.8 7.2-16 16-16H192c17.7 0 32-14.3 32-32s-14.3-32-32-32H80z"/>
</symbol>
<symbol id="location-dot" viewBox="0 0 384 512">
<path d="M215.7 499.2C267 435 384 279.4 384 192C384 86 298 0 192 0S0 86 0 192c0 87.4 117 243 168.3 307.2c12.3 15.3 35.1 15.3 47.4 0zM192 128a64 64 0 1 1 0 128 64 64 0 1 1 0-128z"/>
</symbol>
<symbol id="circle-exclamation" viewBox="0 0 512 512">
<path d="M256 512A256 256 0 1 0 256 0a256 256 0 1 0 0 512zm0-384c13.3 0 24 10.7 24 24V264c0 13.3-10.7 24-24 24s-24-10.7-24-24V152c0-13.3 10.7-24 24-24zM224 352a32 32 0 1 1 64 0 32 32 0 1 1 -64 0z"/>
</symbol>
<symbol id="play" viewBox="0 0 384 512">
<path d="M73 39c-14.8-9.1-33.4-9.4-48.5-.9S0 62.6 0 80V432c0 17.4 9.4 33.4 24.5 41.9s33.7 8.1 48.5-.9L361 297c14.3-8.7 23-24.2 23-41s-8.7-32.2-23-41L73 39z"/>
</symbol>
<symbol id="shield-check" viewBox="0 0 512 512">
<path d="M269.4 2.9C265.2 1 260.7 0 256 0s-9.2 1-13.4 2.9L54.3 82.8c-22 9.3-38.4 31-38.3 57.2c.5 99.2 41.3 280.7 213.6 363.2c16.7 8 36.1 8 52.8 0C454.7 420.7 495.5 239.2 496 140c.1-26.2-16.3-47.9-38.3-57.2L269.4 2.9zM369 209L241 337c-9.4 9.4-24.6 9.4-33.9 0l-64-64c-9.4-9.4-9.4-24.6 0-33.9s24.6-9.4 33.9 0l47 47L335 175c9.4-9.4 24.6-9.4 33.9 0s9.4 24.6 0 33.9z"/>
</symbol>
<symbol id="file-invoice-dollar" viewBox="0 0 384 512">
<path d="M64 0C28.7 0 0 28.7 0 64V448c0 35.3 28.7 64 64 64H320c35.3 0 64-28.7 64-64V160H256c-17.7 0-32-14.3-32-32V0H64zM256 0V128H384L256 0zM64 80c0-8.8 7.2-16 16-16h64c8.8 0 16 7.2 16 16s-7.2 16-16 16H80c-8.8 0-16-7.2-16-16zm0 64c0-8.8 7.2-16 16-16h64c8.8 0 16 7.2 16 16s-7.2 16-16 16H80c-8.8 0-16-7.2-16-16zm128 72c8.8 0 16 7.2 16 16v17.3c8.5 1.2 16.7 3.1 24.1 5.1c8.5 2.3 13.6 11 11.3 19.6s-11 13.6-19.6 11.3c-11.1-3-22-5.2-32.1-5.3c-8.4-.1-17.4 1.8-23.6 5.5c-5.7 3.4-8.1 7.3-8.1 12.8c0 3.7 1.3 6.5 7.3 10.1c6.9 4.1 16.6 7.1 29.2 10.9l.5 .1 0 0 0 0c11.3 3.4 25.3 7.6 36.3 14.6c12.1 7.6 22.4 19.7 22.7 38.2c.3 19.3-9.6 33.3-22.9 41.6c-7.7 4.8-16.4 7.6-25.1 9.1V440c0 8.8-7.2 16-16 16s-16-7.2-16-16V422.2c-11.2-2.1-21.7-5.7-30.9-8.9l0 0c-2.1-.7-4.2-1.4-6.2-2.1c-8.4-2.8-12.9-11.9-10.1-20.2s11.9-12.9 20.2-10.1c2.5 .8 4.8 1.6 7.1 2.4l0 0 0 0 0 0c13.6 4.6 24.6 8.4 36.3 8.7c9.1 .3 17.9-1.7 23.7-5.3c5.1-3.2 7.9-7.3 7.8-14c-.1-4.6-1.8-7.8-7.7-11.6c-6.8-4.3-16.5-7.4-29-11.2l-1.6-.5 0 0c-11-3.3-24.3-7.3-34.8-13.7c-12-7.2-22.6-18.9-22.7-37.3c-.1-19.4 10.8-32.8 23.8-40.5c7.5-4.4 15.8-7.2 24.1-8.7V232c0-8.8 7.2-16 16-16z"/>
</symbol>
<symbol id="minus" viewBox="0 0 448 512">
<path d="M432 256c0 17.7-14.3 32-32 32L48 288c-17.7 0-32-14.3-32-32s14.3-32 32-32l352 0c17.7 0 32 14.3 32 32z"/>
</symbol>
<symbol id="chevron-right" viewBox="0 0 320 512">
<path d="M310.6 233.4c12.5 12.5 12.5 32.8 0 45.3l-192 192c-12.5 12.5-32.8 12.5-45.3 0s-12.5-32.8 0-45.3L242.7 256 73.4 86.6c-12.5-12.5-12.5-32.8 0-45.3s32.8-12.5 45.3 0l192 192z"/>
</symbol>
<symbol id="calculator" viewBox="0 0 384 512">
<path d="M64 0C28.7 0 0 28.7 0 64V448c0 35.3 28.7 64 64 64H320c35.3 0 64-28.7 64-64V64c0-35.3-28.7-64-64-64H64zM96 64H288c17.7 0 32 14.3 32 32v32c0 17.7-14.3 32-32 32H96c-17.7 0-32-14.3-32-32V96c0-17.7 14.3-32 32-32zm32 160a32 32 0 1 1 -64 0 32 32 0 1 1 64 0zM96 352a32 32 0 1 1 0-64 32 32 0 1 1 0 64zM64 416c0-17.7 14.3-32 32-32h96c17.7 0 32 14.3 32 32s-14.3 32-32 32H96c-17.7 0-32-14.3-32-32zM192 256a32 32 0 1 1 0-64 32 32 0 1 1 0 64zm32 64a32 32 0 1 1 -64 0 32 32 0 1 1 64 0zm64-64a32 32 0 1 1 0-64 32 32 0 1 1 0 64zm32 64a32 32 0 1 1 -64 0 32 32 0 1 1 64 0zM288 448a32 32 0 1 1 0-64 32 32 0 1 1 0 64z"/>
</symbol>
</svg>
