<svg xmlns="http://www.w3.org/2000/svg">
<symbol id="icon-circle-tick-dark" viewBox="0 0 512 512">
<path d="M443.5 256c0 106-85 187.2-189.8 187.2s-185-81.1-185-187.2s80.2-187.4 185-187.4s189.8 81.4 189.8 187.4zm-345.8 0c0 87.2 69.9 156.9 156.1 156.9s159.5-69.7 159.5-156.9s-73.4-156.8-159.5-156.8S97.7 168.8 97.7 256z"/>
</symbol>
<symbol id="icon-replacement-cover" viewBox="0 0 512 512">
<path d="M243.2 58.2c-6.1 4.1-6.4 5.1-6.7 22l-.3 15.3-14.7 0c-13.9 0-14.9 .1-17.6 1.9c-4.7 3.2-6.4 6.2-6.4 11.3c0 4.9 1.5 7.8 5.7 10.9c1.9 1.4 3.7 1.6 17.6 1.5l15.4-.1 .3 15.7c.3 17.2 .5 18 6.1 22.2c3.7 2.7 10.6 2.4 14.6-.7c5-3.8 5.6-6.1 5.6-22.7l0-14.5 15.1 0c13.6 0 15.4-.2 17.9-1.7c8.4-5.1 8.1-16.1-.6-22c-2.7-1.8-3.7-1.9-17.6-1.9l-14.8 0-.3-15.3c-.3-14-.4-15.5-2.1-17.7c-2.9-3.9-7-6.3-11-6.3c-2.3 0-4.6 .7-6.4 1.9M77.4 80.9c-1.8 1.1-5.3 6.9-13.2 21.5L53.3 122.5 29.1 126l-24.3 3.5-2.4 2.7c-3.1 3.4-3.2 7.6-.3 10.9c1.1 1.3 9 8.7 17.5 16.5C28 167.3 35 174.3 35 175c0 .7-1.5 10.1-3.4 20.8s-3.4 20.3-3.4 21.5c0 3.2 1.8 6.4 4.4 7.7c5.1 2.6 7.9 1.8 29.7-9l20.6-10.2 20.4 10.2c17.3 8.6 21.1 10.2 24.4 10.2s4.4-.4 6.8-2.9c1.9-1.9 2.9-3.7 2.9-5.3c0-1.3-1.7-11.7-3.9-23.2c-3.4-18.1-3.8-21-2.6-21.8c.7-.6 8.4-7.4 17.1-15.3c17.4-15.8 18.8-17.6 16.5-23.1c-.7-1.6-2.1-3.5-3.2-4.1c-1.1-.6-12.7-2.6-25.7-4.6l-23.8-3.5-10.5-19.6C90 82 87.9 79.4 82.4 79.4c-1.5 0-3.8 .7-5.1 1.5m12.8 45.7l7 13 14.8 2c8.1 1.1 15.3 2.1 15.9 2.3c.6 .2-3.4 4.4-9 9.4s-10.7 9.7-11.5 10.5c-1.3 1.3-1.3 2.2 1.1 14.6c1.4 7.3 2.4 13.9 2.3 14.7c-.2 1.2-2.8 .2-14.3-5.4l-14.1-6.8-14 7c-7.7 3.8-14.1 6.8-14.2 6.7s.9-6.4 2.2-13.9c1.3-7.5 2.4-14.1 2.5-14.6s-4.9-5.5-11.1-11.1s-10.8-10.3-10.5-10.7c.3-.3 7.3-1.5 15.4-2.5l14.8-1.9 1.9-3.1c1-1.7 4.3-7.6 7.3-13.1c2.9-5.5 5.6-10 5.9-10c.3 0 3.7 5.9 7.6 13m219.4 42.3c-1.7 .8-45 37.4-96.2 81.2c-101.6 87.1-96.4 82.2-95.2 90.5c.7 4.9 5.4 9.8 10 10.6c6.3 1.2 8.9-.4 26.1-15.3l16.3-14.1 .2 62.5 .2 62.5 1.9 3.1c4.9 7.8 17.3 7.7 22-.2c1.7-2.8 1.7-4.6 1.9-76.7l.2-73.8 58.5-49.9c32.2-27.5 59-49.9 59.7-49.9c.7 0 27.5 22.5 59.7 49.9l58.5 49.9 0 73 0 73 1.9 3.8c4.5 8.7 17 9.3 22.2 1l1.9-3.1 .2-62.5 .2-62.5 15.8 14.1c16.8 14.9 19.4 16.5 25.6 15.3c9.2-1.7 13.4-13.9 7.4-21.4c-3.2-4-185.2-159.3-188.4-160.8c-4.2-2-6.8-2-10.9-.1M282.2 312.7c-8.3 2.3-15.7 9.6-18.1 18c-1.1 3.8-1.3 9.5-1.1 35.6l.3 31 2.4 4.8c2.6 5.3 6.3 9 11.9 12c3.6 1.9 4 1.9 37.3 1.9l33.7 0 4.2-2.1c5.4-2.6 9.9-7.1 12.5-12.5c2-4.2 2.1-4.4 2.3-35.2c.3-35 .1-36.7-5.6-44.1c-2.3-3.1-4.9-5.1-9.1-7.3l-5.9-3-30.4-.2c-23-.1-31.4 .1-34.5 .9m59.2 51.7l0 26.5-26 0-26 0 0-26.5 0-26.5 26 0 26 0 0 26.5M62.4 351.6c-2.9 .7-6.4 3.4-8.1 6.4c-.6 1-1.2 7.8-1.4 17.1l-.4 15.4-15.4 .4c-16.4 .4-17.5 .7-21.2 5.1c-3.1 3.7-3.7 8.4-1.6 13.1c2.9 6.5 4.2 6.9 22.3 7.4l15.8 .4 .4 15.8c.3 10.8 .8 16.4 1.6 17.7c3.2 5.5 13.9 7.3 18.9 3.1c4.4-3.8 4.7-4.8 5.2-21.2l.4-15.4 15.4-.4c12.9-.4 15.8-.7 17.7-2c7.6-5 7.5-16.5-.1-21.6c-2-1.3-4.6-1.6-17.7-2l-15.4-.4-.4-15.4c-.4-14.4-.6-15.6-2.4-18.2c-3.2-4.4-8.5-6.5-13.7-5.3"/>
</symbol>
<symbol id="icon-replacement-contents-dark" viewBox="0 0 512 512">
<path d="M210 264h-29.5c-8.1 0-14.6 6.6-14.6 14.9v40.9c0 10.3-8.2 18.6-18.2 18.6h-25.5c-.7 0-1.4 0-2-.1c-.5 0-1.1 .1-1.6 .1h-7.3c-10.1 0-18.2-8.3-18.2-18.6v-52c0-.4 0-.9 0-1.3v-32.3H78.6c-8.2 0-14.6-6.5-14.6-14.9c0-4.2 1.4-7.9 4.6-11.1l116.7-103.8c3.2-3.3 6.8-3.7 10-3.7s6.8 .9 9.6 3.3l96.8 88.3h-19.4c-41.8 0-68.7 30.3-72.3 71.9z"/>
</symbol>
<symbol id="icon-travel-light" viewBox="0 0 512 512">
<path d="M91 297.6c-6.8 1.9-12.9 3.7-19.1 5.3c-12 3.2-23.9 6.5-35.9 9.8c-1.6 .4-2.6 .1-3.6-1c-10.4-11.9-21-23.8-31.7-35.5c-1.3-1.5-1-2.2 1-2.9c5.2-1.8 10.2-3.8 15.4-5.6c1.5-.4 3.4-.3 4.9 .1c22.2 9.4 44.2 18.8 66.3 28.2c.8 .4 1.5 .9 2.8 1.6z"/>
</symbol>
<symbol id="icon-contents-light" viewBox="0 0 512 512">
<path d="M369.8 423.9h37.9V108.1h-82.8l45.3-75.9h80.3l45.3 75.9H420.3v315.9h25.2v25.2h-75.7v-25.2z"/>
</symbol>
<symbol id="icon-health-dark" viewBox="0 0 512 512">
<path d="M358.7 154.7c-16-5.5-33-6-50.4-1.3c-34.4 9.4-70.5 9.4-104.6 0c-17.3-4.7-34.1-4.5-50.4 1.3c-60.8 21-90.2 109.9-65.6 198.3c14.2 50.9 43.3 92.3 80 113.3c25.2 14.4 51.1 17.6 75.5 9.2c8.4-2.9 17-2.9 25.4 0c8.7 2.9 17.8 4.5 27 4.5c16 0 32.5-4.7 48.5-13.9c36.5-21 65.6-62.2 80-113.3c24.7-88.1-4.7-177-65.6-198z"/>
</symbol>
<symbol id="icon-circle-cross-light" viewBox="0 0 512 512">
<path d="M224.3 328.4l44.1-44.1 44.5 44.5 24-24-44.5-44.5 44.1-44.1-26.4-26.4-44.1 44.1-47.6-47.6-24 24 47.6 47.6-44.1 44.1 26.4 26.4z"/>
</symbol>
<symbol id="icon-circle-discount-light" viewBox="0 0 512 512">
<path d="M247.4 358V333c-17.6-.8-34.7-5.8-44.7-11.3l7.9-30.8c11.1 6.1 26.6 11.6 43.7 11.6c15.3 0 25.5-6 25.5-16.3c0-10-8.4-16.4-28.1-22.9c-28.2-9.5-47.4-22.7-47.4-48.3c0-23.5 16.3-41.6 44.5-46.9v-25.1h25.8v23.2c17.4 .5 29.2 4.5 38.4 8.7l-7.9 29.8c-6.6-3.2-18.9-9.2-37.9-9.2c-17.1 0-22.6 7.7-22.6 15c0 8.5 9.2 14.2 31.8 22.4c31.3 11 43.7 25.5 43.7 49.5c0 23.5-16.3 43.5-46.6 48.5V358h-26z"/>
</symbol>
<symbol id="icon-health-light" viewBox="0 0 512 512">
<path d="M248.3 160.5c5.2 .3 10.8 .3 16 0c0-7.9-.3-15.2-.8-22.3l-.3-1.6h1.3c54 0 98.1-44.1 98.1-98.1c0-3.7-2.9-6.6-6.6-6.6c-47.5 0-87.1 33.8-96 78.7c-8.9-48.3-29.1-69.8-30.4-70.8c-3.1-3.1-8.1-3.1-11.3 0s-3.1 8.1-.3 11.3c.5 .5 30.4 32.5 30.2 109.4z"/>
</symbol>
<symbol id="icon-start-windscreen-claim" viewBox="0 0 512 512">
<path d="M499.5 327.5l-96.1-58.6c-7.9-4.7-18.1-4.9-26.1-.5c-8.2 4.6-13.1 13.1-13.1 22.4v117c0 9.3 5.1 18 13.1 22.6c3.8 2.1 8 3.3 12.5 3.3c4.9 0 9.9-1.5 13.6-4.1l95.8-58.2c7.9-4.3 12.8-12.8 12.8-21.9s-4.6-17.2-12.3-21.9h-.2zm-10.3 27l-96.4 58.7c-1.8 1.1-4.1 1.3-5.9 .2c-2-1.1-3.1-3.1-3.1-5.4V291c0-2.3 1.1-4.3 3.1-5.4c1-.5 2-.8 3-.8s2.3 .3 3.3 .8L489.2 344c1.8 1.1 3 3.1 3 5.2c0 2-1 3.9-3 4.9v.3zM404.1 242.1l32.9 20c3.3 2 7.6 2 10.7-.3c3.1-2.1 4.8-6.1 4.1-9.8l-9.4-52.4s0-1.6 0-2.5l-8.9-47.6c-6.9-37.1-39.6-64.1-77.5-64.1H113c-38.1 .2-70.8 27.3-77.5 64.8L.5 344.8c-1.6 9.7 .8 19.3 7.2 26.8c6.2 7.4 15.4 11.6 25.1 11.6H331.1c5.4 0 9.9-4.4 9.9-9.8v-96c0-14.9 8.2-28.8 21.2-36c12.8-7.2 29.4-6.9 41.9 .8v-.2zm-51.6-17.8c-19.2 10.8-31.2 31.2-31.2 53.2v86.2H32.9c-3.9 0-7.6-1.6-10-4.7c-2.5-2.9-3.6-6.9-2.8-10.8L54.9 153.7c5.1-28.1 29.6-48.6 58.1-48.6h31l18.4 25.7-39.1 26c-2.5 1.6-3.9 4.3-4.1 7.2c0 2.9 1.1 5.7 3.4 7.5l52.1 41.6c3.9 3.1 9.7 2.5 12.8-1.5s2.5-9.7-1.5-12.8l-42.4-33.7L180.2 141c2-1.3 3.4-3.4 3.9-5.9s0-4.9-1.5-6.9l-16.3-22.7H355.6c28.4 0 52.9 20.3 58.1 48.1l8.5 45.3s0 1.5 0 2.3l5.9 33.2-14.3-8.7c-18.6-11.3-42.9-11.6-61.8-1.1l.3-.3z"/>
</symbol>
<symbol id="icon-contents-dark" viewBox="0 0 512 512">
<path d="M277.4 158.6H104.5c-23-.4-33.7 1-42.8 7.5c-5.7 4.7-7.9 9.9-7.9 18.6v40.3c27.7 1.8 50.6 21 50.6 56.4v16.1h139v-18.3c0-7.5 9.3-24.6 22.7-35.5c14.9-12.1 32.2-18.6 53.1-18.6V182.9c0-8.5-2.3-13.2-8.4-17.5c-5.8-3.8-14.9-6.5-33.5-6.7zM15.9 275v174.2h328.6V284.1c-.1-28.9-17-42.8-40.3-41.5c-24.6 1.4-35.6 19.2-36.4 43.2l.5 37.2H79.2v-47.4c0-12.2-4.5-22.4-12.7-27.9c-9-6.5-26.2-6.9-36.4-1c-9.5 5.8-14.1 15.6-14.1 28.3z"/>
</symbol>
<symbol id="icon-replacement-cover-light" viewBox="0 0 512 512">
<path d="M274.3 170.6l128.1 112 .2 101.3c.1 20.2-16.3 36.6-36.6 36.6H182.9c-20.2 0-36.6-16.3-36.6-36.6l0-101.4 128-112zm-115.5-25.4l-70.7 70.3c-4.3 3.5-9.6 5.4-15.1 5s-10.4-2.7-14.1-7c-7.4-8.6-6.5-21.5 2-28.9l79.5-60.3a20.5 20.5 0 0 0 2.3 3.3l13 14.9c1.1 1 2.1 1.6 3 2.7z"/>
</symbol>
<symbol id="icon-accidental-damage" viewBox="0 0 512 512">
<path d="M296.8 360.6c7-7 18.7-7 25.7 0c7.5 7.5 7 18.7 0 25.7c-7.5 7.5-18.2 7.5-25.7 0c-7-7-7.5-18.2 0-25.7zM138.4 99.4c18.7-18.7 49.8-18.7 68.5 0L412.4 304.9c19.3 19.3 18.7 49.8 0 68.5L309.6 476.2c-19.3 19.3-49.2 19.3-68.5 0L35.6 270.7c-18.7-18.7-19.3-49.2 0-68.5L138.4 99.4zM395.3 322.1L189.7 116.5c-9.1-9.1-25.2-9.1-34.3 0L52.7 219.3c-9.6 9.6-9.1 25.2 0 34.3L258.3 459.1c9.6 9.6 24.6 9.6 34.3 0L395.3 356.3c9.1-9.1 9.6-24.6 0-34.3zM269.4 92.2c-4.1 0-7.3-.7-9.8-3c-4.9-4.5-4.9-12.6 0-17.1l52.1-47.5c4.9-4.5 13.9-4.5 18.7 0s4.9 12.6 0 17.1L278.4 89.2c-2.4 2.2-5.7 3-9 3zm68.4 68.3c-4.9-4.5-4.9-12.6 0-17.1L468.3 24.7c4.9-4.5 13.9-4.5 18.7 0s4.9 12.6 0 17.1L356.6 160.5c-2.4 2.2-5.7 3-9 3c-4.1 0-7.3-.7-9.8-3zm130.4 6.7c4.9-4.5 13.9-4.5 18.7 0s4.9 12.6 0 17.1l-52.1 47.5c-2.4 2.2-5.7 3-9 3c-4.1 0-7.3-.7-9.8-3c-4.9-4.5-4.9-12.6 0-17.1l52.1-47.5z"/>
</symbol>
<symbol id="icon-circle-cross-dark" viewBox="0 0 512 512">
<path d="M261.3 407.6c-86.5 0-156.9-70.4-156.9-156.9s70.4-156.9 156.9-156.9c86.5 0 156.9 70.4 156.9 156.9c0 86.5-70.4 156.9-156.9 156.9zm0-343.6c-102.9 0-186.7 83.7-186.7 186.7s83.7 186.7 186.7 186.7s186.7-83.7 186.7-186.7s-83.7-186.7-186.7-186.7z"/>
</symbol>
<symbol id="icon-home-dark" viewBox="0 0 512 512">
<path d="M365.2 116.5V81.6h69.9v103.1l-69.9-68.2zM256 108.5L450.1 297.4v142.8H239.7V308.6H136.3v131.5H63V296.3l193-187.9zm128.8 200.4h-79.3v77.3h79.3v-77.3z"/>
</symbol>
<symbol id="icon-business-light" viewBox="0 0 512 512">
<path d="M305.8 307.3c0 6-4.9 10.9-10.9 10.9h-77.7c-6 0-10.9-4.9-10.9-10.9V266.9c0-6 4.9-10.9 10.9-10.9h77.7c6 0 10.9 4.9 10.9 10.9v40.4z"/>
</symbol>
<symbol id="icon-car" viewBox="0 0 512 512">
<path d="M405.1 124.5c19.5 29.1 27.1 46.2 38.5 78.2c0 0 0 .1 0 .1a10.7 10.7 0 0 1 .2 .5c0 .1 .1 .3 .1 .4c1.5 4.5 2.2 6.7 3.1 9.8a42.1 42.1 0 0 1 2.7-.9c3.2-1.1 5-1.6 7.5-7.2c2.5-5.5 3.9-6 6.2-6.9c.4-.1 .8-.3 1.2-.5c3.4-.9 8.2-1.6 15.5-1.7c17 .8 32.6 19 31.9 28.4c-.6 8.7-17.8 19.3-49.1 28.8c2.4 3.5 3 5.7 3.4 9.7c1.2 7.5-1.1 56.2-7.6 84.9c-1.5 5.7-2 7.1-3 9.6c-6.3 7.2-21.6 13.7-39.8 16.5c-13.8 2.7-52.2 5.2-117.3 6.1s-134.2 .1-170.7-1.9c-34.8-1.6-60.1-7-71.8-17.6c-4.6-11.1-8-31.3-9.9-62.1c-1.1-17.3-1.5-27.8-.5-31.5c1.5-6.3 2.8-9.1 5.8-12.9l7.9 2.1 .1 0-.1-.1c-.6-4.7-.9-7.1-1.1-7.9c-2 .9-5.4 3.9-6.9 5.8C19.7 244.6 .8 234.3 0 224.7c-.8-9 16.4-33.8 32-34.6c7.2 0 11.5 .8 14.6 1.9c4.3 2 6 3.5 8.5 10.7c1.3 3.7 5.1 7.1 9.7 9.3c.3-.8 1.3-3.8 3.1-9.3c6.2-18.4 12.6-31.8 21.1-48.5c10.5-19.9 24-39.9 31.6-45.7c9.3-5.6 20.4-9.5 44.1-14.2c15.5-2.6 24.1-3.7 39.3-5c16.7-1.3 26-1.6 41.7-2c36.9-.1 56 .7 85.5 4.6c32.9 5 43.2 8.9 53.3 13.1c5.3 2.2 9.2 4.9 10.8 6.9c4.3 5 6.7 8.1 9.8 12.6zm48.3 124c-.3 1.8-.4 3.6-.6 5c-.2 1.6-.3 2.7-.4 2.9l10.4-2.9c-3.8-3.9-4.2-4-9.4-5zm-14.7 47.8c2.5-10.2 3.1-15.3 4-26.4c-6.2 1.4-13.2 3-29.4 7c-11.4 2.8-17.9 4.4-29.3 7.4c-8.8 2.4-13.4 3.8-21.3 6.2c-5.6 1.9-7.7 2.8-9.9 4.1l0 0c-2.6 6-4.1 10.4-5.3 14.8c-1.3 5.3-1.2 7.7-.9 9.4c.8 2.4 2.5 2.3 4.9 2.3l.6 0c14 0 32.8-1.7 53.4-4.1c7.9-1.1 15.5-2.2 21.8-3.9c6.1-1.6 8.8-7.7 11.5-16.8zm-119.8 .4l-.2 0c-14.8-.8-21.8-1.1-31.2-1.5c-13.2-.4-20.2-.6-31.4-.7c-24.7 .3-38.5 .8-62.7 2.2l.3 4.1c.4 5.1 .6 8 .8 8.6c.4 4.6 1.7 10.4 2.4 11.1c.6 .7 3.7 1.2 5.8 1.6l.7 .1c13.2 1.6 28.6 2.4 52.6 3c25.5-.6 44-1.7 53.3-3.2c3-.5 6.1-1.1 6.1-2.1c.7-.9 1.6-5 2.1-10.6c.2-2.1 .4-3.9 .6-5.5c.3-2.4 .6-4.5 .7-7.2zm-159.7-1.8l-.1 0c-.9-1.9-13.2-5.9-41.8-13.3c-30.7-7.6-46.1-11.2-48-11.6c1 13.4 2.4 21.6 5.5 31.4c3.4 7.6 4.7 10.5 10.6 11.9c18.8 4.4 58.6 7.9 74.6 7.9l.1 0c3.2-.2 4-.3 4.8-1.2c1.2-2.1 1-4.6 0-9.2c-1.2-5.3-3.8-11.8-5.7-15.9zM256 104c-56.7 0-107.6 7.1-124 18.5c-15.9 21.7-24.8 40.1-37 70.4c-3.7 9.6-4.8 14-4 16c.8 3.2 5.8 4 11.8 5c1.3 .2 2.6 .4 3.9 .7c7 1.3 10.6 1.8 16.3 2.3c44.9 2.7 81.2 2.9 128.4 3.3l4.7 0c45.8-.5 70.3-.7 106.6-1.9l5.2-.2c16.3-.7 22.7-1 30.2-2.3c2.1-.4 4-.7 5.8-.9c5.1-.8 8.8-1.4 12.1-2.2c4.3-1.3 5.6-2.7 5.2-7.2c-6.6-23.2-28.7-69.3-41.6-83.3c-18.3-11.1-61.6-18.1-123.5-18.1zM70.3 426.7h33.5c7.5 0 13.9-5 14.5-13.6v-26c-31.5-2.1-53.1-9-62.2-18.7v44.8c.6 7.2 6.6 13.4 14.1 13.4zm371.4 0h-33.5c-7.5 0-13.9-5-14.5-13.6v-26c31.5-2.1 53.1-9 62.2-18.7v44.8c-.6 7.2-6.6 13.4-14.1 13.4z"/>
</symbol>
<symbol id="icon-circle-discount-dark" viewBox="0 0 512 512">
<path d="M261.3 407.6c-86.5 0-156.9-70.4-156.9-156.9s70.4-156.9 156.9-156.9s156.9 70.4 156.9 156.9s-70.4 156.9-156.9 156.9zm0-343.6C158.4 64 74.7 147.7 74.7 250.7s83.7 186.7 186.7 186.7S448 353.6 448 250.7S364.3 64 261.3 64z"/>
</symbol>
<symbol id="icon-home-light" viewBox="0 0 512 512">
<path d="M496 266L468.2 293 256 86.4 43.8 293.1 16 266 256.2 32.1 496 266z"/>
</symbol>
<symbol id="icon-life-dark" viewBox="0 0 512 512">
<path d="M215.5 117.6c18.9 0 32.8 12.1 41.1 36.2c10.6 30.9 38.5 108.4 41.5 116.2c.9 2.1 1.5 4.5 1.5 6.8c0 9.8-7.9 17.7-17.7 17.7c-7 0-13.2-4-16-10l-.6-1.3c0-.1-.4-1.2-1.1-3.1l-1.3-3.5a17780.9 17780.9 0 0 1 -19.6-54l-2.1-5.9a7216.8 7216.8 0 0 1 -11.2-31.5c.9 7.9-2.1-8.5 25.3 132.6c1.1 6-3.6 11.7-9.8 11.7H231.9v129c0 11.7-9.6 21.3-21.3 21.3s-21.3-9.6-21.3-21.3v-129h-9.2v129c0 11.7-9.6 21.3-21.3 21.3s-21.3-9.6-21.3-21.3v-129h-13.6c-6.2 0-11.1-5.5-9.8-11.7c21.9-112.6 24.4-124.8 25-129.1l0-.4 0-.3 0-.3c.1-.5 .1-1 .2-1.8l.1-.5a6423.9 6423.9 0 0 1 -8.1 22.6l-3.2 8.8c-12 33.3-23.9 66-24.1 66.5c-3.4 9.4-13.6 14.1-22.8 10.6c-9.4-3.4-14.1-13.6-10.6-22.8c.4-.9 29.4-80.3 42.2-117.5c8.3-24.1 22.1-36.2 41.1-36.2h61.5zM184.6 32c20.4 0 36.8 16.6 36.8 36.8s-16.4 36.8-36.8 36.8s-36.8-16.6-36.8-36.8A36.7 36.7 0 0 1 184.6 32z"/>
</symbol>
<symbol id="icon-circle-tick-light" viewBox="0 0 512 512">
<path d="M315.6 186.1l28 27.3-111.4 114.1-28-27.3-36.9-37 29.1-28.7 36.3 36.6 82.9-84.9z"/>
</symbol>
<symbol id="icon-trailer-light" viewBox="0 0 512 512">
<path d="M210.8 263.5c41.6 0 75.3 33.7 75.3 75.3s-33.7 75.3-75.3 75.3s-75.3-33.7-75.3-75.3s33.7-75.3 75.3-75.3zm0 30.1c-25 0-45.2 20.2-45.2 45.2s20.2 45.2 45.2 45.2s45.2-20.2 45.2-45.2-20.2-45.2-45.2-45.2z"/>
</symbol>
<symbol id="icon-person-light" viewBox="0 0 512 512">
<path d="M318.9 370.3l-54.5 91.5c-3.1 5.7-6.8 10.2-8.4 10.2s-5.4-4.6-8.4-10.2l-56.9-95.6c18 11.8 40.4 18.4 68.6 18.4c24 0 43.6-5.1 59.7-14.3z"/>
</symbol>
<symbol id="icon-new-zealand" viewBox="0 0 512 512">
<path d="M125.5 444.4c0-2.2 2.1-4.4 5.2-4.4c1 0 1 0 2.1 1.1c3.1 2.2 1 7.7 4.2 9.9c-1 1.1-3.1 1.1-4.2 2.2c7.3-1.1 5.2 5.5 0 7.7c-4.2 2.2-7.3 4.4-11.4 5.5c-6.2 0-3.1-6.6 0-8.8s6.2-5.5 6.2-12m-7.5-14.9c1 11 7.9 3 12.8 6c5.9 5 13.8 8 20.7 10c7.9 0 15.8-4 20.7-10c4.9-7 10.9-14 16.8-21.1c1-1 4.9-4 4.9-4v-7c2-4 4-9 5.9-13s3.9-9 3.9-14c0-8 4-10 8.9-15c3-3 6.9-6 10.9-7c4-2 6.9-5 10.9-7s6.9-1 11.8-2c9.9-2 0-5-5.9-5c-1-13 5.9-15 13.8-22.1c4.9-5 8.9-12 9.9-20.1c3-8 8.9-15 12.8-22.1c1-4-2-7-1-10c1-4 3.9-5 3.9-11c-3 0-6.9 0-7.9-2c-2-2 1-5 0-8c-7.9-3-4.9 6-7.9 9s-13.8-1-15.8 5c-1-4 1-8 1-11c-5.9-1-3-9-6.9-12s-5.9 4-7.9 7c-2 2-4.9 2-5.9 3s-1 4-1 7c-1 11-4.9 20.1-16.8 21.1c-1 9-4 17-7.9 25.1c-3.9 6-8.9 11-14.8 15c-3 3-4.9 6-6.9 9c-3 4-5.9 4-8.9 7c-4 3-4 5-6.9 7c-4 2-6.9 4-11.9 4c-3 11-12.8 6-18.8 13c-3 3-4 7-8.9 9s-7.9 5-9.9 11c-1 4-3 7-4.9 10c-3 4-6.9 7-10.9 11c-3 3-4.9 7-6.9 11c0 1 1 2 0 3s-1 2-1 2s-4 3 0 5c-1 0-3 3-3 4s1 3 2 5c1 3 4 5 5.9 6c7.9 0 14.8 0 20.7-2zm176.1-170.9c4-2 7-8 8-13c2-4 3-9 4-13c1-5-1-11-5-15c-2-2-4-1-7-2c-2-1-4-2-6-4c-7-3-21.1-8-15.1-19c2-4 8-3 11.1-6c4-3 7-8 8-13c2-4 2-9 3-13c2-3 2-7 1-11c-4-7-6-15-6-23c2 0 3 0 5 1c1-5-6-3-9.1-2v-8c-1-3-4-5-5-9c2 0 4 0 5 1c1-3-4-10-7-10v4c-3 1-5-5-7-7c-2-3-4-6-6-8c-3-5-9.1-9-12.1-14s0-11-3-16s-12.1-8-10.1-14c2 2 6 3 9.1 2c-1 2-2 3-3 5c3 0 4 2 5 4c4 4 3 3 8 4c9.1 4 14.1 6 20.1 9c6 4 4 8 8 14c1 2 7 5 6 8c-1 5-6 0-8-2c2 4 5 8 8 11c4 5 2 6 2 12c1 8 12.1 17 19.1 21c0-8-2-15-7-21c4-2 7 2 10.1 5s3 2 4 6v7c1 10 7 18 16.1 23c5 2 10.1 3 15.1 3c7 1 8 0 13.1-4c2-1 3-2 5-3s4-4 6-5c6-3 8 5 14.1 4c0 6-2 8-4 14s0 9-2 13s-6 5-8 9s0 7 0 13h-3c0-3-13.1-3-16.1-2c-4 3-7 8-6 13c0 7 4 7 0 13l-6 12c-3 9-9.1 16-13.1 24c-2 4-4 8-8 11c-3 2-9.1 8-13.1 7s-2-3-4-5c-2-1-5-2-7-1c-1-4-7-2-6-6s5-3 6-5"/>
</symbol>
<symbol id="icon-start-windscreen-claim-light" viewBox="0 0 512 512">
<path d="M496.3 325.6l-108-65.9c-2.9-1.8-6.1-2.7-9.4-2.7c-3 0-6.1 .8-8.8 2.2c-5.6 3.2-9.1 9.1-9.1 15.7v132c0 6.6 3.5 12.5 9.1 15.7c2.7 1.4 5.6 2.2 8.6 2.2c3.4 0 6.7-1 9.6-2.9l108-65.9c5.3-3 8.6-8.8 8.6-15s-3.2-12-8.6-15.4z"/>
</symbol>
<symbol id="icon-car-plus" viewBox="0 0 512 512">
<path d="M71.8 241.3c-19.4 7-32.7 25.7-32.7 46.7v74.7h221c.7 8.5 2.2 16.8 4.4 24.9H39.1v37.3c0 7-6.2 12.4-12.4 12.4c-7 0-12.4-5.4-12.4-12.4V288c0-27.2 14.8-51.3 37.3-64.6v-.8l27.2-89.4c7.8-25.7 31.9-44.3 59.1-44.3H288c27.2 0 51.3 18.7 59.9 44.3L371.7 213c-14.6 3-28.8 8.4-42 16.2c-4.8 2.8-9.4 5.8-13.8 9H88.9c-6.2 0-11.7 1.6-17.1 3.1zM102.1 141L80.3 214.1c1.1 0 2.3-.2 3.7-.3c1.5-.2 3.2-.4 4.9-.4H337.8c1.2 0 2.5 .2 3.9 .4s2.7 .4 3.9 .4L323.8 141c-4.7-16.3-19.4-27.2-35.8-27.2H137.9c-16.3 0-31.1 10.9-35.8 27.2zM95.2 275.5a18.7 18.7 0 1 1 -.1 37.4 18.7 18.7 0 1 1 .1-37.4zm317.2 62.3V300.4c0-6.2-6.2-12.4-12.4-12.4c-7 0-12.4 6.2-12.4 12.4v37.3H350.2c-7 0-12.4 6.2-12.4 12.4c0 7 5.4 12.4 12.4 12.4h37.3V400c0 7 5.4 12.4 12.4 12.4c6.2 0 12.4-5.4 12.4-12.4V362.7h37.3c6.2 0 12.4-5.4 12.4-12.4c0-6.2-6.2-12.4-12.4-12.4H412.4zm-68.4-84c-35 20.2-56 56.8-56 96.4c0 40.4 21 77 56 97.2c34.2 20.2 77 20.2 112 0c34.2-20.2 56-56.8 56-97.2c0-39.7-21.8-76.2-56-96.4c-35-20.2-77.8-20.2-112 0zm99.6 21.8c26.4 15.6 43.6 43.6 43.6 74.7c0 31.9-17.1 59.9-43.6 75.4c-27.2 16.3-60.7 16.3-87.1 0c-27.2-15.6-43.6-43.6-43.6-75.4c0-31.1 16.3-59.1 43.6-74.7c26.4-16.3 59.9-16.3 87.1 0z"/>
</symbol>
<symbol id="icon-natural-disaster-alt" viewBox="0 0 512 512">
<path d="M166.7 71.2c37.7 31.9 64.5 84.2 64.5 109.4c0 60.4-52.1 109.4-115.6 109.4C51.6 290.1 0 241.1 0 180.7C0 146.4 35.6 90.2 86.7 46.5c19.6 17.1 37.2 35.2 51.1 53.3c8.8-10 18.1-19.5 28.9-28.5zm-51.1 196c50.1 0 90.8-38.5 90.8-86.6c0-14.8-16.5-49.5-40.3-76.6c-3.1 3.3-6.2 6.7-9.3 10l-20.1 22.8-19.1-23.8c-8.8-11.4-19.6-23.3-31-34.3c-39.2 38.5-61.9 80.4-61.9 101.8c0 48.1 40.8 86.6 90.8 86.6zm165.8-137c-7.2 0-12.4-4.8-12.4-11.4c0-6.2 5.2-11.4 12.4-11.4h150c12.4 0 22.7-9 22.7-20.9c0-11.4-10.3-20.9-22.7-20.9H412.9c-7.2 0-12.4-4.8-12.4-11.4c0-6.2 5.2-11.4 12.4-11.4h18.6c25.8 0 47.5 20 47.5 43.8c0 24.3-21.7 43.8-47.5 43.8h-150zm50.9 68.5c25.8 0 47.5 20 47.5 43.8c0 24.3-21.7 43.8-47.5 43.8H313.8c-7.2 0-12.4-4.8-12.4-11.4c0-6.2 5.2-11.4 12.4-11.4h18.6c12.4 0 22.7-9 22.7-20.9c0-11.4-10.3-20.9-22.7-20.9H281.5c-7.2 0-12.4-4.8-12.4-11.4c0-6.2 5.2-11.4 12.4-11.4h50.9zm132.1-45.7c25.8 0 47.5 20 47.5 43.8c0 24.3-21.7 43.8-47.5 43.8H445.9c-7.2 0-12.4-4.8-12.4-11.4c0-6.2 5.2-11.4 12.4-11.4h18.6c12.4 0 22.7-9 22.7-20.9c0-11.4-10.3-20.9-22.7-20.9H281.5c-7.2 0-12.4-4.8-12.4-11.4c0-6.2 5.2-11.4 12.4-11.4H464.5zM95.8 366c5.8-4.8 13.4-4.8 18.6 0c12.8 9.6 30.2 17.7 46.5 17.7c16.8 0 34.3-8 47-17.7c5.2-4.8 12.8-4.8 18 0c12.8 9.6 30.2 17.7 46.5 17.7c16.8 0 34.3-8 47-17.7c5.2-4.8 12.8-4.8 18 0c9.9 8 23.2 13.9 36 16.6c7.5 1.6 12.2 8.6 10.5 15.5s-9.3 11.2-16.8 9.6c-16.3-3.2-30.2-10.7-38.9-16.1c-16.3 10.2-35.4 17.7-55.7 17.7c-19.7 0-38.9-7.5-55.7-17.7c-16.3 10.2-35.4 17.7-55.7 17.7c-19.7 0-38.9-7.5-55.7-17.7c-8.1 5.4-22.1 12.8-38.3 16.1c-7.5 1.6-15.1-2.7-16.8-9.6s2.9-13.9 10.5-15.5c13.4-2.7 25.5-9.1 35.4-16.6zm65 77.6c16.8 0 34.3-8 47-17.7c5.2-4.8 12.8-4.8 18 0c12.8 9.6 30.2 17.7 46.5 17.7c16.8 0 34.3-8 47-17.7c5.2-4.8 12.8-4.8 18 0c9.9 8 23.2 13.9 36 16.6c7.5 1.6 12.2 8.6 10.5 15.5s-9.3 11.2-16.8 9.6c-16.3-3.2-30.2-10.7-38.9-16.1c-16.3 10.2-35.4 17.7-55.7 17.7c-19.7 0-38.9-7.5-55.7-17.7c-16.3 10.2-35.4 17.7-55.7 17.7c-19.7 0-38.9-7.5-55.7-17.7C96.9 457 83 464.5 66.8 467.7c-7.5 1.6-15.1-2.7-16.8-9.6s2.9-13.9 10.5-15.5c13.4-2.7 25.5-9.1 35.4-16.6c5.8-4.8 13.4-4.8 18.6 0c12.8 9.6 30.2 17.7 46.5 17.7z"/>
</symbol>
<symbol id="icon-replacement-contents-light" viewBox="0 0 512 512">
<path d="M252.9 301.7V320h143.7v-18.3c0-14.7 10.3-27 24-29.9V259c0-26.9-21.5-48.8-47.9-48.8h-96.2c-26.5 0-47.9 21.8-47.9 48.8l.3 12.8c13.7 2.9 24 15.2 24 29.9zm156.7 .6v31.4H238.5v-31.4c0-10.4-8.6-18.9-19.2-18.9s-19.2 8.4-19.2 18.9v75.4c0 3.5 2.9 6.3 6.4 6.3h25.6c3.5 0 6-2.8 6-6.3l.4-6.3H409.6v6.3c0 3.5 2.9 6.3 6.4 6.3h25.6c3.5 0 6.4-2.8 6.4-6.3v-75.4c0-10.4-8.6-18.9-19.2-18.9s-19.2 8.4-19.2 18.9z"/>
</symbol>
<symbol id="icon-caravan-light" viewBox="0 0 512 512">
<path d="M157.4 385.9c-14.8 0-26.7-12-26.7-26.8s11.9-26.7 26.7-26.7c14.8 0 26.7 12 26.7 26.7s-12 26.8-26.7 26.8zm0-76.7c-27.6 0-49.9 22.4-49.9 49.9c0 27.6 22.4 49.9 49.9 49.9s49.9-22.3 49.9-49.9c0-27.5-22.3-49.9-49.9-49.9z"/>
</symbol>
<symbol id="icon-landlord-dark" viewBox="0 0 512 512">
<path d="M291.6 132.4c0 60.7 49.4 110.1 110.1 110.1c18.4 0 35.8-4.6 51.1-12.6l41.6 41.6-27.7 27.7-16.1-16.1V454.5H238.2V318.2H133.8v136.4h-74V283.1l-16.1 16.1-27.7-27.7L255 32.4v-.3l.1 .1 .1-.1v.3l49 49c-8 15.3-12.6 32.6-12.6 51zm93 185.9h-80v80.1h80v-80.1z"/>
</symbol>
<symbol id="icon-renters-dark" viewBox="0 0 512 512">
<path d="M291.6 132.3c0 60.7 49.4 110.1 110.1 110.1c18.4 0 35.8-4.6 51-12.6l41.6 41.6-27.7 27.7-16.1-16.1v171.4H238.2V318H133.8v136.4h-74V282.9l-16.1 16.1-27.7-27.7L255 32.3V32l.1 .1 .1-.1v.3l49 49c-8 15.3-12.6 32.6-12.6 51zm93 185.9h-80v80.1h80v-80.1z"/>
</symbol>
<symbol id="icon-circle-plus-dark" viewBox="0 0 512 512">
<path d="M250.7 407.6c-86.5 0-156.9-70.4-156.9-156.9s70.4-156.9 156.9-156.9c86.5 0 156.9 70.4 156.9 156.9s-70.4 156.9-156.9 156.9zm0-343.6C147.7 64 64 147.7 64 250.7s83.7 186.7 186.7 186.7c102.9 0 186.7-83.7 186.7-186.7C437.3 147.7 353.6 64 250.7 64z"/>
</symbol>
<symbol id="icon-broken-glass" viewBox="0 0 512 512">
<path d="M44 337.8l216.1 0c-.4 4.1-.5 8.2-.5 12.3c0 4.2 .2 8.4 .5 12.5L38 362.7c-12.4 0-21.7-11.2-19.5-23.4L48.7 170.1c5.1-28.5 29.9-49.2 58.8-49.2H317.6c28.8 0 53.4 20.5 58.7 48.7l7.8 41.4c-8.2 .9-16.4 2.6-24.4 5l-7.8-41.8c-3.1-16.5-17.5-28.4-34.3-28.4l-140 0 22.8 31.9c2 2.7 2.7 6.2 2.1 9.5s-2.5 6.2-5.3 8.1l-49.8 33.2 57.8 46.3c5.4 4.3 6.2 12.1 1.9 17.5s-12.1 6.2-17.5 1.9l-71.1-56.9c-3.1-2.5-4.8-6.3-4.7-10.3s2.2-7.6 5.5-9.8l53.3-35.5L147 145.8l-39.5 0c-16.9 0-31.3 12.1-34.3 28.7L44 337.8zm368.5 0h37.3c6.2 0 12.4 6.2 12.4 12.4c0 7-6.2 12.4-12.4 12.4H412.4V400c0 7-6.2 12.4-12.4 12.4c-7 0-12.4-5.4-12.4-12.4V362.7H350.2c-7 0-12.4-5.4-12.4-12.4c0-6.2 5.4-12.4 12.4-12.4h37.3V300.4c0-6.2 5.4-12.4 12.4-12.4c6.2 0 12.4 6.2 12.4 12.4v37.3zM288 350.2c0-39.7 21-76.2 56-96.4c34.2-20.2 77-20.2 112 0c34.2 20.2 56 56.8 56 96.4c0 40.4-21.8 77-56 97.2c-35 20.2-77.8 20.2-112 0c-35-20.2-56-56.8-56-97.2zm199.1 0c0-31.1-17.1-59.1-43.6-74.7c-27.2-16.3-60.7-16.3-87.1 0c-27.2 15.6-43.6 43.6-43.6 74.7c0 31.9 16.3 59.9 43.6 75.4c26.4 16.3 59.9 16.3 87.1 0c26.4-15.6 43.6-43.6 43.6-75.4z"/>
</symbol>
<symbol id="icon-motorhome-dark" viewBox="0 0 512 512">
<path d="M403.9 131.1c16 0 29 13 29 29v11.6c0 16-13 29-29 29h-94.3v117.1H321V232c0-9.8 8-17.8 17.8-17.8l37.4-.1c7.4 0 12 2.5 16.8 8.9l37.2 52.9 53.4 .1c9.2 0 16.6 7.4 16.6 16.6v25.3h6.5c3 0 5.4 2.4 5.4 5.4v14.1c0 3-2.4 5.3-5.4 5.3h-25.9c-3.3-19.8-20.5-34.9-41.3-34.9s-38 15.1-41.3 34.9H197c-3.3-19.8-20.5-34.9-41.3-34.9c-20.7 0-38 15.1-41.3 34.9H5.3A5.3 5.3 0 0 1 0 337.4V323.3c0-3 2.4-5.4 5.3-5.4l27.5 0 0-168.7 0-.2c-.1-1.8 .3-13.8 17.9-13.8h167.2v17.6l41.1 0c8.9 0 16.8-4 22.1-10.2c5.3-6.9 13.7-11.4 23-11.4l99.6-.1h.1zm-128.1 49.7H221c-1.8 0-3.3 1.6-3.3 3.6v129.4c0 2 1.5 3.6 3.3 3.6h54.9c1.8 0 3.3-1.6 3.3-3.6V184.4c0-2-1.5-3.6-3.3-3.6zm99.4 45.8H352.1a9.9 9.9 0 0 0 -9.9 9.9v29.2a9.9 9.9 0 0 0 9.9 9.9l57.3 0c3 0 3.7-2.4 1.6-5.4l-27.9-40c-1.8-2.3-4.7-3.8-7.8-3.8zM266 245.8c2.9 0 5.2 2.3 5.2 5.2s-2.3 5.2-5.2 5.2a5.2 5.2 0 0 1 -5.2-5.2c0-2.9 2.3-5.2 5.2-5.2zm-66.2-64.1l-15.4 16H72.9V221a3.8 3.8 0 0 0 3.8 3.8h120.6c2.1 0 3.8-1.7 3.8-3.8v-36.4c0-1.1-.5-2.2-1.3-2.9z"/>
</symbol>
<symbol id="icon-business-dark" viewBox="0 0 512 512">
<path d="M330.7 90.4c0-6.2-1.3-8.7-7.5-8.7H188.8c-6.2 0-7.5 2.5-7.5 8.7v28.6h149.4V90.4zM480.1 224.5v202c0 18.6-15.1 28.6-33.6 28.6H65.5c-18.6 0-33.6-10.1-33.6-28.6v-202c36.2 32.8 87.1 57.3 161.8 67.4V316c0 6.1 .3 14.7 6 14.7h112.6c6.1 0 6-9.9 6-15.9V291.9c74.7-10.1 125.6-34.5 161.8-67.4zM345.6 56.8c12.4 0 22.4 10 22.4 22.4l0 39.8 78.4 0c17.9 0 32.5 18.6 33.6 36.6l.1 2v44.4c-32 35.5-87.1 62.4-161.8 73.2V258.2c0-6.1 .1-14.7-6-14.7H199.7c-5.2 0-5.9 6.5-6 12.1l0 19.6C119.1 264.5 64 237.6 31.9 202.1v-44.4c0-18.6 15.1-38.6 33.6-38.6l78.4 0 0-39.8c0-12.4 10-22.4 22.4-22.4h179.3z"/>
</symbol>
<symbol id="icon-circle-plus-light" viewBox="0 0 512 512">
<path d="M180.2 269.5l53.5 0 0 53.6 34 0v-53.6h53.2l0-37.4h-53.2V178.8l-34 0 0 53.3H180.2v37.4z"/>
</symbol>
<symbol id="icon-landlord-light" viewBox="0 0 512 512">
<path d="M439 169.2c-3.2 4.9-7.9 8.8-14 11.6c-3.1 1.4-6.5 2.5-10.1 3.1v9.8c0 6.1-5 11.1-11.1 11.1c-6.1 0-11.1-5-11.1-11.1v-9.6c-5.5-.9-10.4-2.4-14.5-4.8c-4.6-2.7-8.4-6.4-11.3-11c-2.9-4.6-4.4-9-4.4-13.4c0-2.5 .9-4.7 2.6-6.5c1.8-1.8 4-2.7 6.7-2.7c2.2 0 4 .7 5.5 2.1c1.5 1.4 2.8 3.5 3.9 6.2c1.3 3.3 2.7 6 4.2 8.2c1.5 2.2 3.6 4 6.4 5.4c2.8 1.4 6.4 2.1 10.8 2.1c6.2 0 11.1-1.4 15-4.3c3.8-2.9 5.8-6.4 5.8-10.7c0-3.4-1-6.1-3.1-8.3c-2.1-2.1-4.7-3.7-8-4.9c-3.3-1.1-7.7-2.3-13.1-3.5c-7.4-1.7-13.5-3.7-18.5-6.1c-5-2.3-8.9-5.4-11.8-9.4c-2.9-4-4.4-8.9-4.4-14.8c0-5.6 1.5-10.6 4.6-15c3.1-4.4 7.5-7.7 13.3-10.1c3.1-1.3 6.6-2.1 10.3-2.7v-9.9c0-6.1 5-11.1 11.1-11.1a11.1 11.1 0 0 1 11.1 11.1V80.5c1.5 .3 3 .6 4.3 1c4.6 1.6 8.4 3.6 11.4 6.2c3 2.6 5.2 5.3 6.6 8.2c1.4 2.8 2.1 5.6 2.1 8.3c0 2.5-.9 4.7-2.6 6.7c-1.8 2-3.9 3-6.5 3c-2.4 0-4.2-.6-5.4-1.8c-1.2-1.2-2.6-3.1-4-5.8c-1.9-3.9-4.1-6.9-6.7-9c-2.6-2.2-6.8-3.2-12.6-3.2c-5.4 0-9.7 1.2-13 3.5c-3.3 2.4-4.9 5.2-4.9 8.5c0 2.1 .6 3.8 1.7 5.3c1.1 1.5 2.7 2.8 4.6 3.8a31.7 31.7 0 0 0 5.9 2.5c2 .6 5.3 1.5 9.9 2.7c5.8 1.3 11 2.9 15.7 4.5c4.7 1.6 8.6 3.6 11.9 5.9c3.3 2.3 5.8 5.3 7.7 8.8c1.9 3.6 2.8 7.9 2.8 13.1c0 6.2-1.6 11.8-4.8 16.7zM401.7 38.1c-52.1 0-94.3 42.2-94.3 94.3s42.3 94.3 94.3 94.3c52.1 0 94.4-42.2 94.4-94.3s-42.2-94.3-94.4-94.3z"/>
</symbol>
<symbol id="icon-start-windscreen-claim-dark" viewBox="0 0 512 512">
<path d="M427.5 198.4s.2 0 .3 0l-8.6-46.6C413.3 120 385.4 97 353.1 97H182.4l27.8 39c2.2 3 3 6.9 2.4 10.7c-.6 3.7-2.9 7-6.1 9.1l-56 37.4c13.1 10.4 67.4 71.7 67.4 71.7s-85.5-50.4-99.7-61.8c-3.5-2.7-5.4-7-5.3-11.5s2.6-8.6 6.2-11l60-40-31-43.5H116.8c-32.5 0-60.5 23.4-66.1 55.4L16.3 342.7c-2.4 13.8 8 26.4 21.9 26.4H328.8V275.2c0-18.1 9.8-34.7 25.6-43.7c7.5-4.2 15.8-6.4 24.5-6.4c9.1 0 18.2 2.6 26.1 7.4L437 252l-9.6-53.4 .2-.2z"/>
</symbol>
<symbol id="icon-pet-light" viewBox="0 0 512 512">
<path d="M428.8 191.6c28.6 0 51.1 29.7 51.1 67.7c0 37.9-22.5 67.7-51.1 67.7c-28.7 0-51.1-29.7-51.1-67.7c0-38 22.4-67.7 51.1-67.7zm-345.6 0c28.6 0 51.1 29.7 51.1 67.7c0 37.9-22.5 67.7-51.1 67.7c-28.7 0-51.1-29.7-51.1-67.7c0-38 22.4-67.7 51.1-67.7zM184.3 62.1c35.8 0 64.9 39.1 64.9 87.1s-29.1 87.1-64.9 87.1s-64.9-39.1-64.9-87.1s29.1-87.1 64.9-87.1zm137.9 0c35.7 0 64.9 39.1 64.9 87.1s-29.1 87.1-64.9 87.1c-35.8 0-64.9-39.1-64.9-87.1s29.1-87.1 64.9-87.1z"/>
</symbol>
<symbol id="icon-motorcycle" viewBox="0 0 512 512">
<path d="M482.5 246.7h13.3c-6.2-9.6-10.3-14.6-19.5-22.7c-9.9-8.8-22.1-15.8-37.4-20c-16-4.4-33.1-5.2-52.6 0l-4.2-8.4c8.5-4.8 11.6-15.1 9.9-25c-1.2-8.9-8.5-20.7-19.4-24.8c-5.1-1.9-10.3-2.3-15.8 0c-10.4-20.7-15.8-31.6-16.4-31.8c-3.4-5.1-7.7-8.2-12.9-7.2c-4 .5-13.7 3.8-44.6 15h-14.5c-7.5 .5-13.4 6.5-13.4 14.6c.4 7.6 5.9 13.2 13.4 13.9h20.1l21.4-8.7 23.6 46.6c-5.9-6-10.4-9-18.1-11.3c-6.5-1.8-12-1.7-20.7 0c-1.9-2.3-4.5-3.9-8.3-4.3h-6.4c-7.9 .8-11.7 7.9-10.7 13.2c-13.5 6.2-22 10.9-36.2 19.5c-1-5.9-5-9.6-11.6-10.1L108.7 187c-8 .4-12.4 6.2-12.4 11.5v5.8H37.7v37.5c9.3-5.6 16.1-9.2 28.9-12.6c11.3-2.5 18.7-3.4 32.6-2.5c18.9 1.8 35 9.1 46.4 17.2c14.4 10.7 22.2 19.8 30.3 35.1l-17 4.5c-11.1-19.5-32-36.3-59.7-39.6c-21.1-2.1-38.5 3.1-54.3 13.4c-14.7 10.1-26.5 25.6-32 47c-2.8 10.9-3 24.9 0 37.2c6.9 27.9 26.1 47 49.9 56c18.1 6.3 36.1 6.4 54.5 0c18.9-6.9 33.1-20.5 41.3-34.8c5-8.6 8.3-17.8 9.7-27l-34.8 9.2c-6.9 13.4-20.2 24.1-37.4 26.3c-12.3 1.2-21.6-1.1-32-7.1c-9.9-6.6-16.3-14.7-20.4-26.3c-3-10.9-3.2-19.9 .2-30.5c3.5-9.7 8.7-17.9 20.2-25.7c11.6-7 23.2-8.8 35.2-6.7c11.7 2.3 22 8.9 28.5 17.1l-44.4 12c-10.8 3.8-16.3 16.4-11.7 26.7c4.3 9.5 13.8 13.3 22.5 11.6l94-25.2v45.5h110.5c7.3-.3 15.2-3.1 20.3-8.3c6-6.2 8-12.8 8.3-23.1c-1.7-15.1 1.8-32.4 6-43.2c6.8-17 17.5-30.9 30.1-40.8l41.7 82.4c5.5 12.8 19.6 16.6 30.3 9.4c8-5.8 10.8-16.3 6.2-25.5l-19.9-39.4c11.2 0 20.1 3.1 28.4 8.9c12.2 8.6 19.5 22.1 20.4 37c1 15.2-5.8 32.4-20.6 42.6c-12.8 9.4-30.2 11-44.3 6.2c-13.7-5.4-21.9-13.2-28.2-26c-4.6-9.3-6.7-24.4 0-39.9L362 271c-9 9.5-18.3 26.8-19.4 48.9c-1.2 24.8 9.2 49 31.9 66.6c32.8 23.5 69.7 18.5 94.9 0c24.2-19 39.1-51.6 28.2-87.8c-13.4-39.3-49.6-61-90.6-53.8l-7.7-15.4c28.4-7.5 59-1.6 83.3 17.2z"/>
</symbol>
<symbol id="icon-renters-light" viewBox="0 0 512 512">
<path d="M468.4 65.6c36.8 36.8 36.9 96.6 0 133.4c-36.8 36.8-96.6 36.8-133.4 0s-36.8-96.6 0-133.4c36.9-36.9 96.6-36.8 133.4 0zm-21 7.3a36.9 36.9 0 0 0 -40.9 2.9 36.9 36.9 0 0 0 -13.5 36.6l.5 2.3-44.7 44.7 .3 25.6 26.1-.3v-17.2h17.2v-17.2h17.2l9.7-9.7a33.9 33.9 0 0 0 17 .6l2.4-.6 .9-.3a36.9 36.9 0 0 0 7.7-67.3zm-16.7 15.3c4.2-4.2 10.9-4.2 15.1 0s4.2 10.9 0 15.1a10.4 10.4 0 0 1 -15.1 0c-4.2-4.2-4.2-10.9 0-15.1z"/>
</symbol>
<symbol id="icon-circle-right-arrow-dark" viewBox="0 0 512 512">
<path d="M261.3 407.6c-86.5 0-156.9-70.4-156.9-156.9s70.4-156.9 156.9-156.9c86.5 0 156.9 70.4 156.9 156.9s-70.4 156.9-156.9 156.9zm0-343.6C158.4 64 74.7 147.7 74.7 250.7s83.7 186.7 186.7 186.7s186.7-83.7 186.7-186.7S364.3 64 261.3 64z"/>
</symbol>
<symbol id="icon-circle-right-arrow-light" viewBox="0 0 512 512">
<path d="M222 301.7l47.3-51-47.3-51 22.4-24.1 69.6 75-.1 .1 .1 .1-1.9 2.1-67.7 72.9-22.4-24.1z"/>
</symbol>
<symbol id="icon-motorhome-light" viewBox="0 0 512 512">
<path d="M5.2 248.8A5.2 5.2 0 0 0 0 254v51.6a5.2 5.2 0 0 0 5.2 5.2H16.4a5.2 5.2 0 0 0 5.2-5.2V254a5.2 5.2 0 0 0 -5.2-5.2H5.2zm181.8 100.9c0 17.2-14 31.2-31.3 31.2s-31.3-14-31.3-31.2s14-31.2 31.3-31.2s31.3 14 31.3 31.2zm-46.5 0c0 8.4 6.8 15.2 15.3 15.2s15.3-6.8 15.3-15.2s-6.8-15.2-15.3-15.2s-15.3 6.8-15.3 15.2zm330.3 0c0 17.2-14 31.2-31.3 31.2s-31.3-14-31.3-31.2s14-31.2 31.3-31.2s31.3 14 31.3 31.2zm-46.5 0c0 8.4 6.8 15.2 15.3 15.2s15.3-6.8 15.3-15.2s-6.8-15.2-15.3-15.2s-15.3 6.8-15.3 15.2z"/>
</symbol>
<symbol id="icon-caravan-dark" viewBox="0 0 512 512">
<path d="M306.9 339.9c-2.5 0-4.5-2.2-4.5-4.9V160.9c0-2.7 2-4.8 4.5-4.8h73.8c2.5 0 4.5 2.2 4.5 4.9v174.2c0 2.7-2 4.9-4.5 4.9h-73.8zm-26.8-129.8c0 2.8-2.3 5.1-5.1 5.1H112.6c-2.8 0-5.1-2.3-5.1-5.1v-31.3h150.1l20.7-21.6c1.1 .9 1.8 2.3 1.8 3.8v49zM507.8 321H492.6c-2.3 0-4.2 1.4-4.2 3v9.6c0 1.7 1.9 3 4.2 3h3.1v12c0 5.9-4.8 10.8-10.8 10.8h-55.9c13.3-9.2 22.1-24.6 22.1-42l.9-114.2v-9.5c0-16.1 12.9-29.1 28.9-29.4v0a2.3 2.3 0 0 0 2.3-2.3c0-.2-.1-.4-.1-.6h.1c-8.9-33.4-45.1-58.5-81.9-58.5H144.1c-73.3 0-86.6 18.5-123.9 114.8c-35.8 92.4-31.5 144.8 75.5 150.2a62.5 62.5 0 0 1 -.6-8.9c0-34.5 27.9-62.4 62.4-62.4s62.4 27.9 62.4 62.4a65.1 65.1 0 0 1 -.7 9.3h265.8c10.9 0 19.8-8.9 19.8-19.8v-12h3.1c2.3 0 4.2-1.4 4.2-3V324c0-1.7-1.9-3-4.2-3z"/>
</symbol>
<symbol id="icon-home-contents-dark" viewBox="0 0 512 512">
<path d="M244.7 45.3v24.5l49 47.8V45.3h-49zm59.5 151.3L168.1 64.1 32.7 195.9v100.9h51.4v-92.3h72.5v92.3h44.6c5.6-11.2 20.8-18.9 44.2-18.9h58.5l.3-81.2zm-101.5 8h55.7v54.2h-55.7v-54.2zm49.4 94.7h117.4c12.6 .2 18.8 2 22.7 4.6c4.2 2.9 5.7 6.1 5.7 11.9v28.7c-14.2 0-25.9 4.5-36.1 12.7c-9.1 7.4-15.4 19-15.4 24.1v12.4h-94.4V382.9c0-24-15.5-37.1-34.4-38.3v-27.4c0-6 1.5-9.5 5.3-12.7c6.2-4.4 13.4-5.4 29-5.1zm-60.1 79c0-8.6 3.1-15.3 9.6-19.2c6.9-4 18.6-3.7 24.7 .7c5.6 3.8 8.6 10.6 8.6 18.9V411h128.4l-.3-25.2c.6-16.2 8.1-28.4 24.7-29.3c15.8-.9 27.3 8.6 27.4 28.2v112.2H192V378.4z"/>
</symbol>
<symbol id="icon-person-dark" viewBox="0 0 512 512">
<path d="M423 358.8c-16.3-4.8-40.9-15.2-54.9-23.6c-11.6-7-30.6 2.8-34.7 10.8l-69 115.8c-3.1 5.7-6.8 10.2-8.4 10.2s-5.4-4.6-8.4-10.2l-69-115.8c-9.6-12.2-23.3-17.7-35.7-10.2c-13.4 8.1-37.6 17.8-53.9 22.4C37.6 372.7 0 391.3 0 443.6V479c0 17 13.8 30.8 30.7 30.8H481.3c17 0 30.7-13.8 30.7-30.8v-35.3c0-52.5-36.8-69.5-89-84.9zM150.5 200.4c.1 0 .3-.1 .4-.1c15.2 65.6 39.1 112.9 105.1 112.9c65.5 0 87.2-50.1 103.8-114.1c1.3 .7 2.7 1.2 4.1 1.3c11.8 1.4 23.5-14.6 26.1-35.8c2.6-21.1-4.8-39.3-16.4-41C374.2 59.6 335.8 2.3 256 2.3c-80.5 0-115.7 57-116.2 121.6c-11 2.7-17.8 20.3-15.3 40.7c2.6 21.2 14.3 37.3 26.1 35.8z"/>
</symbol>
<symbol id="icon-replacement-cover-dark" viewBox="0 0 512 512">
<path d="M347.4 186v-21.4c0-10.1 8.2-18.3 18.3-18.3H384c10.1 0 18.3 8.2 18.3 18.3V234l30.3 26.5c7.6 6.7 8.3 18.2 1.7 25.8c-6.7 7.6-18.2 8.3-25.8 1.7L274.3 170.6 140 288.1c-7.6 6.6-19.2 5.9-25.8-1.7s-5.9-19.1 1.7-25.8l146.3-128c6.4-6 17.2-6 24.1 0L347.4 186zm-126.9-45.4l-6-6.9a6.8 6.8 0 0 0 -4.7-2.3 6.8 6.8 0 0 0 -5 1.7l-1.7 1.5-5.3-6.1c1.8-6.6 .2-13.7-4.3-18.8l-12-13.8c-8.1-9.6-20.1-15.5-32.6-16.3c-12.8-.9-25.1 3.2-34.8 11.6l-2.4 2.1 26.3 15.6-.3 3.9c-.4 5.4 1.4 10.8 5 14.9l13 15c3.6 4.1 8.5 6.6 14 6.9c1.4 .1 2.7 .1 4.1-.1l5.3 6.1-1.7 1.5a6.9 6.9 0 0 0 -.7 9.7l6 6.9a6.8 6.8 0 0 0 4.7 2.3 6.8 6.8 0 0 0 5-1.7l27.5-23.9c2.8-2.5 3.1-6.8 .4-9.7z"/>
</symbol>
<symbol id="icon-life-light" viewBox="0 0 512 512">
<path d="M411.8 220.7c16.4 0 30 13.4 30 30l0 4.9c.1 21.4 .4 70.7 .6 88.1l-.1 1.4c-.7 6.4-5.9 11.4-12.5 11.4l-1.4-.1c-6.4-.7-11.4-5.9-11.4-12.5l-.4-93.5c-.2-1.3-1.3-2.6-2.8-2.6c-1.3 .2-2.6 1.3-2.6 2.8l0 12.2c0 .7 0 1.5 0 2.3l0 7.6c0 .9 0 1.8 0 2.8l0 5.9 0 9.6 0 6.9c0 15.4 0 33.4 .1 52.7l0 9c0 7.6 0 15.4 0 23.2l0 9.5c0 4.8 0 9.6 0 14.4l0 14.5c0 1.6 0 3.2 0 4.8l0 19.3v19c0 8.5-6.8 15.3-15.3 15.3a15.3 15.3 0 0 1 -15.3-15.3v-122h-6.6v122a15.3 15.3 0 0 1 -15.3 15.3 15.3 15.3 0 0 1 -15.3-15.3V251.3c0-1.5-1.1-2.6-2.3-2.6c-1.5 0-2.6 1.1-2.6 2.3c0 .2 0 .4 0 .7l0 2.1c0 9.5-.2 37.2-.2 37.2c0 7.9-7.5 14.1-15.3 12.3c-2.7-.5-5.5-1.1-8.4-1.7l-4.4-.9c-14.8-3-30-6.2-30.2-6.4h1.5c9.8 0 17.7-7.9 17.7-17.7c0-1.3 0-2.8-.4-4v-.2l14.3 3c.1-12 .2-17 .2-19.6l0-1 0-.4 0-1 0-.3 0-2.7c0-16.6 13.4-30 30-30h68.3zm-34.1-77.1c18.3 0 33.2 14.9 33.2 33.2S396 210 377.7 210s-33.2-14.9-33.2-33.2s14.9-33.2 33.2-33.2z"/>
</symbol>
<symbol id="icon-trailer-dark" viewBox="0 0 512 512">
<path d="M120.5 338.8c0 5.1 .4 10.2 1.3 15.1L0 353.9v-30.1l121.7 0a90.9 90.9 0 0 0 -1.3 15.1zm346.4 15.1H361.4v-.1l-61.5 0a91 91 0 0 0 1.3-15.1c0-5.1-.4-10.2-1.2-15.1l106.7 0v15.1l60.2 0v.8l2.2 0c8.8 0 16.1-6.7 17-15.3l.1-1.9v-19.1h-4.9c-3.3 0-6-1.7-6.5-3.9l-.1-.9v-15.2c0-2.4 2.3-4.3 5.4-4.7l1.2-.1h24.1c3.3 0 6 1.7 6.5 3.9l.1 .9v15.2c0 2.4-2.4 4.3-5.5 4.7l-1.2 .1h-4.9v19.1c0 16.6-13 30.3-29.3 31.3l-2.1 .1-2.2 0v0zM391.5 128c8.3 0 15.1 6.7 15.1 15.1v165.6l-110.6 0c-12.4-35.1-45.9-60.2-85.2-60.2s-72.8 25.1-85.2 60.2L0 308.7V143.1C0 134.7 6.7 128 15.1 128h376.5z"/>
</symbol>
<symbol id="icon-new-zealand-alt" viewBox="0 0 456 512">
<path d="M174.8 10.9c-5.1 1.4-9.4 4.6-11.2 8c-2 3.9-2 10.7-.1 14.8c.8 1.7 7.6 12.3 15.3 23.5c21 31 47 70 47.2 70.9c.1 .4-4.6 3.6-10.5 7.1c-5.9 3.5-11.9 7.1-13.3 8.1c-14.4 10-19.9 18.1-18.1 26.5c1.7 7.5 7.5 12.2 21.4 17.4c16.7 6.3 20.6 9.3 25.6 20c3.4 7.3 5 13.4 8.7 33c4.1 22 6.7 28.3 13.6 32.3c6.3 3.7 13.4 2.1 20.9-4.6c13.3-12 40.1-53.4 60.7-93.9c9.1-18 12.4-25.8 14.4-35.2c2.7-12.4 1.7-18.9-4-24.3c-5.4-5.1-13.9-6.7-39.3-7.6c-12.9-.4-18.7-.9-20.9-1.8c-16-6-27-17.1-51.5-52.1c-19.8-28.3-25.9-35-36.8-40.6c-3.6-1.8-5.2-2.2-11.4-2.4c-4.4-.1-8.6 .2-10.8 .8m14.9 18.9c5.2 2.7 14.6 14 28.5 33.9c23.7 34.3 37.8 48.8 54.3 56.6c8.7 4.1 13.2 4.8 34 5.6s24.6 1.2 25.2 2.9c.6 1.5-1.8 11.3-4.1 17c-7.1 17.5-29.3 57.4-45.2 81.4c-8.7 13-18.9 26.2-20.3 26.2c-.6 0-2.1-6.5-4.8-21.6c-3.6-19.9-7.1-30.6-13.2-40c-6.8-10.3-13.5-15.2-30-21.4c-4.9-1.9-9.1-3.6-9.3-3.8c-1.7-1.8 15.3-12.8 37-24.1c6.1-3.1 8.7-6.5 8.1-10.7c-.3-2.2-8.4-14.8-33.8-52.8c-18.4-27.5-33.2-50.2-32.9-50.5c.6-.6 4.5 .2 6.6 1.3m-7.8 189.7c-2.7 1.5-3.7 3.4-6.2 12.3c-11.1 38.4-35.9 72.9-78.3 108.8c-5.3 4.5-18.1 14.7-28.4 22.8c-28.6 22.2-33.8 27-37.9 35c-3.7 7.3-1.6 17.6 5 25.2C46.5 435.4 70.5 444 95.8 445c12.2 .5 16-.3 22.2-4.6c12.1-8.3 25.9-29.8 39.2-61.4c2.3-5.6 4.5-10.4 4.8-10.7s2-.2 3.8 .2c4.5 1.2 14.9 1.2 19-.1c2.1-.6 4.8-2.4 6.9-4.5c4.8-4.7 6.3-9.8 5.7-19.4l-.4-7 20-32.1c17.5-28.1 20-32.5 20-35.2c0-1.7-.6-4-1.4-5.1c-1.9-2.8-40.7-43-43.6-45.2c-2.6-1.9-7.4-2.3-10.2-.7M215.4 272c-.1 .5-8.6 14.5-18.9 31.1c-20.8 33.2-19.7 30.8-18 41.1c1 6.4 .3 7.4-4.7 6.7c-2-.3-6.7-1.4-10.3-2.5c-10.4-3.2-14.1-1.6-17.3 7.5c-8.5 23.8-23 52-32.4 63.1c-6.2 7.3-8.1 8.2-16.2 7.6c-24.1-1.7-46.3-10.1-49.2-18.7c-.8-2.4-.7-2.5 3.5-6.5c2.4-2.2 10.1-8.6 17.2-14.1c40.9-31.9 51.6-41.1 68.3-58.2c16.5-17 28.4-32.6 39.1-51.1c4.9-8.6 10.8-21.3 13.2-28.3l1.3-4.1 12.3 12.7c6.7 7 12.2 13.2 12.1 13.7M39.6 447.8c-6.3 3.8-9.6 11.9-10.2 25c-.4 9.5 .6 15.3 3.5 20.7c3 5.6 6.8 8.2 12.1 8.6c5.3 .4 9.2-1.3 13-5.6c7.9-9 10.9-28.2 5.9-37.9c-2.2-4.3-7.8-9.8-11.6-11.4c-4-1.7-9.3-1.4-12.8 .7"/>
</symbol>
<symbol id="icon-retaining-wall" viewBox="0 0 512 512">
<path d="M89.9 106.7c-14.3 0-25.9 11.6-25.9 25.9l0 268.8c0 12.8 9.9 22.7 22.7 22.7l45.3 0c12 0 22.7-9.9 22.7-22.7l0-45.3 45.3 0 0 45.3c0 12.8 9.9 22.7 22.7 22.7l45.3 0c12 0 22.7-9.9 22.7-22.7l0-45.3 45.3 0 0 45.3c0 12.8 9.9 22.7 22.7 22.7l45.3 0c12 0 22.7-9.9 22.7-22.7l0-268.8c0-14.3-11.6-25.9-25.9-25.9l-310.9 0zM404 132.6l0 268.8-45.3 0 0-268.8 45.3 0zm-68 0l0 64.8-45.3 0 0-64.8 45.3 0zm-68 0l0 268.8-45.3 0 0-268.8 45.3 0zm-68 0l0 64.8-45.3 0 0-64.8 45.3 0zm-68 0l0 268.8-45.3 0 0-268.8 45.3 0zM290.7 333.3l0-113.3 45.3 0 0 113.3-45.3 0zM154.7 220l45.3 0 0 113.3-45.3 0 0-113.3z"/>
</symbol>
<symbol id="icon-classic-vehicle-light" viewBox="0 0 512 512">
<path d="M307 247.8c0-27.4-22.2-49.5-49.5-49.5c-27.4 0-49.6 22.2-49.6 49.5c0 27.4 22.2 49.6 49.6 49.6c27.3 0 49.5-22.2 49.5-49.6z"/>
</symbol>
<symbol id="icon-classic-vehicle-dark" viewBox="0 0 512 512">
<path d="M256 0c141.4 0 256 114.6 256 256c0 141.4-114.6 256-256 256S0 397.4 0 256C0 114.6 114.6 0 256 0zm0 45.5C139.9 45.5 45.5 139.9 45.5 256c0 116 94.4 210.5 210.5 210.5c116 0 210.5-94.4 210.5-210.5c0-116.1-94.4-210.5-210.5-210.5zm1.5 117.5c103.3 .1 188.7 53.9 188.7 53.9s3.2 16.4 3.2 36.7c0 17-4 39.7-4 39.7c-42.7-4.5-83.4 1.6-117.6 30.7c-35.2 30-24 115.3-24 115.3s-22.8 9.2-46.4 9.2c-23.6 0-46.3-9.2-46.3-9.2s11.2-85.4-24-115.3c-34.2-29.1-74.9-35.2-117.6-30.7c0 0-6.9-15.2-6.9-38.6s6.1-37.8 6.1-37.8s.4-.2 1-.6l1.3-.8c14.3-8.5 93-52.5 186.3-52.5l0 0h.1zm0 16.1c-38.5 0-69.8 31.2-69.8 69.8c0 38.6 31.3 69.8 69.8 69.8c38.5 0 69.8-31.2 69.8-69.8c0-38.5-31.3-69.8-69.8-69.8z"/>
</symbol>
<symbol id="icon-pet-dark" viewBox="0 0 512 512">
<path d="M376.7 321c-1.3-1.8-2.6-3.5-3.3-5c-14.5-31.1-54.3-67.7-118.7-68.6l-2.4 0c-63.5 0-102.9 34.7-118.7 67.1c-.6 1.1-1.7 2.6-3 4.1c-1.5 1.8-3 3.6-4.3 5.6c-13.3 20.8-20.1 44.1-19.1 65.8c1 23 10.7 41.5 27.1 52c6.6 4.2 13.8 6.4 21.3 6.4c15.5 0 29.6-8.7 46-18.8c10.4-6.4 21.2-13 33.2-18c1.3-.4 6.8-1.1 15.8-1.1c10.7 0 18.4 1 20 1.5c11.7 5.2 22 11.9 31.9 18.4c15.2 10 29.5 19.5 45.1 19.5c6.7 0 13.2-1.8 19.3-5.2c33.7-19.2 40.1-71.7 14.3-117.2c-1.3-2.3-2.9-4.4-4.4-6.5z"/>
</symbol>
<symbol id="icon-home-contents-light" viewBox="0 0 512 512">
<path d="M0 175.5L168.2 11.7l168 163.8-19.5 19-11.3-11v-.8h-.8L168.2 49.8v-.2l-.1 .1-.1-.1v.2L31.6 182.6h-.9v.8l-11.3 11L0 175.5zm512 89.4h-51.3v214.7h17.2v17.2h-51.5v-17.2h25.8V264.9h-56.4l30.8-51.5h54.6L512 264.9z"/>
</symbol>
<symbol id="icon-travel-dark" viewBox="0 0 512 512">
<path d="M46.2 325.8c49.1-18 98.3-35.8 147.8-53.8c-.8-1-1.1-1.6-1.7-2.1c-15.6-16.6-31.4-32.8-46.8-49.5c-7.5-8.3-14-17.5-20.8-26.4c-1.9-2.5-1.4-3 1.4-3.8c15.1-4.3 30.2-8.6 45.3-13.1c3.1-1 5.8 .2 8.5 1.1a18458.1 18458.1 0 0 1 51.6 19.1c17.6 6.5 35.4 13.1 53 19.6c9.3 3.5 18.6 6.9 27.7 10.5c2.4 1 4.2 .8 6.6 0c16.5-6.2 33-12.3 49.7-18.3c18.4-6.5 36.8-13.2 55.3-19.4c11.5-3.8 23.1-7.3 35.1-10a86.5 86.5 0 0 1 36.2-.5c3.1 .6 6.1 1.8 9 3.2c7.1 3.5 9.3 10.2 5.2 16.9c-2.4 4-5.5 7.8-9.1 11c-11.9 10.8-25.8 19.3-40.2 26c-8.3 4-17.6 6.2-26.4 9.2c-12.6 4.3-25.3 8.6-37.9 12.9c-13.7 4.6-27.4 9.2-41 14c-19.3 6.5-38.5 13.1-57.9 19.6c-15.9 5.4-31.8 10.7-47.5 15.9c-16 5.4-32.1 11.5-48.3 16.3c-12.1 3.5-24.5 5.9-36.8 8.3c-14.1 2.7-28.6 3.2-42.9 3c-18.9-.2-37.9-1.4-56.4-4.8c-5.2-1-10.4-1.8-15.6-2.7c-.9-.2-1.7-.6-2.7-1c-.2-.6-.2-1-.2-1.1z"/>
</symbol>
</svg>
