<?xml version="1.0" encoding="UTF-8"?>
<svg xmlns="http://www.w3.org/2000/svg" style="display: none;">
<symbol id="mailbox" viewBox="0 0 576 512">
<path class="fa-secondary" style="fill:#0076c2;" d="M512 448H224c35.3 0 64-28.7 64-64V208c0-79.5-64.5-144-144-144H432c79.5 0 144 64.5 144 144V384c0 35.3-28.7 64-64 64zM400 192c-8.8 0-16 7.2-16 16s7.2 16 16 16h48v48c0 8.8 7.2 16 16 16h32c8.8 0 16-7.2 16-16V208c0-8.8-7.2-16-16-16H464 400z"/><path class="fa-primary" style="fill:#004a79;" d="M0 208C0 128.5 64.5 64 144 64s144 64.5 144 144V384c0 35.3-28.7 64-64 64H64c-35.3 0-64-28.7-64-64V208zm64 0c0 8.8 7.2 16 16 16H208c8.8 0 16-7.2 16-16s-7.2-16-16-16H80c-8.8 0-16 7.2-16 16zm336-16h64 32c8.8 0 16 7.2 16 16v64c0 8.8-7.2 16-16 16H464c-8.8 0-16-7.2-16-16V224H400c-8.8 0-16-7.2-16-16s7.2-16 16-16z"/>
</symbol>
<symbol id="house-chimney-crack" viewBox="0 0 576 512">
<path class="fa-secondary" style="fill:#0076c2;" d="M64.1 448L64 270.5l224-196L512.1 270.6l.4 177.3c.1 35.4-28.6 64.1-64 64.1H326.4L288 448l80.8-67.3c7.8-6.5 7.6-18.6-.4-24.9L250.6 263.2c-14.6-11.5-33.8 7-22.8 22L288 368l-85.5 71.2c-6.1 5-7.5 13.8-3.5 20.5L230.4 512H128.1c-35.3 0-64-28.6-64-64z"/><path class="fa-primary" style="fill:#004a79;" d="M309.1 7.9C297-2.6 279-2.6 266.9 7.9l-256 224c-13.3 11.6-14.6 31.9-3 45.2s31.9 14.6 45.2 3L288 74.5 522.9 280.1c13.3 11.6 33.5 10.3 45.2-3s10.3-33.5-3-45.2L512 185.5V64c0-17.7-14.3-32-32-32H448c-17.7 0-32 14.3-32 32v37.5L309.1 7.9z"/>
</symbol>
<symbol id="face-party" viewBox="0 0 640 512">
<path class="fa-secondary" style="fill:#0076c2;" d="M531.7 400C485.6 467.6 408 512 320 512C178.6 512 64 397.4 64 256S178.6 0 320 0C433.4 0 529.7 73.8 563.3 176H560c-44.2 0-80 35.8-80 80c0 18 6 34.6 16 48H416c-1 0-2 0-3 .1c-1.2-2.3-2.7-4.4-4.3-6.4c-4.3-5.2-10.1-9.7-16.7-13.4C378.7 276.9 361.4 272 344 272c-3.6 0-6.8 2.5-7.7 6s.6 7.2 3.8 9l0 0 0 0 0 0 .2 .1c.2 .1 .5 .3 .9 .5c.8 .5 2 1.2 3.4 2.1c2.8 1.9 6.5 4.5 10.2 7.6c3.7 3.1 7.2 6.6 9.6 10.1c2.5 3.5 3.5 6.4 3.5 8.6s-1 5-3.5 8.6c-2.5 3.5-5.9 6.9-9.6 10.1c-3.7 3.1-7.4 5.7-10.2 7.6c-1.4 .9-2.6 1.6-3.4 2.1c-.4 .2-.7 .4-.9 .5l-.2 .1 0 0 0 0 0 0 0 0 0 0c-2.5 1.4-4.1 4.1-4.1 7s1.6 5.6 4.1 7l0 0 0 0 0 0 .2 .1c.2 .1 .5 .3 .9 .5c.8 .5 2 1.2 3.4 2.1c2.8 1.9 6.5 4.5 10.2 7.6c3.7 3.1 7.2 6.6 9.6 10.1c2.5 3.5 3.5 6.4 3.5 8.6s-1 5-3.5 8.6c-2.5 3.5-5.9 6.9-9.6 10.1c-3.7 3.1-7.4 5.7-10.2 7.6c-1.4 .9-2.6 1.6-3.4 2.1c-.4 .2-.7 .4-.9 .5l-.2 .1 0 0 0 0 0 0 0 0c-3.2 1.8-4.7 5.5-3.8 9s4.1 6 7.7 6c17.4 0 34.7-4.9 47.9-12.3c6.6-3.7 12.5-8.2 16.7-13.4c1.6-2 3.1-4.1 4.3-6.4c1 .1 2 .1 3 .1H531.7zM275.2 233.6c5.3 7.1 15.3 8.5 22.4 3.2s8.5-15.3 3.2-22.4c-30.4-40.5-91.2-40.5-121.6 0c-5.3 7.1-3.9 17.1 3.2 22.4s17.1 3.9 22.4-3.2c17.6-23.5 52.8-23.5 70.4 0zm89.6 0c17.6-23.5 52.8-23.5 70.4 0c5.3 7.1 15.3 8.5 22.4 3.2s8.5-15.3 3.2-22.4c-30.4-40.5-91.2-40.5-121.6 0c-5.3 7.1-3.9 17.1 3.2 22.4s17.1 3.9 22.4-3.2z"/><path class="fa-primary" style="fill:#004a79;" d="M51.3 152.2l-20-52C46.6 71.8 66 46 88.8 23.4L132 37.8C96.5 68.5 68.5 107.7 51.3 152.2zM55.1 12.2C40.9 27.6 28 44.4 16.6 62.1L1.1 21.7C-1.2 16 .2 9.4 4.4 4.9S15.2-1.1 21.1 .8L55.1 12.2zM204.8 233.6c-5.3 7.1-15.3 8.5-22.4 3.2s-8.5-15.3-3.2-22.4c30.4-40.5 91.2-40.5 121.6 0c5.3 7.1 3.9 17.1-3.2 22.4s-17.1 3.9-22.4-3.2c-17.6-23.5-52.8-23.5-70.4 0zm160 0c-5.3 7.1-15.3 8.5-22.4 3.2s-8.5-15.3-3.2-22.4c30.4-40.5 91.2-40.5 121.6 0c5.3 7.1 3.9 17.1-3.2 22.4s-17.1 3.9-22.4-3.2c-17.6-23.5-52.8-23.5-70.4 0zM512 256c0-26.5 21.5-48 48-48h32c26.5 0 48 21.5 48 48v64c0 26.5-21.5 48-48 48H400c-8.8 0-16-7.2-16-16s7.2-16 16-16H592c8.8 0 16-7.2 16-16V256c0-8.8-7.2-16-16-16H560c-8.8 0-16 7.2-16 16s7.2 16 16 16h16c8.8 0 16 7.2 16 16s-7.2 16-16 16H560c-26.5 0-48-21.5-48-48z"/>
</symbol>
<symbol id="laptop-mobile" viewBox="0 0 640 512">
<path class="fa-secondary" style="fill:#0076c2;" d="M128 0C92.7 0 64 28.7 64 64V288H19.2C8.6 288 0 296.6 0 307.2C0 349.6 34.4 384 76.8 384H352V288H128V64H448V96h64V64c0-35.3-28.7-64-64-64H128zM576 448V192H448V448H576z"/><path class="fa-primary" style="fill:#004a79;" d="M448 192H576V448H448V192zm-16-64c-26.5 0-48 21.5-48 48V464c0 26.5 21.5 48 48 48H592c26.5 0 48-21.5 48-48V176c0-26.5-21.5-48-48-48H432z"/>
</symbol>
<symbol id="display" viewBox="0 0 576 512">
<path class="fa-secondary" style="fill:#0076c2;" d="M64 0C28.7 0 0 28.7 0 64V352c0 35.3 28.7 64 64 64H512c35.3 0 64-28.7 64-64V64c0-35.3-28.7-64-64-64H64zM512 64V352H64V64H512z"/><path class="fa-primary" style="fill:#004a79;" d="M512 64H64V352H512V64zM416 448H346.7L336 416H240l-10.7 32H160c-17.7 0-32 14.3-32 32s14.3 32 32 32H416c17.7 0 32-14.3 32-32s-14.3-32-32-32z"/>
</symbol>
<symbol id="camera-retro" viewBox="0 0 512 512">
<path class="fa-secondary" style="fill:#0076c2;" d="M0 128v32H256 512V96c0-35.3-28.7-64-64-64H271.1c-9.9 0-19.7 2.3-28.6 6.8L192 64H64C28.7 64 0 92.7 0 128z"/><path class="fa-primary" style="fill:#004a79;" d="M64 48c0-8.8 7.2-16 16-16h64c8.8 0 16 7.2 16 16V64H64V48zM0 416V160H512V416c0 35.3-28.7 64-64 64H64c-35.3 0-64-28.7-64-64zm256-16a96 96 0 1 0 0-192 96 96 0 1 0 0 192z"/>
</symbol>
<symbol id="up-right-from-square" viewBox="0 0 512 512">
<path class="fa-secondary" style="fill:#0076c2;" d="M0 112C0 67.8 35.8 32 80 32H192c17.7 0 32 14.3 32 32s-14.3 32-32 32H80c-8.8 0-16 7.2-16 16V432c0 8.8 7.2 16 16 16H400c8.8 0 16-7.2 16-16V320c0-17.7 14.3-32 32-32s32 14.3 32 32V432c0 44.2-35.8 80-80 80H80c-44.2 0-80-35.8-80-80V112z"/><path class="fa-primary" style="fill:#004a79;" d="M322.4 19.8C327.4 7.8 339.1 0 352 0H480c17.7 0 32 14.3 32 32V160c0 12.9-7.8 24.6-19.8 29.6s-25.7 2.2-34.9-6.9L416 141.3 246.6 310.6c-12.5 12.5-32.8 12.5-45.3 0s-12.5-32.8 0-45.3L370.7 96 329.4 54.6c-9.2-9.2-11.9-22.9-6.9-34.9z"/>
</symbol>
<symbol id="gift" viewBox="0 0 512 512">
<path class="fa-secondary" style="fill:#0076c2;" d="M73.6 128c14.6 28.5 44.2 48 78.4 48h64 8v80H32c-17.7 0-32-14.3-32-32V160c0-17.7 14.3-32 32-32H73.6zM480 256H288V176h72c34.2 0 63.8-19.5 78.4-48H480c17.7 0 32 14.3 32 32v64c0 17.7-14.3 32-32 32zM32 288H224V512H80c-26.5 0-48-21.5-48-48V288zM288 512V288H480V464c0 26.5-21.5 48-48 48H288z"/><path class="fa-primary" style="fill:#004a79;" d="M190.5 68.8L225.3 128H224h-8H152c-22.1 0-40-17.9-40-40s17.9-40 40-40h2.2c14.9 0 28.8 7.9 36.3 20.8zM256 85.5l-24.1-41C215.7 16.9 186.1 0 154.2 0H152C103.4 0 64 39.4 64 88s39.4 88 88 88h64 8v80h64V176h72c48.6 0 88-39.4 88-88s-39.4-88-88-88h-2.2c-31.9 0-61.5 16.9-77.7 44.4L256 85.5zm65.5-16.7C329.1 55.9 342.9 48 357.8 48H360c22.1 0 40 17.9 40 40s-17.9 40-40 40H286.7l34.8-59.2zM288 512V288H224V512h64z"/>
</symbol>
<symbol id="award" viewBox="0 0 384 512">
<path class="fa-secondary" style="fill:#0076c2;" d="M56.9 309.7L1.3 441.8c-2.2 5.3-1.4 11.4 2.1 16s9.3 6.9 15 6l56.1-8.3 32.2 49.2c3.2 5 8.9 7.7 14.8 7.2s11-4.3 13.3-9.7l50.1-119c-3.9-.9-7.6-2.4-11-4.7L156 366.8c-6-3.9-13-5.8-20.1-5.4l-21.3 1.3c-13.2 .8-25.6-6.4-31.5-18.2l-9.6-19.1c-3.2-6.4-8.4-11.5-14.7-14.7l-1.8-.9zm142.3 73.5l50.1 119c2.3 5.5 7.4 9.2 13.3 9.7s11.6-2.2 14.8-7.2l32.2-49.2 56.1 8.3c5.7 .8 11.4-1.5 15-6s4.3-10.7 2.1-16L327.1 309.7l-1.8 .9c-6.4 3.2-11.5 8.4-14.7 14.7L301 344.5c-5.9 11.8-18.3 19-31.5 18.2l-21.3-1.3c-7.1-.4-14.2 1.5-20.1 5.4l-17.8 11.8c-3.4 2.3-7.2 3.8-11 4.7z"/><path class="fa-primary" style="fill:#004a79;" d="M210.2 5.5c-11-7.3-25.4-7.3-36.4 0L156 17.2c-6 3.9-13 5.8-20.1 5.4l-21.3-1.3c-13.2-.8-25.6 6.4-31.5 18.2L73.4 58.6C70.2 65 65 70.2 58.6 73.4L39.5 83c-11.8 5.9-19 18.3-18.2 31.5l1.3 21.3c.4 7.1-1.5 14.2-5.4 20.1L5.5 173.8c-7.3 11-7.3 25.4 0 36.4L17.2 228c3.9 6 5.8 13 5.4 20.1l-1.3 21.3c-.8 13.2 6.4 25.6 18.2 31.5l19.1 9.6c6.4 3.2 11.5 8.4 14.7 14.7L83 344.5c5.9 11.8 18.3 19 31.5 18.2l21.3-1.3c7.1-.4 14.2 1.5 20.1 5.4l17.8 11.8c11 7.3 25.4 7.3 36.4 0L228 366.8c6-3.9 13-5.8 20.1-5.4l21.3 1.3c13.2 .8 25.6-6.4 31.5-18.2l9.6-19.1c3.2-6.4 8.4-11.5 14.7-14.7l19.1-9.6c11.8-5.9 19-18.3 18.2-31.5l-1.3-21.3c-.4-7.1 1.5-14.2 5.4-20.1l11.8-17.8c7.3-11 7.3-25.4 0-36.4L366.8 156c-3.9-6-5.8-13-5.4-20.1l1.3-21.3c.8-13.2-6.4-25.6-18.2-31.5l-19.1-9.6c-6.4-3.2-11.5-8.4-14.7-14.7L301 39.5c-5.9-11.8-18.3-19-31.5-18.2l-21.3 1.3c-7.1 .4-14.2-1.5-20.1-5.4L210.2 5.5zM192 112a80 80 0 1 1 0 160 80 80 0 1 1 0-160z"/>
</symbol>
<symbol id="fire" viewBox="0 0 448 512">
<path class="fa-secondary" style="fill:#0076c2;" d="M159.3 5.4c7.8-7.3 19.9-7.2 27.7 .1c27.6 25.9 53.5 53.8 77.7 84c11-14.4 23.5-30.1 37-42.9c7.9-7.4 20.1-7.4 28 .1c34.6 33 63.9 76.6 84.5 118c20.3 40.8 33.8 82.5 33.8 111.9C448 404.2 348.2 512 224 512C98.4 512 0 404.1 0 276.5c0-38.4 17.8-85.3 45.4-131.7C73.3 97.7 112.7 48.6 159.3 5.4zM225.7 416c25.3 0 47.7-7 68.8-21c42.1-29.4 53.4-88.2 28.1-134.4c-4.5-9-16-9.6-22.5-2l-25.2 29.3c-6.6 7.6-18.5 7.4-24.7-.5c-16.5-21-46-58.5-62.8-79.8c-6.3-8-18.3-8.1-24.7-.1c-33.8 42.5-50.8 69.3-50.8 99.4C112 375.4 162.6 416 225.7 416z"/><path class="fa-primary" style="fill:#004a79;" d="M294.5 395c-21.1 14-43.5 21-68.8 21C162.6 416 112 375.4 112 306.8c0-30.1 16.9-56.9 50.8-99.4c6.3-8 18.4-7.9 24.7 .1c16.8 21.3 46.3 58.8 62.8 79.8c6.2 7.9 18.1 8.1 24.7 .5l25.2-29.3c6.5-7.6 18-6.9 22.5 2c25.3 46.2 14 105-28.1 134.4z"/>
</symbol>
<symbol id="pen-to-square" viewBox="0 0 512 512">
<path class="fa-secondary" style="fill:#0076c2;" d="M0 160c0-53 43-96 96-96h96c17.7 0 32 14.3 32 32s-14.3 32-32 32H96c-17.7 0-32 14.3-32 32V416c0 17.7 14.3 32 32 32H352c17.7 0 32-14.3 32-32V320c0-17.7 14.3-32 32-32s32 14.3 32 32v96c0 53-43 96-96 96H96c-53 0-96-43-96-96V160z"/><path class="fa-primary" style="fill:#004a79;" d="M392.4 21.7L362.3 51.7l97.9 97.9 30.1-30.1c21.9-21.9 21.9-57.3 0-79.2L471.6 21.7c-21.9-21.9-57.3-21.9-79.2 0zM339.7 74.3L172.4 241.7c-6.1 6.1-10.8 13.6-13.5 21.9l-29.6 88.8c-2.9 8.6-.6 18.1 5.8 24.6s15.9 8.7 24.6 5.8l88.8-29.6c8.2-2.7 15.7-7.4 21.9-13.5L437.7 172.3 339.7 74.3z"/>
</symbol>
<symbol id="phone-flip" viewBox="0 0 512 512">
<path class="fa-secondary" style="fill:#0076c2;" d="M6.3 412.3l8.5 31.2c71.8-8.7 138.9-32.9 197.8-69.1l-20.5-25C136.7 382.8 73.7 404.8 6.3 412.3zM412.3 6.3c-7.5 67.4-29.5 130.4-62.9 185.8l25 20.5c36.2-58.9 60.4-125.9 69.2-197.8L412.3 6.3z"/><path class="fa-primary" style="fill:#004a79;" d="M443.6 14.8l39 10.6C499.9 30.2 512 46 512 64c0 247.4-200.6 448-448 448c-18 0-33.8-12.1-38.6-29.5l-10.6-39c224-27.2 401.6-204.8 428.8-428.8zM6.3 412.3L1.4 394.5c-5.3-19.4 4.6-39.7 23.2-47.4l96-40c16.3-6.8 35.2-2.1 46.3 11.6l25.1 30.7C136.7 382.8 73.7 404.8 6.3 412.3zM349.4 192.1L318.7 167c-13.7-11.2-18.4-30-11.6-46.3l40-96c7.7-18.6 28-28.5 47.4-23.2l17.8 4.9c-7.5 67.4-29.5 130.4-62.9 185.8z"/>
</symbol>
<symbol id="ban" viewBox="0 0 512 512">
<path class="fa-secondary" style="fill:#0076c2;" d="M99.5 144.8L367.2 412.5c17.5-12.5 32.8-27.8 45.3-45.3L144.8 99.5C127.3 112 112 127.3 99.5 144.8z"/><path class="fa-primary" style="fill:#004a79;" d="M256 64a192 192 0 1 1 0 384 192 192 0 1 1 0-384zm0 448A256 256 0 1 0 256 0a256 256 0 1 0 0 512z"/>
</symbol>
<symbol id="house-water" viewBox="0 0 576 512">
<path class="fa-secondary" style="fill:#0076c2;" d="M575.8 255.5c0 18-15 32.1-32 32.1h-32l.5 105.6c-21.3-12.4-48.3-11.6-69.1 3c-18 12.4-40.1 20.3-59.2 20.3c-19.6 0-40.8-7.7-59.2-20.3c-22.1-15.5-51.6-15.5-73.7 0c-17.1 11.8-38 20.3-59.2 20.3c-19 0-41.2-7.9-59.2-20.3c-20.6-14.5-47.5-15.4-68.8-3.1V287.6H32c-18 0-32-14-32-32.1c0-9 3-17 10-24L266.4 8c7-7 15-8 22-8s15 2 21 7L564.8 231.5c8 7 12 15 11 24zM248 192c-13.3 0-24 10.7-24 24v80c0 13.3 10.7 24 24 24h80c13.3 0 24-10.7 24-24V216c0-13.3-10.7-24-24-24H248z"/><path class="fa-primary" style="fill:#004a79;" d="M269.5 421.9c11.1-7.9 25.9-7.9 37 0C329 437.4 356.5 448 384 448c26.9 0 55.4-10.8 77.4-26.1l0 0c11.9-8.5 28.1-7.8 39.2 1.7c14.4 11.9 32.5 21 50.6 25.2c17.2 4 27.9 21.2 23.9 38.4s-21.2 27.9-38.4 23.9c-24.5-5.7-44.9-16.5-58.2-25C449.5 501.7 417 512 384 512c-31.9 0-60.6-9.9-80.4-18.9c-5.8-2.7-11.1-5.3-15.6-7.7c-4.5 2.4-9.7 5.1-15.6 7.7c-19.8 9-48.5 18.9-80.4 18.9c-33 0-65.5-10.3-94.5-25.8c-13.4 8.4-33.7 19.3-58.2 25c-17.2 4-34.4-6.7-38.4-23.9s6.7-34.4 23.9-38.4c18.1-4.2 36.2-13.3 50.6-25.2c11.1-9.4 27.3-10.1 39.2-1.7l0 0C136.7 437.2 165.1 448 192 448c27.5 0 55-10.6 77.5-26.1z"/>
</symbol>
<symbol id="comment" viewBox="0 0 512 512">
<path class="fa-secondary" style="fill:#0076c2;" d="M512 240c0 114.9-114.6 208-256 208c-37.1 0-72.3-6.4-104.1-17.9c-11.9 8.7-31.3 20.6-54.3 30.6C73.6 471.1 44.7 480 16 480c-6.5 0-12.3-3.9-14.8-9.9c-2.5-6-1.1-12.8 3.4-17.4l0 0 0 0 0 0 0 0 .3-.3c.3-.3 .7-.7 1.3-1.4c1.1-1.2 2.8-3.1 4.9-5.7c4.1-5 9.6-12.4 15.2-21.6c10-16.6 19.5-38.4 21.4-62.9C17.7 326.8 0 285.1 0 240C0 125.1 114.6 32 256 32s256 93.1 256 208z"/><path class="fa-primary" style="fill:#004a79;" d=""/>
</symbol>
<symbol id="mobile-screen-button" viewBox="0 0 384 512">
<path class="fa-secondary" style="fill:#0076c2;" d="M16 64C16 28.7 44.7 0 80 0H304c35.3 0 64 28.7 64 64V448c0 35.3-28.7 64-64 64H80c-35.3 0-64-28.7-64-64V64zM224 448a32 32 0 1 0 -64 0 32 32 0 1 0 64 0zM304 64H80V384H304V64z"/><path class="fa-primary" style="fill:#004a79;" d="M80 64H304V384H80V64z"/>
</symbol>
<symbol id="phone" viewBox="0 0 512 512">
<path class="fa-secondary" style="fill:#0076c2;" d="M505.7 412.3l-8.5 31.2c-71.8-8.7-138.9-32.9-197.8-69.1l20.5-25c55.4 33.4 118.4 55.4 185.8 62.9zM99.7 6.3c7.5 67.4 29.5 130.4 62.9 185.8l-25 20.5C101.4 153.7 77.2 86.6 68.4 14.8L99.7 6.3z"/><path class="fa-primary" style="fill:#004a79;" d="M68.4 14.8l-39 10.6C12.1 30.2 0 46 0 64C0 311.4 200.6 512 448 512c18 0 33.8-12.1 38.6-29.5l10.6-39C273.2 416.4 95.6 238.8 68.4 14.8zM505.7 412.3l4.9-17.8c5.3-19.4-4.6-39.7-23.2-47.4l-96-40c-16.3-6.8-35.2-2.1-46.3 11.6l-25.1 30.7c55.4 33.4 118.4 55.4 185.8 62.9zM162.6 192.1L193.3 167c13.7-11.2 18.4-30 11.6-46.3l-40-96c-7.7-18.6-28-28.5-47.4-23.2L99.7 6.3c7.5 67.4 29.5 130.4 62.9 185.8z"/>
</symbol>
<symbol id="envelope-open-text" viewBox="0 0 512 512">
<path class="fa-secondary" style="fill:#0076c2;" d="M96 32C78.3 32 64 46.3 64 64V249.7L236.7 377.6c5.6 4.1 12.4 6.4 19.3 6.4s13.7-2.2 19.3-6.4L448 249.7V64c0-17.7-14.3-32-32-32H96zm80 96H336c8.8 0 16 7.2 16 16s-7.2 16-16 16H176c-8.8 0-16-7.2-16-16s7.2-16 16-16zm0 64H336c8.8 0 16 7.2 16 16s-7.2 16-16 16H176c-8.8 0-16-7.2-16-16s7.2-16 16-16z"/><path class="fa-primary" style="fill:#004a79;" d="M511.8 202.5c-1.6-18.1-10.9-34.9-25.7-45.8L448 128.5v79.6 41.6l63.8-47.2zM512 448V242.1L294.4 403.3C283.3 411.6 269.8 416 256 416s-27.3-4.4-38.4-12.7L0 242.1V448v0c0 35.3 28.7 64 64 64H448c35.3 0 64-28.7 64-64v0zM64 249.7V208.1l0-79.6L25.9 156.7C11.1 167.6 1.8 184.4 .2 202.5L64 249.7zM289.5 11.1C279.8 3.9 268.1 0 256 0s-23.8 3.9-33.5 11L194.2 32H317.8L289.5 11.1zM176 128c-8.8 0-16 7.2-16 16s7.2 16 16 16H336c8.8 0 16-7.2 16-16s-7.2-16-16-16H176zm0 64c-8.8 0-16 7.2-16 16s7.2 16 16 16H336c8.8 0 16-7.2 16-16s-7.2-16-16-16H176z"/>
</symbol>
<symbol id="bed" viewBox="0 0 640 512">
<path class="fa-secondary" style="fill:#0076c2;" d="M176 128a80 80 0 1 1 0 160 80 80 0 1 1 0-160zm112 32c0-17.7 14.3-32 32-32H544c53 0 96 43 96 96v64 32H608 320 288V288 160z"/><path class="fa-primary" style="fill:#004a79;" d="M32 32c17.7 0 32 14.3 32 32V320H608h32v32 96c0 17.7-14.3 32-32 32s-32-14.3-32-32V416H64v32c0 17.7-14.3 32-32 32s-32-14.3-32-32V64C0 46.3 14.3 32 32 32z"/>
</symbol>
<symbol id="wind" viewBox="0 0 512 512">
<path class="fa-secondary" style="fill:#0076c2;" d="M352 384c0 17.7 14.3 32 32 32h32c53 0 96-43 96-96s-43-96-96-96H32c-17.7 0-32 14.3-32 32s14.3 32 32 32H416c17.7 0 32 14.3 32 32s-14.3 32-32 32H384c-17.7 0-32 14.3-32 32z"/><path class="fa-primary" style="fill:#004a79;" d="M320 0c-17.7 0-32 14.3-32 32s14.3 32 32 32h32c17.7 0 32 14.3 32 32s-14.3 32-32 32H32c-17.7 0-32 14.3-32 32s14.3 32 32 32H352c53 0 96-43 96-96s-43-96-96-96H320zM128 512h32c53 0 96-43 96-96s-43-96-96-96H32c-17.7 0-32 14.3-32 32s14.3 32 32 32H160c17.7 0 32 14.3 32 32s-14.3 32-32 32H128c-17.7 0-32 14.3-32 32s14.3 32 32 32z"/>
</symbol>
<symbol id="square-check" viewBox="0 0 448 512">
<path class="fa-secondary" style="fill:#0076c2;" d="M64 32C28.7 32 0 60.7 0 96V416c0 35.3 28.7 64 64 64H384c35.3 0 64-28.7 64-64V96c0-35.3-28.7-64-64-64H64zM337 209L209 337c-9.4 9.4-24.6 9.4-33.9 0l-64-64c-9.4-9.4-9.4-24.6 0-33.9s24.6-9.4 33.9 0l47 47L303 175c9.4-9.4 24.6-9.4 33.9 0s9.4 24.6 0 33.9z"/><path class="fa-primary" style="fill:#004a79;" d="M337 175c9.4 9.4 9.4 24.6 0 33.9L209 337c-9.4 9.4-24.6 9.4-33.9 0l-64-64c-9.4-9.4-9.4-24.6 0-33.9s24.6-9.4 33.9 0l47 47L303 175c9.4-9.4 24.6-9.4 33.9 0z"/>
</symbol>
<symbol id="clipboard-list-check" viewBox="0 0 384 512">
<path class="fa-secondary" style="fill:#0076c2;" d="M113.2 66.3c.1-.8 .3-1.6 .4-2.3H64C28.7 64 0 92.7 0 128V448c0 35.3 28.7 64 64 64H320c35.3 0 64-28.7 64-64V128c0-35.3-28.7-64-64-64H270.4c.2 .8 .3 1.6 .4 2.3C290.1 72.6 304 90.7 304 112v24c0 13.3-10.7 24-24 24H192 104c-13.3 0-24-10.7-24-24V112c0-21.3 13.9-39.4 33.2-45.7zm74.2 162.3c6.2 6.2 6.2 16.4 0 22.6l-64 64c-6.2 6.2-16.4 6.2-22.6 0l-32-32c-6.2-6.2-6.2-16.4 0-22.6s16.4-6.2 22.6 0L112 281.4l52.7-52.7c6.2-6.2 16.4-6.2 22.6 0zM192 304c0-8.8 7.2-16 16-16h96c8.8 0 16 7.2 16 16s-7.2 16-16 16H208c-8.8 0-16-7.2-16-16zm112 80c8.8 0 16 7.2 16 16s-7.2 16-16 16H176c-8.8 0-16-7.2-16-16s7.2-16 16-16H304zM72 400a24 24 0 1 1 48 0 24 24 0 1 1 -48 0z"/><path class="fa-primary" style="fill:#004a79;" d="M113.2 66.3C119.6 28.7 152.5 0 192 0s72.4 28.7 78.8 66.3C290.1 72.6 304 90.7 304 112v24c0 13.3-10.7 24-24 24H192 104c-13.3 0-24-10.7-24-24V112c0-21.3 13.9-39.4 33.2-45.7zM216 80a24 24 0 1 0 -48 0 24 24 0 1 0 48 0zM187.3 228.7c6.2 6.2 6.2 16.4 0 22.6l-64 64c-6.2 6.2-16.4 6.2-22.6 0l-32-32c-6.2-6.2-6.2-16.4 0-22.6s16.4-6.2 22.6 0L112 281.4l52.7-52.7c6.2-6.2 16.4-6.2 22.6 0zM72 400a24 24 0 1 1 48 0 24 24 0 1 1 -48 0z"/>
</symbol>
<symbol id="handshake" viewBox="0 0 640 512">
<path class="fa-secondary" style="fill:#0076c2;" d="M512 352V128h-1.5l-71-47.3C423.2 69.8 404.1 64 384.5 64c-20.7 0-40.9 6.5-57.7 18.5l-98.6 70.4c-21.6 15.4-26.6 45.4-11.2 67s45.4 26.6 67 11.2l57.2-40.8L496.4 332.6c6 5.5 10.3 12.2 12.8 19.4H512zm32 0c0 17.7 14.3 32 32 32h32c17.7 0 32-14.3 32-32V144c0-8.8-7.2-16-16-16H544V352zm48-32a16 16 0 1 1 0 32 16 16 0 1 1 0-32z"/><path class="fa-primary" style="fill:#004a79;" d="M156.2 352H128V128l72-48c15.6-10.4 34-16 52.8-16c22.7 0 44.7 8.1 61.9 22.9l2.7 2.3-89.3 63.8c-21.6 15.4-26.6 45.4-11.2 67s45.4 26.6 67 11.2l57.2-40.8 13.1 12L496.4 332.6c5.5 5 9.6 11.1 12.1 17.5c6.6 16.6 3.7 36.2-9.2 50.3c-17.9 19.5-48.3 20.9-67.8 2.9l-7.8-7.1c-.9 10.1-5 20.1-12.4 28.2c-17.9 19.5-48.3 20.9-67.8 2.9l-17-15.6c-1.9 7.4-5.6 14.5-11.1 20.6c-17.9 19.6-48.2 21-67.8 3.1L156.2 352zM0 144c0-8.8 7.2-16 16-16H96V352c0 17.7-14.3 32-32 32H32c-17.7 0-32-14.3-32-32V144zM64 336a16 16 0 1 0 -32 0 16 16 0 1 0 32 0z"/>
</symbol>
<symbol id="messages" viewBox="0 0 640 512">
<path class="fa-secondary" style="fill:#0076c2;" d="M256 352v32c0 35.3 28.7 64 64 64H437.3l81.1 60.8c4.8 3.6 11.3 4.2 16.8 1.5s8.8-8.2 8.8-14.3V448h32c35.3 0 64-28.7 64-64V192c0-35.3-28.7-64-64-64H448V256c0 53-43 96-96 96H256z"/><path class="fa-primary" style="fill:#004a79;" d="M0 64C0 28.7 28.7 0 64 0H352c35.3 0 64 28.7 64 64V256c0 35.3-28.7 64-64 64H202.7l-81.1 60.8c-4.8 3.6-11.3 4.2-16.8 1.5s-8.8-8.2-8.8-14.3V320H64c-35.3 0-64-28.7-64-64V64z"/>
</symbol>
<symbol id="file-certificate" viewBox="0 0 512 512">
<path class="fa-secondary" style="fill:#0076c2;" d="M192 0c-35.3 0-64 28.7-64 64V168.6c1 0 2.1-.2 3-.6l15.8-6.5c10-4.1 21.5-1 28.1 7.5l10.5 13.5c1.3 1.7 3.2 2.7 5.2 3l16.9 2.3c10.7 1.5 19.1 9.9 20.5 20.5l2.3 16.9c.3 2.1 1.4 4 3 5.2l13.5 10.5c8.5 6.6 11.6 18.1 7.5 28.1L248 285c-.8 1.9-.8 4.1 0 6.1l6.5 15.8c4.1 10 1 21.5-7.5 28.1l-13.5 10.5c-1.7 1.3-2.7 3.2-3 5.2l-2.3 16.9c-1.5 10.7-9.9 19.1-20.5 20.6L192 390.2V496c0 5.9-3.2 11.3-8.5 14.1c-.7 .4-1.5 .7-2.3 1c3.5 .6 7.1 .9 10.7 .9H448c35.3 0 64-28.7 64-64V160H384c-17.7 0-32-14.3-32-32V0H192z"/><path class="fa-primary" style="fill:#004a79;" d="M512 160L352 0V128c0 17.7 14.3 32 32 32H512zm-402.8 1.6c-10-4.1-21.5-1-28.1 7.5L70.6 182.6c-1.3 1.7-3.2 2.7-5.2 3l-16.9 2.3c-10.7 1.5-19.1 9.9-20.5 20.5l-2.3 16.9c-.3 2.1-1.4 4-3 5.2L9.1 241.1c-8.5 6.6-11.6 18.1-7.5 28.1L8 285c.8 1.9 .8 4.1 0 6.1L1.6 306.8c-4.1 10-1 21.5 7.5 28.1l13.5 10.5c1.7 1.3 2.7 3.2 3 5.2l2.3 16.9c1.5 10.7 9.9 19.1 20.5 20.6L64 390.2V496c0 5.9 3.2 11.3 8.5 14.1s11.5 2.5 16.4-.8L128 483.2l39.1 26.1c4.9 3.3 11.2 3.6 16.4 .8s8.5-8.2 8.5-14.1V390.2l15.5-2.1c10.7-1.5 19.1-9.9 20.5-20.6l2.3-16.9c.3-2.1 1.4-4 3-5.2l13.5-10.5c8.5-6.6 11.6-18.1 7.5-28.1L248 291c-.8-1.9-.8-4.1 0-6.1l6.5-15.8c4.1-10 1-21.5-7.5-28.1l-13.5-10.5c-1.7-1.3-2.7-3.2-3-5.2l-2.3-16.9c-1.5-10.7-9.9-19.1-20.5-20.5l-16.9-2.3c-2.1-.3-4-1.4-5.2-3l-10.5-13.5c-6.6-8.5-18.1-11.6-28.1-7.5L131 168c-1.9 .8-4.1 .8-6.1 0l-15.8-6.5zM64 288a64 64 0 1 1 128 0A64 64 0 1 1 64 288z"/>
</symbol>
<symbol id="washing-machine" viewBox="0 0 448 512">
<path class="fa-secondary" style="fill:#0076c2;" d="M184 112a24 24 0 1 0 0-48 24 24 0 1 0 0 48zm40 336c77.6 0 140.9-61.4 143.9-138.2C350 315.4 328.1 320 304 320c-32 0-56-16-80-32s-48-32-80-32c-19.7 0-40.6 4.7-59 10.4c-3.2 12-5 24.6-5 37.6c0 79.5 64.5 144 144 144z"/><path class="fa-primary" style="fill:#004a79;" d="M64 0C28.7 0 0 28.7 0 64V448c0 35.3 28.7 64 64 64H384c35.3 0 64-28.7 64-64V64c0-35.3-28.7-64-64-64H64zM224 160a144 144 0 1 1 0 288 144 144 0 1 1 0-288zM64 88a24 24 0 1 1 48 0A24 24 0 1 1 64 88zM184 64a24 24 0 1 1 0 48 24 24 0 1 1 0-48z"/>
</symbol>
<symbol id="cloud-bolt" viewBox="0 0 512 512">
<path class="fa-secondary" style="fill:#0076c2;" d="M334.3 247.2c3.4-6.7 1.6-14.9-4.2-19.6s-14.2-4.7-20.1-.1l-160 128c-5.3 4.2-7.4 11.4-5.1 17.8s8.3 10.7 15.1 10.7h70.1L177.7 488.8c-3.4 6.7-1.6 14.9 4.3 19.6s14.2 4.7 20.1 .1l160-128c5.3-4.2 7.4-11.4 5.1-17.8s-8.3-10.7-15.1-10.7H281.9l52.4-104.8z"/><path class="fa-primary" style="fill:#004a79;" d="M96 320c-53 0-96-43-96-96c0-42.5 27.6-78.6 65.9-91.2C64.7 126.1 64 119.1 64 112C64 50.1 114.1 0 176 0c43.1 0 80.5 24.3 99.2 60c14.7-17.1 36.5-28 60.8-28c44.2 0 80 35.8 80 80c0 5.5-.6 10.8-1.6 16c.5 0 1.1 0 1.6 0c53 0 96 43 96 96s-43 96-96 96H352 333.7l29.3-58.5c10.1-20.2 4.8-44.6-12.8-58.8s-42.6-14.2-60.2-.2L143.2 320H96z"/>
</symbol>
<symbol id="scroll" viewBox="0 0 576 512">
<path class="fa-secondary" style="fill:#0076c2;" d="M128 96V400c0 44.2 35.8 80 80 80s80-35.8 80-80V384c0-17.7 14.3-32 32-32H480V96c0-35.3-28.7-64-64-64H64c35.3 0 64 28.7 64 64z"/><path class="fa-primary" style="fill:#004a79;" d="M128 160H32c-17.7 0-32-14.3-32-32V96C0 60.7 28.7 32 64 32s64 28.7 64 64v64zM288 400V384c0-17.7 14.3-32 32-32H544c17.7 0 32 14.3 32 32c0 53-43 96-96 96H208c44.2 0 80-35.8 80-80z"/>
</symbol>
<symbol id="shield-halved" viewBox="0 0 512 512">
<path class="fa-secondary" style="fill:#0076c2;" d="M256 0c.2 0 .5 0 .7 0c4.6 0 9.2 1 13.4 2.9L458.4 82.8c22 9.3 38.4 31 38.3 57.2c-.5 99.2-41.3 280.7-213.6 363.2c-8.3 4-17.4 6-26.4 6V0H256z"/><path class="fa-primary" style="fill:#004a79;" d="M256.7 0c-.2 0-.5 0-.7 0c-4.6 0-9.2 1-13.4 2.9L54.3 82.8c-22 9.3-38.4 31-38.3 57.2c.5 99.2 41.3 280.7 213.6 363.2c8.3 4 17.4 6 26.4 6V0h.7z"/>
</symbol>
<symbol id="teddy-bear" viewBox="0 0 576 512">
<path class="fa-secondary" style="fill:#0076c2;" d="M236.6 36.7C228.7 15.3 208.2 0 184 0c-30.9 0-56 25.1-56 56c0 20.2 10.7 37.9 26.7 47.7c9.1-37.9 40.4-58.5 81.9-67zM448 56c0-30.9-25.1-56-56-56c-24.2 0-44.7 15.3-52.6 36.7c41.5 8.5 72.8 29.1 81.9 67C437.3 93.9 448 76.2 448 56zM288 224c35.3 0 64-21.5 64-48s-28.7-48-64-48s-64 21.5-64 48s28.7 48 64 48zm0-32c-17.7 0-32-10.7-32-24s14.3-24 32-24s32 10.7 32 24s-14.3 24-32 24zM192 416H384c0-35.3-28.7-64-64-64H256c-35.3 0-64 28.7-64 64z"/><path class="fa-primary" style="fill:#004a79;" d="M288 256c-75.1 0-136-57.3-136-128s60.9-96 136-96s136 25.3 136 96s-60.9 128-136 128zM240 128a16 16 0 1 0 0-32 16 16 0 1 0 0 32zm112-16a16 16 0 1 0 -32 0 16 16 0 1 0 32 0zm0 64c0-26.5-28.7-48-64-48s-64 21.5-64 48s28.7 48 64 48s64-21.5 64-48zm-32-8c0 13.3-14.3 24-32 24s-32-10.7-32-24s14.3-24 32-24s32 10.7 32 24zM50.3 178.3c20.8-16.4 51-12.8 67.4 8L143.5 219c73.7 93.5 215.4 93.5 289.1 0l25.8-32.7c16.4-20.8 46.6-24.4 67.4-8s24.4 46.6 8 67.4l-25.8 32.7c-17.7 22.4-37.9 41.3-59.9 56.7V400h16.6c3.9-27.1 27.2-48 55.4-48c30.9 0 56 25.1 56 56c0 2.7-.2 5.4-.6 8l-13 53.3c-5.8 23.8-26.3 40.9-50.4 42.6v.1h-4H480 96 68 64v-.1c-24.1-1.7-44.6-18.8-50.4-42.6L.6 416c-.4-2.6-.6-5.3-.6-8c0-30.9 25.1-56 56-56c28.2 0 51.6 20.9 55.4 48H128V335.1c-22-15.4-42.3-34.3-59.9-56.7L42.3 245.7c-16.4-20.8-12.8-51 8-67.4zM256 352c-35.3 0-64 28.7-64 64H384c0-35.3-28.7-64-64-64H256z"/>
</symbol>
<symbol id="check" viewBox="0 0 448 512">
<path class="fa-secondary" style="fill:#0076c2;" d=""/><path class="fa-primary" style="fill:#004a79;" d="M438.6 105.4c12.5 12.5 12.5 32.8 0 45.3l-256 256c-12.5 12.5-32.8 12.5-45.3 0l-128-128c-12.5-12.5-12.5-32.8 0-45.3s32.8-12.5 45.3 0L160 338.7 393.4 105.4c12.5-12.5 32.8-12.5 45.3 0z"/>
</symbol>
<symbol id="blender" viewBox="0 0 512 512">
<path class="fa-secondary" style="fill:#0076c2;" d="M64 0C28.7 0 0 28.7 0 64V192c0 35.3 28.7 64 64 64h85.3L160 384H416l24-96H336c-8.8 0-16-7.2-16-16s7.2-16 16-16H448l16-64H336c-8.8 0-16-7.2-16-16s7.2-16 16-16H472l16-64H336c-8.8 0-16-7.2-16-16s7.2-16 16-16H496l6.1-24.2C507.1 19.6 491.8 0 471 0H160 128 64zm69.3 64L144 192H64V64h69.3z"/><path class="fa-primary" style="fill:#004a79;" d="M336 64H496l-8 32H336c-8.8 0-16-7.2-16-16s7.2-16 16-16zm0 96H472l-8 32H336c-8.8 0-16-7.2-16-16s7.2-16 16-16zm0 96H448l-8 32H336c-8.8 0-16-7.2-16-16s7.2-16 16-16zM96 432c0-26.5 21.5-48 48-48H432c26.5 0 48 21.5 48 48v32c0 26.5-21.5 48-48 48H144c-26.5 0-48-21.5-48-48V432zm224 16a32 32 0 1 0 -64 0 32 32 0 1 0 64 0z"/>
</symbol>
<symbol id="couch" viewBox="0 0 640 512">
<path class="fa-secondary" style="fill:#0076c2;" d="M192 32C121.3 32 64 89.3 64 160v66.7c18.6 6.6 32 24.4 32 45.3v80H544V272c0-20.9 13.4-38.7 32-45.3V160c0-70.7-57.3-128-128-128H192z"/><path class="fa-primary" style="fill:#004a79;" d="M48 224c-26.5 0-48 21.5-48 48V448c0 17.7 14.3 32 32 32H64c17.7 0 32-14.3 32-32H544c0 17.7 14.3 32 32 32h32c17.7 0 32-14.3 32-32V272c0-26.5-21.5-48-48-48s-48 21.5-48 48v80H96V272c0-26.5-21.5-48-48-48z"/>
</symbol>
<symbol id="user" viewBox="0 0 448 512">
<path class="fa-secondary" style="fill:#0076c2;" d="M96 128a128 128 0 1 1 256 0A128 128 0 1 1 96 128z"/><path class="fa-primary" style="fill:#004a79;" d="M0 482.3C0 383.8 79.8 304 178.3 304h91.4C368.2 304 448 383.8 448 482.3c0 16.4-13.3 29.7-29.7 29.7H29.7C13.3 512 0 498.7 0 482.3z"/>
</symbol>
<symbol id="file-invoice-dollar" viewBox="0 0 384 512">
<path class="fa-secondary" style="fill:#0076c2;" d="M0 64C0 28.7 28.7 0 64 0H224V128c0 17.7 14.3 32 32 32H384V448c0 35.3-28.7 64-64 64H64c-35.3 0-64-28.7-64-64V64zM64 80c0 8.8 7.2 16 16 16h64c8.8 0 16-7.2 16-16s-7.2-16-16-16H80c-8.8 0-16 7.2-16 16zm0 64c0 8.8 7.2 16 16 16h64c8.8 0 16-7.2 16-16s-7.2-16-16-16H80c-8.8 0-16 7.2-16 16zm128 72c-8.8 0-16 7.2-16 16v17.3c-8.3 1.5-16.7 4.3-24.1 8.7c-13 7.7-23.9 21.1-23.8 40.5c.1 18.4 10.8 30.1 22.7 37.3c10.5 6.3 23.8 10.4 34.8 13.7l0 0 1.6 .5c12.5 3.8 22.2 6.9 29 11.2c5.9 3.7 7.7 7 7.7 11.6c.1 6.6-2.7 10.8-7.8 14c-5.8 3.6-14.5 5.6-23.7 5.3c-11.8-.4-22.7-4.1-36.3-8.7l0 0 0 0 0 0c-2.3-.8-4.7-1.6-7.1-2.4c-8.4-2.8-17.4 1.7-20.2 10.1s1.7 17.4 10.1 20.2c2 .7 4.1 1.4 6.2 2.1l0 0 0 0c9.2 3.2 19.7 6.8 30.9 8.9V440c0 8.8 7.2 16 16 16s16-7.2 16-16V422.9c8.7-1.4 17.4-4.3 25.1-9.1c13.3-8.3 23.2-22.2 22.9-41.6c-.2-18.5-10.6-30.6-22.7-38.2c-11-6.9-25-11.2-36.3-14.6l0 0 0 0-.5-.1c-12.6-3.8-22.3-6.8-29.2-10.9c-6-3.6-7.2-6.4-7.3-10.1c0-5.4 2.4-9.4 8.1-12.8c6.2-3.7 15.1-5.7 23.6-5.5c10.1 .2 21 2.3 32.1 5.3c8.5 2.3 17.3-2.8 19.6-11.3s-2.8-17.3-11.3-19.6c-7.5-2-15.6-3.9-24.1-5.1V232c0-8.8-7.2-16-16-16z"/><path class="fa-primary" style="fill:#004a79;" d="M384 160L224 0V128c0 17.7 14.3 32 32 32H384zM208 232c0-8.8-7.2-16-16-16s-16 7.2-16 16v17.3c-8.3 1.5-16.7 4.3-24.1 8.7c-13 7.7-23.9 21.1-23.8 40.5c.1 18.4 10.8 30.1 22.7 37.3c10.5 6.3 23.8 10.4 34.8 13.7l0 0 1.6 .5c12.5 3.8 22.2 6.9 29 11.2c5.9 3.7 7.7 7 7.7 11.6c.1 6.6-2.7 10.8-7.8 14c-5.8 3.6-14.5 5.6-23.7 5.3c-11.8-.4-22.7-4.1-36.3-8.7l0 0 0 0 0 0c-2.3-.8-4.7-1.6-7.1-2.4c-8.4-2.8-17.4 1.7-20.2 10.1s1.7 17.4 10.1 20.2c2 .7 4.1 1.4 6.2 2.1l0 0c9.2 3.2 19.7 6.8 30.9 8.9l0 17.8c0 8.8 7.2 16 16 16s16-7.2 16-16V422.9c8.7-1.4 17.4-4.3 25.1-9.1c13.3-8.3 23.2-22.2 22.9-41.6c-.2-18.5-10.6-30.6-22.7-38.2c-11-6.9-25-11.2-36.3-14.6l0 0 0 0-.5-.1c-12.6-3.8-22.3-6.8-29.2-10.9c-6-3.6-7.2-6.4-7.3-10.1c0-5.4 2.4-9.4 8.1-12.8c6.2-3.7 15.1-5.7 23.6-5.5c10.1 .2 21 2.3 32.1 5.3c8.5 2.3 17.3-2.8 19.6-11.3s-2.8-17.3-11.3-19.6c-7.5-2-15.6-3.9-24.1-5.1V232z"/>
</symbol>
<symbol id="wrench" viewBox="0 0 512 512">
<path class="fa-secondary" style="fill:#0076c2;" d="M201.5 214.5L19.9 396.1C7.2 408.8 0 426.1 0 444.1C0 481.6 30.4 512 67.9 512c18 0 35.3-7.2 48-19.9L297.5 310.5c-44.5-16.1-79.9-51.5-96-96zM56 432a24 24 0 1 1 48 0 24 24 0 1 1 -48 0z"/><path class="fa-primary" style="fill:#004a79;" d="M352 320c88.4 0 160-71.6 160-160c0-15.3-2.2-30.1-6.2-44.2c-3.1-10.8-16.4-13.2-24.3-5.3l-76.8 76.8c-3 3-7.1 4.7-11.3 4.7H336c-8.8 0-16-7.2-16-16V118.6c0-4.2 1.7-8.3 4.7-11.3l76.8-76.8c7.9-7.9 5.4-21.2-5.3-24.3C382.1 2.2 367.3 0 352 0C263.6 0 192 71.6 192 160s71.6 160 160 160z"/>
</symbol>
<symbol id="lamp" viewBox="0 0 448 512">
<path class="fa-secondary" style="fill:#0076c2;" d="M288 256H160v48s-64 66.5-64 128c0 24.4 8.3 44.6 16.4 58.7c8.5 14.7 25.2 21.3 42.1 21.3h139c17 0 33.6-6.6 42.1-21.3c8.1-14 16.4-34.3 16.4-58.7c0-61.5-64-128-64-128V256z"/><path class="fa-primary" style="fill:#004a79;" d="M112 0C99.1 0 87.4 7.8 82.5 19.7l-80 192c-4.1 9.9-3 21.2 2.9 30.1S21.3 256 32 256H416c10.7 0 20.7-5.3 26.6-14.2s7-20.2 2.9-30.1l-80-192C360.6 7.8 348.9 0 336 0H112z"/>
</symbol>
<symbol id="flag" viewBox="0 0 448 512">
<path class="fa-secondary" style="fill:#0076c2;" d="M64 352l64.3-16.1c41.1-10.3 84.6-5.5 122.5 13.4c44.2 22.1 95.5 24.8 141.7 7.4l34.7-13c12.5-4.7 20.8-16.6 20.8-30V66.1c0-23-24.2-38-44.8-27.7l-9.6 4.8c-46.3 23.2-100.8 23.2-147.1 0c-35.1-17.6-75.4-22-113.5-12.5L64 48V352z"/><path class="fa-primary" style="fill:#004a79;" d="M32 0C49.7 0 64 14.3 64 32V480c0 17.7-14.3 32-32 32s-32-14.3-32-32V32C0 14.3 14.3 0 32 0z"/>
</symbol>
<symbol id="arrow-right" viewBox="0 0 448 512">
<path class="fa-secondary" style="fill:#0076c2;" d="M338.7 224L32 224c-17.7 0-32 14.3-32 32s14.3 32 32 32l306.7 0 32-32-32-32z"/><path class="fa-primary" style="fill:#004a79;" d="M438.6 233.4c12.5 12.5 12.5 32.8 0 45.3l-160 160c-12.5 12.5-32.8 12.5-45.3 0s-12.5-32.8 0-45.3L370.7 256 233.4 118.6c-12.5-12.5-12.5-32.8 0-45.3s32.8-12.5 45.3 0l160 160z"/>
</symbol>
<symbol id="handshake-angle" viewBox="0 0 640 512">
<path class="fa-secondary" style="fill:#0076c2;" d="M534.6 260.7c-6 6-14.1 9.4-22.6 9.4h-4.5c2.9-6.8 4.5-14.2 4.5-22.1c0-30.9-25.1-56-56-56H320v64c0 26.5-21.5 48-48 48s-48-21.5-48-48V137.1 128h.6c4.5-36.1 35.3-64 72.6-64H416l.8 0 39.6-39.6c21.9-21.9 57.3-21.9 79.2 0l78.1 78.1c21.9 21.9 21.9 57.3 0 79.2l-79 79z"/><path class="fa-primary" style="fill:#004a79;" d="M218.2 128c-38.4 0-73.1 22.9-88.2 58.2L101 253.7 26.3 328.4c-21.9 21.9-21.9 57.3 0 79.2l78.1 78.1c21.9 21.9 57.3 21.9 79.2 0l37.7-37.7c.9 0 1.8 .1 2.7 .1H384c26.5 0 48-21.5 48-48c0-5.6-1-11-2.7-16H432c26.5 0 48-21.5 48-48c0-12.8-5-24.4-13.2-33c25.8-5 45.2-27.7 45.2-55c0-30.9-25.1-56-56-56H320v64c0 26.5-21.5 48-48 48s-48-21.5-48-48V128h-5.8z"/>
</symbol>
<symbol id="pencil" viewBox="0 0 512 512">
<path class="fa-secondary" style="fill:#0076c2;" d="M492.7 58.2c25 25 25 65.5 0 90.5l-60 60L302.7 78.7l60-60c25-25 65.5-25 90.5 0l39.4 39.4zM315.3 186.7l-144 144c-6.2 6.2-16.4 6.2-22.6 0s-6.2-16.4 0-22.6l144-144c6.2-6.2 16.4-6.2 22.6 0s6.2 16.4 0 22.6z"/><path class="fa-primary" style="fill:#004a79;" d="M432.7 208.7L302.7 78.7 58.6 322.9c-10.4 10.4-18 23.3-22.2 37.4L1 480.7c-2.5 8.4-.2 17.5 6.1 23.7s15.3 8.5 23.7 6.1l120.3-35.4c14.1-4.2 27-11.8 37.4-22.2L432.7 208.7zM89.3 360.5l22.7-9.1v32c0 8.8 7.2 16 16 16h32l-9.1 22.7c-4 3.1-8.5 5.4-13.3 6.9L59.4 452l23-78.1c1.4-4.9 3.8-9.4 6.9-13.3zm226-196.4c6.2 6.2 6.2 16.4 0 22.6l-144 144c-6.2 6.2-16.4 6.2-22.6 0s-6.2-16.4 0-22.6l144-144c6.2-6.2 16.4-6.2 22.6 0z"/>
</symbol>
<symbol id="shop" viewBox="0 0 640 512">
<path class="fa-secondary" style="fill:#0076c2;" d="M64 192H96h32H320h64H512h32 32V480c0 17.7-14.3 32-32 32s-32-14.3-32-32V224H384V384v80c0 26.5-21.5 48-48 48H112c-26.5 0-48-21.5-48-48V384 192zm256 32H128V384H320V224z"/><path class="fa-primary" style="fill:#004a79;" d="M603.2 192H36.8C16.5 192 0 175.5 0 155.2c0-7.3 2.2-14.4 6.2-20.4L81.8 21.4C90.7 8 105.6 0 121.7 0H518.3c16.1 0 31 8 39.9 21.4l75.6 113.3c4 6.1 6.2 13.2 6.2 20.4c0 20.3-16.5 36.8-36.8 36.8z"/>
</symbol>
<symbol id="paintbrush-pencil" viewBox="0 0 576 512">
<path class="fa-secondary" style="fill:#0076c2;" d="M164.7 19.3L298.5 153.1 194.4 257.2c-6-.8-12.2-1.2-18.4-1.2c-.8 0-1.7 0-2.5 0L50.7 133.3c-25-25-25-65.5 0-90.5L74.2 19.3c25-25 65.5-25 90.5 0zM384.6 467.1L320 402.5c0-.8 0-1.7 0-2.5c0-6.2-.4-12.4-1.2-18.4L422.9 277.5l75.6 75.6c6.7 6.7 11.6 15.1 14.2 24.2l29.7 104c2.4 8.4 .1 17.4-6.1 23.6s-15.2 8.5-23.6 6.1l-104-29.7c-9.1-2.6-17.5-7.5-24.2-14.2z"/><path class="fa-primary" style="fill:#004a79;" d="M559.6 16.4c21.9 21.9 21.9 57.3 0 79.2L306.9 348.3l-79.2-79.2L480.4 16.4c21.9-21.9 57.3-21.9 79.2 0zM205.1 291.7l79.2 79.2-.1 .1c2.5 9.3 3.8 19 3.8 29c0 61.9-50.1 112-112 112H32c-17.7 0-32-14.3-32-32s14.3-32 32-32h4.8c17.6 0 29.6-18.9 27.8-36.4c-.4-3.8-.6-7.7-.6-11.6c0-61.9 50.1-112 112-112c10 0 19.8 1.3 29 3.8l.1-.1z"/>
</symbol>
<symbol id="car-burst" viewBox="0 0 640 512">
<path class="fa-secondary" style="fill:#0076c2;" d="M160.6 18.8c2.7-6.7 12.2-6.7 14.9 0l26.3 66.6c1.5 3.9 5.8 5.9 9.8 4.7l68.5-21c6.9-2.1 12.9 5.3 9.3 11.6L266.7 120l-36.3 52.5c-27.4 8.9-49.9 31-57.9 60.9L166.8 255c-1.5 .2-3 .9-4.2 2L110 305.6c-5.3 4.9-13.9 .8-13.4-6.5l5.2-71.4c.3-4.2-2.6-7.9-6.8-8.5L24.2 208.4c-7.2-1.1-9.3-10.4-3.3-14.5L80 153.5c3.4-2.4 4.5-7 2.4-10.6L46.7 80.8c-3.6-6.3 2.3-13.8 9.3-11.6l68.5 21c4 1.2 8.3-.8 9.8-4.7l26.3-66.6zm42.9 222.9c1.5-5.6 3.8-10.8 6.7-15.4c-2.9 4.7-5.2 9.8-6.7 15.4l0 0z"/><path class="fa-primary" style="fill:#004a79;" d="M350.4 167.8l-32.2 46.6 201.5 54L515 212c-.5-6.7-5.3-12.4-11.8-14.2L367.7 161.5c-6.5-1.8-13.5 .8-17.3 6.4zM249.8 200.7l47.9-69.3c19.2-27.8 53.9-40.5 86.5-31.8L519.8 136c32.7 8.8 56.3 37.1 59 70.8l6.8 84c17.2 13.4 25.6 36.3 19.6 58.7L595 388l-16.6 61.8-8.3 30.9c-4.6 17.1-22.1 27.2-39.2 22.6l-15.5-4.1c-17.1-4.6-27.2-22.1-22.6-39.2l8.3-30.9L253.8 362.9l-8.3 30.9c-4.6 17.1-22.1 27.2-39.2 22.6l-15.5-4.1c-17.1-4.6-27.2-22.1-22.6-39.2l8.3-30.9 16.6-61.8 10.4-38.6c6-22.4 24.7-38 46.3-41zm47.9 91.1a24 24 0 1 0 -46.4-12.4 24 24 0 1 0 46.4 12.4zm217.9 83.2A24 24 0 1 0 528 328.7a24 24 0 1 0 -12.4 46.4z"/>
</symbol>
<symbol id="credit-card" viewBox="0 0 576 512">
<path class="fa-secondary" style="fill:#0076c2;" d="M64 32C28.7 32 0 60.7 0 96v32H576V96c0-35.3-28.7-64-64-64H64zM576 224H0V416c0 35.3 28.7 64 64 64H512c35.3 0 64-28.7 64-64V224zM112 352h64c8.8 0 16 7.2 16 16s-7.2 16-16 16H112c-8.8 0-16-7.2-16-16s7.2-16 16-16zm112 16c0-8.8 7.2-16 16-16H368c8.8 0 16 7.2 16 16s-7.2 16-16 16H240c-8.8 0-16-7.2-16-16z"/><path class="fa-primary" style="fill:#004a79;" d="M576 224H0V128H576v96z"/>
</symbol>
<symbol id="address-card" viewBox="0 0 576 512">
<path class="fa-secondary" style="fill:#0076c2;" d="M64 32C28.7 32 0 60.7 0 96V416c0 35.3 28.7 64 64 64H512c35.3 0 64-28.7 64-64V96c0-35.3-28.7-64-64-64H64zm80 256h64c44.2 0 80 35.8 80 80c0 8.8-7.2 16-16 16H80c-8.8 0-16-7.2-16-16c0-44.2 35.8-80 80-80zm-32-96a64 64 0 1 1 128 0 64 64 0 1 1 -128 0zm256-32H496c8.8 0 16 7.2 16 16s-7.2 16-16 16H368c-8.8 0-16-7.2-16-16s7.2-16 16-16zm0 64H496c8.8 0 16 7.2 16 16s-7.2 16-16 16H368c-8.8 0-16-7.2-16-16s7.2-16 16-16zm0 64H496c8.8 0 16 7.2 16 16s-7.2 16-16 16H368c-8.8 0-16-7.2-16-16s7.2-16 16-16z"/><path class="fa-primary" style="fill:#004a79;" d="M176 256a64 64 0 1 0 0-128 64 64 0 1 0 0 128zm-32 32c-44.2 0-80 35.8-80 80c0 8.8 7.2 16 16 16H272c8.8 0 16-7.2 16-16c0-44.2-35.8-80-80-80H144z"/>
</symbol>
<symbol id="bicycle" viewBox="0 0 640 512">
<path class="fa-secondary" style="fill:#0076c2;" d="M431.1 252.8C402.4 276.3 384 312 384 352c0 70.7 57.3 128 128 128s128-57.3 128-128s-57.3-128-128-128c-13.5 0-26.5 2.1-38.7 6l27.5 50.9c3.6-.6 7.4-.9 11.2-.9c39.8 0 72 32.2 72 72s-32.2 72-72 72s-72-32.2-72-72c0-18.6 7-35.5 18.6-48.3l-27.5-50.9zM128 224C57.3 224 0 281.3 0 352s57.3 128 128 128c65.3 0 119.1-48.9 127-112H198.2c-7.3 32.1-36 56-70.2 56c-39.8 0-72-32.2-72-72s32.2-72 72-72c1.7 0 3.4 .1 5.1 .2l26.2-52.3c-10-2.5-20.5-3.8-31.2-3.8z"/><path class="fa-primary" style="fill:#004a79;" d="M312 32c-13.3 0-24 10.7-24 24s10.7 24 24 24h25.7l34.6 64H222.9l-27.4-38C191 99.7 183.7 96 176 96H120c-13.3 0-24 10.7-24 24s10.7 24 24 24h43.7l22.1 30.7-77 153.9c-9 18.1 4.1 39.4 24.3 39.4H304c8.5 0 16.3-4.5 20.7-11.8l84.8-143.5 81.4 150.7c6.3 11.7 20.9 16 32.5 9.7s16-20.9 9.7-32.5L375.4 48.8C369.8 38.4 359 32 347.2 32H312zM166.8 320l50.7-101.3 72.9 101.2-.1 .1H166.8zm90.6-128H365.9L317 274.8 257.4 192z"/>
</symbol>
<symbol id="coins" viewBox="0 0 512 512">
<path class="fa-secondary" style="fill:#0076c2;" d="M512 80c0 18-14.3 34.6-38.4 48c-29.1 16.1-72.5 27.5-122.3 30.9c-3.7-1.8-7.4-3.5-11.3-5C300.6 137.4 248.2 128 192 128c-8.3 0-16.4 .2-24.5 .6c-.4-.2-.7-.4-1.1-.6C142.3 114.6 128 98 128 80c0-44.2 86-80 192-80S512 35.8 512 80zM416 341.3V278.1c19-4.2 36.5-9.5 52.1-16c16.3-6.8 31.5-15.2 43.9-25.5V272c0 29.6-38.6 55.5-96 69.3zm0-96V240c0-21.9-10.6-39.9-24.1-53.4c28.3-4.4 54.2-11.4 76.2-20.5c16.3-6.8 31.5-15.2 43.9-25.5V176c0 18-14.3 34.6-38.4 48c-1.8 1-3.6 1.9-5.5 2.9c-14.6 7.4-32.2 13.6-52.2 18.4z"/><path class="fa-primary" style="fill:#004a79;" d="M384 240c0 18-14.3 34.6-38.4 48c-35 19.4-90.8 32-153.6 32c-59.6 0-112.9-11.3-148.2-29.1c-1.9-.9-3.7-1.9-5.5-2.9C14.3 274.6 0 258 0 240c0-44.2 86-80 192-80s192 35.8 192 80zM192 352c56.2 0 108.6-9.4 148.1-25.9c16.3-6.8 31.5-15.2 43.9-25.5V336c0 18-14.3 34.6-38.4 48c-1.8 1-3.6 1.9-5.5 2.9C304.9 404.7 251.6 416 192 416c-62.8 0-118.6-12.6-153.6-32C14.3 370.6 0 354 0 336V300.6c12.5 10.3 27.6 18.7 43.9 25.5C83.4 342.6 135.8 352 192 352zm148.1 70.1c16.3-6.8 31.5-15.2 43.9-25.5V432c0 44.2-86 80-192 80S0 476.2 0 432V396.6c12.5 10.3 27.6 18.7 43.9 25.5C83.4 438.6 135.8 448 192 448s108.6-9.4 148.1-25.9z"/>
</symbol>
<symbol id="hand-holding-dollar" viewBox="0 0 576 512">
<path class="fa-secondary" style="fill:#0076c2;" d="M559.7 392.2c17.8-13.1 21.6-38.1 8.5-55.9s-38.1-21.6-55.9-8.5L392.6 416H272c-8.8 0-16-7.2-16-16s7.2-16 16-16h16 64c17.7 0 32-14.3 32-32s-14.3-32-32-32H288 272 193.7c-29.1 0-57.3 9.9-80 28L68.8 384H32c-17.7 0-32 14.3-32 32v64c0 17.7 14.3 32 32 32H192 352.5c29 0 57.3-9.3 80.7-26.5l126.6-93.3zm-366.1-8.3a.5 .5 0 1 1 -.9 .2 .5 .5 0 1 1 .9-.2z"/><path class="fa-primary" style="fill:#004a79;" d="M288 0c13.3 0 24 10.7 24 24V34.5c6.4 1.2 12.6 2.7 18.2 4.2c12.8 3.4 20.4 16.6 17 29.4s-16.6 20.4-29.4 17c-10.9-2.9-21.1-4.9-30.2-5c-7.3-.1-14.7 1.7-19.4 4.4c-2.1 1.3-3.1 2.4-3.5 3c-.3 .5-.7 1.2-.7 2.8c0 .3 0 .5 0 .6c.2 .2 .9 1.2 3.3 2.6c5.8 3.5 14.4 6.2 27.4 10.1l.9 .3 0 0c11.1 3.3 25.9 7.8 37.9 15.3c13.7 8.6 26.1 22.9 26.4 44.9c.3 22.5-11.4 38.9-26.7 48.5c-6.7 4.1-13.9 7-21.3 8.8V232c0 13.3-10.7 24-24 24s-24-10.7-24-24V220.6c-9.5-2.3-18.2-5.3-25.6-7.8c-2.1-.7-4.1-1.4-6-2c-12.6-4.2-19.4-17.8-15.2-30.4s17.8-19.4 30.4-15.2c2.6 .9 5 1.7 7.3 2.5c13.6 4.6 23.4 7.9 33.9 8.3c8 .3 15.1-1.6 19.2-4.1c1.9-1.2 2.8-2.2 3.2-2.9c.4-.6 .9-1.8 .8-4.1l0-.2c0-1 0-2.1-4-4.6c-5.7-3.6-14.3-6.4-27.1-10.3l-1.9-.6c-10.8-3.2-25-7.5-36.4-14.4c-13.5-8.1-26.5-22-26.6-44.1c-.1-22.9 12.9-38.6 27.7-47.4c6.4-3.8 13.3-6.4 20.2-8.2V24c0-13.3 10.7-24 24-24z"/>
</symbol>
<symbol id="file-lines" viewBox="0 0 384 512">
<path class="fa-secondary" style="fill:#0076c2;" d="M0 64C0 28.7 28.7 0 64 0H224V128c0 17.7 14.3 32 32 32H384V448c0 35.3-28.7 64-64 64H64c-35.3 0-64-28.7-64-64V64zM112 256c-8.8 0-16 7.2-16 16s7.2 16 16 16H272c8.8 0 16-7.2 16-16s-7.2-16-16-16H112zm0 64c-8.8 0-16 7.2-16 16s7.2 16 16 16H272c8.8 0 16-7.2 16-16s-7.2-16-16-16H112zm0 64c-8.8 0-16 7.2-16 16s7.2 16 16 16H272c8.8 0 16-7.2 16-16s-7.2-16-16-16H112z"/><path class="fa-primary" style="fill:#004a79;" d="M384 160L224 0V128c0 17.7 14.3 32 32 32H384zM112 256c-8.8 0-16 7.2-16 16s7.2 16 16 16H272c8.8 0 16-7.2 16-16s-7.2-16-16-16H112zm0 64c-8.8 0-16 7.2-16 16s7.2 16 16 16H272c8.8 0 16-7.2 16-16s-7.2-16-16-16H112zm0 64c-8.8 0-16 7.2-16 16s7.2 16 16 16H272c8.8 0 16-7.2 16-16s-7.2-16-16-16H112z"/>
</symbol>
<symbol id="briefcase" viewBox="0 0 512 512">
<path class="fa-secondary" style="fill:#0076c2;" d="M192 288H0V416c0 35.3 28.7 64 64 64H448c35.3 0 64-28.7 64-64V288H320v32c0 17.7-14.3 32-32 32H224c-17.7 0-32-14.3-32-32V288z"/><path class="fa-primary" style="fill:#004a79;" d="M384 96h80c25.6 0 48 22.4 48 48V288H0V144c0-25.6 22.4-48 48-48h80V56 48c0-25.6 22.4-48 48-48h8H328h8c25.6 0 48 22.4 48 48v8V96zm-48 0V56c0-4.4-3.6-8-8-8H184c-4.4 0-8 3.6-8 8V96H336z"/>
</symbol>
<symbol id="right-to-bracket" viewBox="0 0 512 512">
<path class="fa-secondary" style="fill:#0076c2;" d="M320 64c0 17.7 14.3 32 32 32l64 0c17.7 0 32 14.3 32 32l0 256c0 17.7-14.3 32-32 32l-64 0c-17.7 0-32 14.3-32 32s14.3 32 32 32l64 0c53 0 96-43 96-96l0-256c0-53-43-96-96-96l-64 0c-17.7 0-32 14.3-32 32z"/><path class="fa-primary" style="fill:#004a79;" d="M340.7 228.7L217.9 105.9c-6.4-6.4-15-9.9-24-9.9c-18.7 0-33.9 15.2-33.9 33.9l0 62.1L32 192c-17.7 0-32 14.3-32 32l0 64c0 17.7 14.3 32 32 32l128 0 0 62.1c0 18.7 15.2 33.9 33.9 33.9c9 0 17.6-3.6 24-9.9L340.7 283.3c7.2-7.2 11.3-17.1 11.3-27.3s-4.1-20.1-11.3-27.3z"/>
</symbol>
<symbol id="user-helmet-safety" viewBox="0 0 448 512">
<path class="fa-secondary" style="fill:#0076c2;" d="M97 176c-.7 5.2-1 10.6-1 16c0 70.7 57.3 128 128 128s128-57.3 128-128c0-5.4-.3-10.8-1-16H97z"/><path class="fa-primary" style="fill:#004a79;" d="M216 0c-13.3 0-24 10.7-24 24V80L163.6 23.1C125.6 43.5 99 82.6 96.2 128H96c-13.3 0-24 10.7-24 24s10.7 24 24 24H352c13.3 0 24-10.7 24-24s-10.7-24-24-24h-.2C349 82.6 322.4 43.5 284.4 23.1L256 80V24c0-13.3-10.7-24-24-24H216zM134.4 352C60.2 352 0 412.2 0 486.4C0 500.5 11.5 512 25.6 512H422.4c14.1 0 25.6-11.5 25.6-25.6C448 412.2 387.8 352 313.6 352H134.4z"/>
</symbol>
<symbol id="umbrella" viewBox="0 0 576 512">
<path class="fa-secondary" style="fill:#0076c2;" d="M256 278.7c9.8-4.3 20.6-6.7 32-6.7s22.2 2.4 32 6.7V430.6c0 45-36.5 81.4-81.4 81.4c-30.8 0-59-17.4-72.8-45l-2.3-4.7c-7.9-15.8-1.5-35 14.3-42.9s35-1.5 42.9 14.3l2.3 4.7c3 5.9 9 9.6 15.6 9.6c9.6 0 17.4-7.8 17.4-17.4V278.7z"/><path class="fa-primary" style="fill:#004a79;" d="M320 32c0-17.7-14.3-32-32-32s-32 14.3-32 32V49.7C124.2 63.4 18.3 161 2.1 285.9c-2 15.6 17.3 24.4 27.8 12.7C43.9 283 71.2 272 96 272c38.7 0 71 27.5 78.4 64.1c1.7 8.7 8.7 15.9 17.6 15.9s15.8-7.2 17.6-15.9C217 299.5 249.3 272 288 272s71 27.5 78.4 64.1c1.7 8.7 8.7 15.9 17.6 15.9s15.8-7.2 17.6-15.9C409 299.5 441.3 272 480 272c24.8 0 52.1 11 66.1 26.7c10.5 11.7 29.8 2.9 27.8-12.7C557.7 161 451.8 63.4 320 49.7V32z"/>
</symbol>
<symbol id="shirt" viewBox="0 0 640 512">
<path class="fa-secondary" style="fill:#0076c2;" d="M320 112c61.9 0 112-50.1 112-112h8.8c22.5 0 44.2 7.9 61.5 22.3L628.5 127.4c6.6 5.5 10.7 13.5 11.4 22.1s-2.1 17.1-7.8 23.6l-56 64c-11.4 13.1-31.2 14.6-44.6 3.5L480 197.7V448c0 35.3-28.7 64-64 64H224c-35.3 0-64-28.7-64-64V197.7l-51.5 42.9c-13.3 11.1-33.1 9.6-44.6-3.5l-56-64c-5.7-6.5-8.5-15-7.8-23.6s4.8-16.6 11.4-22.1L137.7 22.3C155 7.9 176.7 0 199.2 0H208c0 61.9 50.1 112 112 112z"/><path class="fa-primary" style="fill:#004a79;" d="M208 0c0 61.9 50.1 112 112 112s112-50.1 112-112H400c0 44.2-35.8 80-80 80s-80-35.8-80-80H208z"/>
</symbol>
<symbol id="user-ninja" viewBox="0 0 448 512">
<path class="fa-secondary" style="fill:#0076c2;" d="M144 112c0-8.8 7.2-16 16-16H288c8.8 0 16 7.2 16 16s-7.2 16-16 16H160c-8.8 0-16-7.2-16-16z"/><path class="fa-primary" style="fill:#004a79;" d="M224 256c-57.2 0-105.6-37.5-122-89.3c-1.1 1.3-2.2 2.6-3.5 3.8c-15.8 15.8-38.8 20.7-53.6 22.1c-8.1 .8-14.6-5.7-13.8-13.8c1.4-14.7 6.3-37.8 22.1-53.6c5.8-5.8 12.6-10.1 19.6-13.4c-7-3.2-13.8-7.6-19.6-13.4C37.4 82.7 32.6 59.7 31.1 44.9c-.8-8.1 5.7-14.6 13.8-13.8c14.7 1.4 37.8 6.3 53.6 22.1c4.8 4.8 8.7 10.4 11.7 16.1C131.4 28.2 174.4 0 224 0c70.7 0 128 57.3 128 128s-57.3 128-128 128zM0 482.3C0 399.5 56.4 330 132.8 309.9c6-1.6 12.2 .9 15.9 5.8l62.5 83.3c6.4 8.5 19.2 8.5 25.6 0l62.5-83.3c3.7-4.9 9.9-7.4 15.9-5.8C391.6 330 448 399.5 448 482.3c0 16.4-13.3 29.7-29.7 29.7H29.7C13.3 512 0 498.7 0 482.3zM160 96c-8.8 0-16 7.2-16 16s7.2 16 16 16H288c8.8 0 16-7.2 16-16s-7.2-16-16-16H160z"/>
</symbol>
<symbol id="car-wrench" viewBox="0 0 512 512">
<path class="fa-secondary" style="fill:#0076c2;" d="M163.8 112c-6.4 0-12 3.8-15.3 9.3C134.5 144.5 109.1 160 80 160c-28.1 0-52.8-14.5-67.1-36.4C7 114.6 14.7 104 25.5 104H56c13.3 0 24-10.7 24-24s-10.7-24-24-24H25.5C14.7 56 7 45.4 12.9 36.4C27.2 14.5 51.9 0 80 0c29.1 0 54.5 15.5 68.5 38.7c3.3 5.4 8.9 9.3 15.3 9.3H348.2c6.4 0 12-3.8 15.3-9.3C377.5 15.5 402.9 0 432 0c28.1 0 52.8 14.5 67.1 36.4c5.9 9-1.7 19.6-12.5 19.6H456c-13.3 0-24 10.7-24 24s10.7 24 24 24h30.5c10.8 0 18.4 10.6 12.5 19.6c-14.3 21.9-39 36.4-67.1 36.4c-29.1 0-54.5-15.5-68.5-38.7c-3.3-5.4-8.9-9.3-15.3-9.3H163.8z"/><path class="fa-primary" style="fill:#004a79;" d="M170.8 234.6L151.7 288H360.3l-19.1-53.4c-2.3-6.4-8.3-10.6-15.1-10.6H185.8c-6.8 0-12.8 4.3-15.1 10.6zM82.2 292.4l28.3-79.3C121.9 181.3 152 160 185.8 160H326.2c33.8 0 64 21.3 75.3 53.1l28.3 79.3c20.1 8.5 34.2 28.4 34.2 51.6v40 64 32c0 17.7-14.3 32-32 32H416c-17.7 0-32-14.3-32-32V448H128v32c0 17.7-14.3 32-32 32H80c-17.7 0-32-14.3-32-32V448 384 344c0-23.2 14.1-43.1 34.2-51.6zM152 368a24 24 0 1 0 -48 0 24 24 0 1 0 48 0zm232 24a24 24 0 1 0 0-48 24 24 0 1 0 0 48z"/>
</symbol>
<symbol id="apartment" viewBox="0 0 576 512">
<path class="fa-secondary" style="fill:#0076c2;" d="M176 0c-26.5 0-48 21.5-48 48V96H48C21.5 96 0 117.5 0 144V464c0 26.5 21.5 48 48 48h80 32 96V416c0-17.7 14.3-32 32-32s32 14.3 32 32v96h96 32 80c26.5 0 48-21.5 48-48V240c0-26.5-21.5-48-48-48H448V48c0-26.5-21.5-48-48-48H176zM368 320H336c-8.8 0-16-7.2-16-16V272c0-8.8 7.2-16 16-16h32c8.8 0 16 7.2 16 16v32c0 8.8-7.2 16-16 16zm144 80c0 8.8-7.2 16-16 16H464c-8.8 0-16-7.2-16-16V368c0-8.8 7.2-16 16-16h32c8.8 0 16 7.2 16 16v32zM112 320H80c-8.8 0-16-7.2-16-16V272c0-8.8 7.2-16 16-16h32c8.8 0 16 7.2 16 16v32c0 8.8-7.2 16-16 16zm16 80c0 8.8-7.2 16-16 16H80c-8.8 0-16-7.2-16-16V368c0-8.8 7.2-16 16-16h32c8.8 0 16 7.2 16 16v32zm112-80H208c-8.8 0-16-7.2-16-16V272c0-8.8 7.2-16 16-16h32c8.8 0 16 7.2 16 16v32c0 8.8-7.2 16-16 16zM384 80v32c0 8.8-7.2 16-16 16H336c-8.8 0-16-7.2-16-16V80c0-8.8 7.2-16 16-16h32c8.8 0 16 7.2 16 16zM240 64c8.8 0 16 7.2 16 16v32c0 8.8-7.2 16-16 16H208c-8.8 0-16-7.2-16-16V80c0-8.8 7.2-16 16-16h32zM384 208c0 8.8-7.2 16-16 16H336c-8.8 0-16-7.2-16-16V176c0-8.8 7.2-16 16-16h32c8.8 0 16 7.2 16 16v32zM496 320H464c-8.8 0-16-7.2-16-16V272c0-8.8 7.2-16 16-16h32c8.8 0 16 7.2 16 16v32c0 8.8-7.2 16-16 16zM128 208c0 8.8-7.2 16-16 16H80c-8.8 0-16-7.2-16-16V176c0-8.8 7.2-16 16-16h32c8.8 0 16 7.2 16 16v32zm112 16H208c-8.8 0-16-7.2-16-16V176c0-8.8 7.2-16 16-16h32c8.8 0 16 7.2 16 16v32c0 8.8-7.2 16-16 16z"/><path class="fa-primary" style="fill:#004a79;" d="M384 80c0-8.8-7.2-16-16-16H336c-8.8 0-16 7.2-16 16v32c0 8.8 7.2 16 16 16h32c8.8 0 16-7.2 16-16V80zM112 320c8.8 0 16-7.2 16-16V272c0-8.8-7.2-16-16-16H80c-8.8 0-16 7.2-16 16v32c0 8.8 7.2 16 16 16h32zm272-16V272c0-8.8-7.2-16-16-16H336c-8.8 0-16 7.2-16 16v32c0 8.8 7.2 16 16 16h32c8.8 0 16-7.2 16-16zm128 96V368c0-8.8-7.2-16-16-16H464c-8.8 0-16 7.2-16 16v32c0 8.8 7.2 16 16 16h32c8.8 0 16-7.2 16-16zm-384 0V368c0-8.8-7.2-16-16-16H80c-8.8 0-16 7.2-16 16v32c0 8.8 7.2 16 16 16h32c8.8 0 16-7.2 16-16zm112-80c8.8 0 16-7.2 16-16V272c0-8.8-7.2-16-16-16H208c-8.8 0-16 7.2-16 16v32c0 8.8 7.2 16 16 16h32zm0-256H208c-8.8 0-16 7.2-16 16v32c0 8.8 7.2 16 16 16h32c8.8 0 16-7.2 16-16V80c0-8.8-7.2-16-16-16zM384 208V176c0-8.8-7.2-16-16-16H336c-8.8 0-16 7.2-16 16v32c0 8.8 7.2 16 16 16h32c8.8 0 16-7.2 16-16zM496 320c8.8 0 16-7.2 16-16V272c0-8.8-7.2-16-16-16H464c-8.8 0-16 7.2-16 16v32c0 8.8 7.2 16 16 16h32zM128 208V176c0-8.8-7.2-16-16-16H80c-8.8 0-16 7.2-16 16v32c0 8.8 7.2 16 16 16h32c8.8 0 16-7.2 16-16zm112 16c8.8 0 16-7.2 16-16V176c0-8.8-7.2-16-16-16H208c-8.8 0-16 7.2-16 16v32c0 8.8 7.2 16 16 16h32z"/>
</symbol>
<symbol id="screwdriver-wrench" viewBox="0 0 512 512">
<path class="fa-secondary" style="fill:#0076c2;" d="M168.4 247.6L19.9 396.1C7.2 408.8 0 426.1 0 444.1C0 481.6 30.4 512 67.9 512c18 0 35.3-7.2 48-19.9L233.7 374.3c-7.8-20.9-9-43.6-3.6-65.1l-61.7-61.7zM429 274.5c49-23 83-72.8 83-130.5c0-10.5-1.1-20.7-3.2-30.5c-2.4-11.2-16.1-14.1-24.2-6l-63.9 63.9c-3 3-7.1 4.7-11.3 4.7H352c-8.8 0-16-7.2-16-16V102.6c0-4.2 1.7-8.3 4.7-11.3l63.9-63.9c8.1-8.1 5.2-21.8-6-24.2C388.7 1.1 378.5 0 368 0C288.5 0 224 64.5 224 144c0 .3 0 .5 0 .8l85.3 85.3c36-9.1 75.8 .5 104 28.7L429 274.5zM80 408a24 24 0 1 1 0 48 24 24 0 1 1 0-48z"/><path class="fa-primary" style="fill:#004a79;" d="M47 7c8.5-8.5 22-9.4 31.6-2.1l104 80c5.9 4.5 9.4 11.6 9.4 19v54.1l109 109c29-14.7 65.4-10 89.6 14.3l112 112c12.5 12.5 12.5 32.8 0 45.3l-64 64c-12.5 12.5-32.8 12.5-45.3 0l-112-112c-24.2-24.2-29-60.6-14.3-89.6l-109-109H104c-7.5 0-14.5-3.5-19-9.4L5 78.6C-2.4 69.1-1.5 55.6 7 47L47 7z"/>
</symbol>
<symbol id="chart-network" viewBox="0 0 640 512">
<path class="fa-secondary" style="fill:#0076c2;" d="M276.4 100.7C264.9 117.2 245.7 128 224 128c-1.9 0-3.7-.1-5.6-.2l29.2 62.5C221.8 210.4 203 239 195.6 272H119.4c5.4 9.4 8.6 20.3 8.6 32s-3.1 22.6-8.6 32h76.1c14.6 64.1 71.9 112 140.4 112c40.8 0 77.7-17 103.9-44.3L512 446.9c.4-23.6 13.6-44.1 32.9-54.9l-72-43.2c4.6-14.1 7.1-29.2 7.1-44.8c0-20.3-4.2-39.7-11.8-57.2l82-60.2c-20.5-9-35.3-28.5-37.8-51.6l-82.1 60.2C405 173.3 372.1 160 336 160c-10.4 0-20.6 1.1-30.4 3.2l-29.2-62.5zM336 256a48 48 0 1 1 0 96 48 48 0 1 1 0-96z"/><path class="fa-primary" style="fill:#004a79;" d="M224 128A64 64 0 1 0 224 0a64 64 0 1 0 0 128zm352 64a64 64 0 1 0 0-128 64 64 0 1 0 0 128zm64 256a64 64 0 1 0 -128 0 64 64 0 1 0 128 0zM64 368a64 64 0 1 0 0-128 64 64 0 1 0 0 128z"/>
</symbol>
<symbol id="scale-balanced" viewBox="0 0 640 512">
<path class="fa-secondary" style="fill:#0076c2;" d="M384 32H512c17.7 0 32 14.3 32 32s-14.3 32-32 32H398.4c-5.2 25.8-22.9 47.1-46.4 57.3V448H512c17.7 0 32 14.3 32 32s-14.3 32-32 32H320 128c-17.7 0-32-14.3-32-32s14.3-32 32-32H288V153.3c-23.5-10.3-41.2-31.6-46.4-57.3H128c-17.7 0-32-14.3-32-32s14.3-32 32-32H256c14.6-19.4 37.8-32 64-32s49.4 12.6 64 32z"/><path class="fa-primary" style="fill:#004a79;" d="M126.8 195.8L199.3 320H54.4l72.4-124.2zM.9 337.1C11.7 382 64 416 126.8 416s115.2-34 126-78.9c2.6-11-1-22.3-6.7-32.1L150.9 141.8c-5-8.6-14.2-13.8-24.1-13.8s-19.1 5.3-24.1 13.8L7.6 305.1c-5.7 9.8-9.3 21.1-6.7 32.1zM512 195.8L584.4 320H439.6L512 195.8zM386 337.1C396.8 382 449.1 416 512 416s115.2-34 126-78.9c2.6-11-1-22.3-6.7-32.1L536.1 141.8c-5-8.6-14.2-13.8-24.1-13.8s-19.1 5.3-24.1 13.8L392.7 305.1c-5.7 9.8-9.3 21.1-6.7 32.1z"/>
</symbol>
<symbol id="truck" viewBox="0 0 640 512">
<path class="fa-secondary" style="fill:#0076c2;" d="M176 512a80 80 0 1 0 0-160 80 80 0 1 0 0 160zm288 0a80 80 0 1 0 0-160 80 80 0 1 0 0 160z"/><path class="fa-primary" style="fill:#004a79;" d="M48 0C21.5 0 0 21.5 0 48V368c0 26.5 21.5 48 48 48H65.1c7.8-54.3 54.4-96 110.9-96s103.1 41.7 110.9 96h66.3c7.8-54.3 54.4-96 110.9-96s103.1 41.7 110.9 96H576h32c17.7 0 32-14.3 32-32s-14.3-32-32-32V288 256 237.3c0-17-6.7-33.3-18.7-45.3L512 114.7c-12-12-28.3-18.7-45.3-18.7H416V48c0-26.5-21.5-48-48-48H48zM416 160h50.7L544 237.3V256H416V160z"/>
</symbol>
<symbol id="warehouse-full" viewBox="0 0 640 512">
<path class="fa-secondary" style="fill:#0076c2;" d="M128 248c0-13.3 10.7-24 24-24H296c13.3 0 24 10.7 24 24v80c0 13.3-10.7 24-24 24H152c-13.3 0-24-10.7-24-24V248zM352 408c0-13.3 10.7-24 24-24H488c13.3 0 24 10.7 24 24v80c0 13.3-10.7 24-24 24H376c-13.3 0-24-10.7-24-24V408zM152 384H296c13.3 0 24 10.7 24 24v80c0 13.3-10.7 24-24 24H152c-13.3 0-24-10.7-24-24V408c0-13.3 10.7-24 24-24z"/><path class="fa-primary" style="fill:#004a79;" d="M0 171.3V488c0 13.3 10.7 24 24 24H72c13.3 0 24-10.7 24-24V224c0-17.7 14.3-32 32-32H512c17.7 0 32 14.3 32 32V488c0 13.3 10.7 24 24 24h48c13.3 0 24-10.7 24-24V171.3c0-26.2-15.9-49.7-40.2-59.4L331.9 4.8c-7.6-3.1-16.1-3.1-23.8 0L40.2 111.9C15.9 121.6 0 145.2 0 171.3z"/>
</symbol>
<symbol id="person-dolly" viewBox="0 0 512 512">
<path class="fa-secondary" style="fill:#0076c2;" d="M247.3 186.2c-3.2-12.9-16.2-20.7-29.1-17.5s-20.7 16.2-17.5 29.1l49.6 198.4c-16 11.6-26.3 30.5-26.3 51.7c0 35.3 28.7 64 64 64c32.3 0 59.1-24 63.4-55.1l134.4-33.6c12.9-3.2 20.7-16.2 17.5-29.1s-16.2-20.7-29.1-17.5L339.7 410.3c-10-13.7-25.3-23.3-42.8-25.7L247.3 186.2zM272 448a16 16 0 1 1 32 0 16 16 0 1 1 -32 0zm85.4-71.8L449 353.4c17.1-4.3 27.6-21.7 23.3-38.8L449.4 223c-4.3-17.1-21.7-27.6-38.8-23.3L319 222.6c-17.1 4.3-27.6 21.7-23.3 38.8L318.6 353c4.3 17.1 21.7 27.6 38.8 23.3z"/><path class="fa-primary" style="fill:#004a79;" d="M80 96A48 48 0 1 0 80 0a48 48 0 1 0 0 96zM96 306.7V241.7l16.6 24.9c8.9 13.4 23.9 21.4 39.9 21.4h70.7l-16-64H161.1l-42.6-64c-13.3-20-35.8-32-59.9-32C26.2 128 0 154.2 0 186.6v88.1c0 17 6.7 33.3 18.7 45.3l79.4 79.4 14.3 85.9c2.9 17.4 19.4 29.2 36.8 26.3s29.2-19.4 26.3-36.8l-15.2-90.9c-1.6-9.9-6.3-19-13.4-26.1l-51-51zM0 346.5L0 480c0 17.7 14.3 32 32 32s32-14.3 32-32v0V410.5l-64-64z"/>
</symbol>
<symbol id="gavel" viewBox="0 0 512 512">
<path class="fa-secondary" style="fill:#0076c2;" d="M249.4 217.4L168 298.7l-1.4-1.4c-12.5-12.5-32.8-12.5-45.3 0l-112 112c-12.5 12.5-12.5 32.8 0 45.3l48 48c12.5 12.5 32.8 12.5 45.3 0l112-112c12.5-12.5 12.5-32.8 0-45.3l-1.4-1.4 81.4-81.4-45.3-45.3z"/><path class="fa-primary" style="fill:#004a79;" d="M273.4 9.4c12.5-12.5 32.8-12.5 45.3 0l16 16c12.5 12.5 12.5 32.8 0 45.3l-4 4L437.4 181.4l4-4c12.5-12.5 32.8-12.5 45.3 0l16 16c12.5 12.5 12.5 32.8 0 45.3l-120 120c-12.5 12.5-32.8 12.5-45.3 0l-16-16c-12.5-12.5-12.5-32.8 0-45.3l4-4L218.6 186.6l-4 4c-12.5 12.5-32.8 12.5-45.3 0l-16-16c-12.5-12.5-12.5-32.8 0-45.3l120-120z"/>
</symbol>
<symbol id="chart-line-down" viewBox="0 0 512 512">
<path class="fa-secondary" style="fill:#0076c2;" d="M32 32c17.7 0 32 14.3 32 32V400c0 8.8 7.2 16 16 16H480c17.7 0 32 14.3 32 32s-14.3 32-32 32H80c-44.2 0-80-35.8-80-80V64C0 46.3 14.3 32 32 32z"/><path class="fa-primary" style="fill:#004a79;" d="M326.6 121.4c-12.5-12.5-32.8-12.5-45.3 0L208 194.7l-57.4-57.4c-12.5-12.5-32.8-12.5-45.3 0s-12.5 32.8 0 45.3l80 80c12.5 12.5 32.8 12.5 45.3 0L304 189.3l57.4 57.4L329 279c-15.1 15.1-4.4 41 17 41H456c13.3 0 24-10.7 24-24V185.9c0-21.4-25.9-32.1-41-17l-32.4 32.4-80-80z"/>
</symbol>
<symbol id="people-robbery" viewBox="0 0 576 512">
<path class="fa-secondary" style="fill:#0076c2;" d="M400 128c41.7 0 78.1-28.4 88.2-68.9L497 24.2C501.2 7.1 518.6-3.3 535.8 1s27.6 21.7 23.3 38.8l-8.7 34.9c-11 44-40.2 79.6-78.3 99.6V480c0 17.7-14.3 32-32 32s-32-14.3-32-32V352H392V480c0 17.7-14.3 32-32 32s-32-14.3-32-32V174.3c-38.1-20-67.3-55.7-78.3-99.6L241 39.8C236.7 22.6 247.1 5.2 264.2 1s34.5 6.1 38.8 23.3l8.7 34.9C321.9 99.6 358.3 128 400 128zM352 48a48 48 0 1 1 96 0 48 48 0 1 1 -96 0z"/><path class="fa-primary" style="fill:#004a79;" d="M32 48a48 48 0 1 1 96 0A48 48 0 1 1 32 48zM8 192c0-35.3 28.7-64 64-64h32.7c27.4 0 52.9 14 67.5 37.1L209.6 224H240c17.7 0 32 14.3 32 32s-14.3 32-32 32H192c-11 0-21.1-5.6-27-14.9l-13-20.5V480c0 17.7-14.3 32-32 32s-32-14.3-32-32V352H72V480c0 17.7-14.3 32-32 32s-32-14.3-32-32V288.6l0-.6V192z"/>
</symbol>
<symbol id="triangle-exclamation" viewBox="0 0 512 512">
<path class="fa-secondary" style="fill:#0076c2;" d="M256 32c14.2 0 27.3 7.5 34.5 19.8l216 368c7.3 12.4 7.3 27.7 .2 40.1S486.3 480 472 480H40c-14.3 0-27.6-7.7-34.7-20.1s-7-27.8 .2-40.1l216-368C228.7 39.5 241.8 32 256 32zm0 128c-13.3 0-24 10.7-24 24V296c0 13.3 10.7 24 24 24s24-10.7 24-24V184c0-13.3-10.7-24-24-24zm32 224a32 32 0 1 0 -64 0 32 32 0 1 0 64 0z"/><path class="fa-primary" style="fill:#004a79;" d="M280 184c0-13.3-10.7-24-24-24s-24 10.7-24 24V296c0 13.3 10.7 24 24 24s24-10.7 24-24V184zM256 416a32 32 0 1 0 0-64 32 32 0 1 0 0 64z"/>
</symbol>
<symbol id="snowflake-droplets" viewBox="0 0 640 512">
<path class="fa-secondary" style="fill:#0076c2;" d="M320 0c17.7 0 32 14.3 32 32V62.1l15-15c9.4-9.4 24.6-9.4 33.9 0s9.4 24.6 0 33.9l-49 49v70.3l61.4-35.8 17.7-66.1c3.4-12.8 16.6-20.4 29.4-17s20.4 16.6 17 29.4l-5.2 19.3 23.6-13.8c15.3-8.9 34.9-3.7 43.8 11.5s3.7 34.9-11.5 43.8l-25.3 14.8 21.7 5.8c12.8 3.4 20.4 16.6 17 29.4s-16.6 20.4-29.4 17l-67.7-18.1L383.5 256l60.9 35.5 67.7-18.1c12.8-3.4 26 4.2 29.4 17s-4.2 26-17 29.4l-21.7 5.8 21.5 12.6-29.3 57-22.7-13.2 5.2 19.3c3.4 12.8-4.2 26-17 29.4s-26-4.2-29.4-17l-17.7-66.1L352 311.7v70.3l49 49c9.4 9.4 9.4 24.6 0 33.9s-24.6 9.4-33.9 0l-15-15V480c0 17.7-14.3 32-32 32s-32-14.3-32-32V449.9l-15 15c-9.4 9.4-24.6 9.4-33.9 0s-9.4-24.6 0-33.9l49-49V311.7l-61.4 35.8-17.7 66.1c-3.4 12.8-16.6 20.4-29.4 17s-20.4-16.6-17-29.4l5.2-19.3L145 395.1l-29.3-57 21.5-12.6-21.7-5.8c-12.8-3.4-20.4-16.6-17-29.4s16.6-20.4 29.4-17l67.7 18.1L256.5 256l-60.9-35.5-67.7 18.1c-12.8 3.4-26-4.2-29.4-17s4.2-26 17-29.4l21.7-5.8-25.3-14.8c-15.3-8.9-20.4-28.5-11.5-43.8s28.5-20.4 43.8-11.5l23.6 13.8-5.2-19.3c-3.4-12.8 4.2-26 17-29.4s26 4.2 29.4 17l17.7 66.1L288 200.3V129.9L239 81c-9.4-9.4-9.4-24.6 0-33.9s24.6-9.4 33.9 0l15 15V32c0-17.7 14.3-32 32-32z"/><path class="fa-primary" style="fill:#004a79;" d="M54.7 325.7L7.1 418.1C2.4 427.2 0 437.4 0 447.7C0 483 28.7 512 64 512s64-29 64-64.3c0-10.2-2.4-20.4-7.1-29.5L73.3 325.7c-1.8-3.5-5.4-5.7-9.3-5.7s-7.5 2.2-9.3 5.7zm512 0l-47.5 92.4c-4.7 9.1-7.1 19.3-7.1 29.5c0 35.3 28.7 64.3 64 64.3s64-29 64-64.3c0-10.2-2.4-20.4-7.1-29.5l-47.5-92.4c-1.8-3.5-5.4-5.7-9.3-5.7s-7.5 2.2-9.3 5.7z"/>
</symbol>
<symbol id="cloud-showers-heavy" viewBox="0 0 512 512">
<path class="fa-secondary" style="fill:#0076c2;" d="M1.9 478.5c-5.2 12.2 .4 26.3 12.6 31.5s26.3-.4 31.5-12.6l48-112c5.2-12.2-.4-26.3-12.6-31.5c-3.1-1.3-6.3-1.9-9.4-1.9c-9.3 0-18.2 5.5-22.1 14.6l-48 112zm120 0c-5.2 12.2 .4 26.3 12.6 31.5s26.3-.4 31.5-12.6l48-112c5.2-12.2-.4-26.3-12.6-31.5c-3.1-1.3-6.3-1.9-9.4-1.9c-9.3 0-18.2 5.5-22.1 14.6l-48 112zm112 0c-5.2 12.2 .4 26.3 12.6 31.5s26.3-.4 31.5-12.6l48-112c5.2-12.2-.4-26.3-12.6-31.5c-3.1-1.3-6.3-1.9-9.4-1.9c-9.3 0-18.2 5.5-22.1 14.6l-48 112zm120 0c-5.2 12.2 .4 26.3 12.6 31.5s26.3-.4 31.5-12.6l48-112c1.3-3.1 1.9-6.3 1.9-9.4c0-9.3-5.5-18.2-14.6-22.1c-3.1-1.3-6.3-1.9-9.4-1.9c-9.3 0-18.2 5.5-22.1 14.6l-48 112z"/><path class="fa-primary" style="fill:#004a79;" d="M0 224c0 53 43 96 96 96l320 0c53 0 96-43 96-96s-43-96-96-96c-.5 0-1.1 0-1.6 0c1.1-5.2 1.6-10.5 1.6-16c0-44.2-35.8-80-80-80c-24.3 0-46.1 10.9-60.8 28C256.5 24.3 219.1 0 176 0C114.1 0 64 50.1 64 112c0 7.1 .7 14.1 1.9 20.8C27.6 145.4 0 181.5 0 224z"/>
</symbol>
<symbol id="hand-holding-heart" viewBox="0 0 576 512">
<path class="fa-secondary" style="fill:#0076c2;" d="M0 416l0 64c0 17.7 14.3 32 32 32l160 0 160.5 0c29 0 57.3-9.3 80.7-26.5l126.6-93.3c10.6-7.8 16.3-20 16.3-32.2c0-8.2-2.5-16.6-7.8-23.7c-13.1-17.8-38.1-21.6-55.9-8.5L392.6 416 272 416c-8.8 0-16-7.2-16-16s7.2-16 16-16l16 0 64 0c17.7 0 32-14.3 32-32s-14.3-32-32-32l-64 0-16 0-78.3 0c-29.1 0-57.3 9.9-80 28L68.8 384 32 384c-17.7 0-32 14.3-32 32z"/><path class="fa-primary" style="fill:#004a79;" d="M163.9 28.9c-29.4 29.8-29.4 78.2 0 108L265.5 240.1c6.2 6.3 14.3 9.4 22.5 9.4s16.3-3.1 22.5-9.4L412.1 136.9c29.4-29.8 29.4-78.2 0-108s-77-29.8-106.4 0L288 46.9l-17.7-18c-29.4-29.8-77-29.8-106.4 0z"/>
</symbol>
</svg>
