<?xml version="1.0" encoding="UTF-8"?>
<svg xmlns="http://www.w3.org/2000/svg" style="display: none;">
<symbol id="droplet" viewBox="0 0 384 512">
<path d="M192 480c-88.4 0-160-71.6-160-160c0-16.2 6.1-39.2 18.3-67.5c11.9-27.6 28.5-57.5 46.6-86.8c35.9-58 76.4-110.9 94.5-133.7h1.3c18.1 22.9 58.6 75.7 94.5 133.7c18.1 29.2 34.6 59.1 46.6 86.8C345.9 280.8 352 303.8 352 320c0 88.4-71.6 160-160 160zM0 320C0 426 86 512 192 512s192-86 192-192c0-91.2-130.2-262.3-166.6-308.3C211.4 4.2 202.5 0 192.9 0h-1.8c-9.6 0-18.5 4.2-24.5 11.7C130.2 57.7 0 228.8 0 320zm112 0c0-8.8-7.2-16-16-16s-16 7.2-16 16c0 61.9 50.1 112 112 112c8.8 0 16-7.2 16-16s-7.2-16-16-16c-44.2 0-80-35.8-80-80z"/>
</symbol>
<symbol id="laptop-mobile" viewBox="0 0 640 512">
<path d="M128 32H448c17.7 0 32 14.3 32 32V96h32V64c0-35.3-28.7-64-64-64H128C92.7 0 64 28.7 64 64V288H19.2C8.6 288 0 296.6 0 307.2C0 349.6 34.4 384 76.8 384H352V352H76.8c-20.3 0-37.4-13.5-42.9-32H64 96 352V288H96V64c0-17.7 14.3-32 32-32zM416 176c0-8.8 7.2-16 16-16H592c8.8 0 16 7.2 16 16V464c0 8.8-7.2 16-16 16H432c-8.8 0-16-7.2-16-16V176zm-32 0V464c0 26.5 21.5 48 48 48H592c26.5 0 48-21.5 48-48V176c0-26.5-21.5-48-48-48H432c-26.5 0-48 21.5-48 48z"/>
</symbol>
<symbol id="circle-user" viewBox="0 0 512 512">
<path d="M412.1 416.6C398.1 361.1 347.9 320 288 320H224c-59.9 0-110.1 41.1-124.1 96.6C58 375.9 32 319 32 256C32 132.3 132.3 32 256 32s224 100.3 224 224c0 63-26 119.9-67.9 160.6zm-28.5 23.4C347.5 465.2 303.5 480 256 480s-91.5-14.8-127.7-39.9c4-49.3 45.3-88.1 95.7-88.1h64c50.4 0 91.6 38.8 95.7 88.1zM256 512A256 256 0 1 0 256 0a256 256 0 1 0 0 512zm0-256a48 48 0 1 1 0-96 48 48 0 1 1 0 96zm-80-48a80 80 0 1 0 160 0 80 80 0 1 0 -160 0z"/>
</symbol>
<symbol id="snowflake" viewBox="0 0 448 512">
<path d="M240 16c0-8.8-7.2-16-16-16s-16 7.2-16 16V89.4L171.3 52.7c-6.2-6.2-16.4-6.2-22.6 0s-6.2 16.4 0 22.6L208 134.6v93.7l-81.1-46.8-21.7-81c-2.3-8.5-11.1-13.6-19.6-11.3S72 100.2 74.3 108.7l13.4 50.1L24.2 122.1c-7.7-4.4-17.4-1.8-21.9 5.9s-1.8 17.4 5.9 21.9l63.5 36.7L21.6 200C13 202.3 8 211 10.3 219.6s11.1 13.6 19.6 11.3l81-21.7L192 256l-81.1 46.8-81-21.7c-8.5-2.3-17.3 2.8-19.6 11.3S13 309.7 21.6 312l50.1 13.4L8.2 362.1C.5 366.6-2.1 376.3 2.3 384s14.2 10.3 21.9 5.9l63.5-36.7L74.3 403.3c-2.3 8.5 2.8 17.3 11.3 19.6s17.3-2.8 19.6-11.3l21.7-81L208 283.7v93.7l-59.3 59.3c-6.2 6.2-6.2 16.4 0 22.6s16.4 6.2 22.6 0L208 422.6V496c0 8.8 7.2 16 16 16s16-7.2 16-16V422.6l36.7 36.7c6.2 6.2 16.4 6.2 22.6 0s6.2-16.4 0-22.6L240 377.4V283.7l81.1 46.8 21.7 81c2.3 8.5 11.1 13.6 19.6 11.3s13.6-11.1 11.3-19.6l-13.4-50.1 63.5 36.7c7.7 4.4 17.4 1.8 21.9-5.9s1.8-17.4-5.9-21.9l-63.5-36.7L426.4 312c8.5-2.3 13.6-11.1 11.3-19.6s-11.1-13.6-19.6-11.3l-81 21.7L256 256l81.1-46.8 81 21.7c8.5 2.3 17.3-2.8 19.6-11.3s-2.8-17.3-11.3-19.6l-50.1-13.4 63.5-36.7c7.7-4.4 10.3-14.2 5.9-21.9s-14.2-10.3-21.9-5.9l-63.5 36.7 13.4-50.1c2.3-8.5-2.8-17.3-11.3-19.6s-17.3 2.8-19.6 11.3l-21.7 81L240 228.3V134.6l59.3-59.3c6.2-6.2 6.2-16.4 0-22.6s-16.4-6.2-22.6 0L240 89.4V16z"/>
</symbol>
<symbol id="bed" viewBox="0 0 640 512">
<path d="M32 48c0-8.8-7.2-16-16-16S0 39.2 0 48V336v64 64c0 8.8 7.2 16 16 16s16-7.2 16-16V416H608v48c0 8.8 7.2 16 16 16s16-7.2 16-16V400 336 240c0-61.9-50.1-112-112-112H304c-26.5 0-48 21.5-48 48V320H32V48zM608 384H32V352H272 608v32zm0-144v80H288V176c0-8.8 7.2-16 16-16H528c44.2 0 80 35.8 80 80zM96 208a48 48 0 1 1 96 0 48 48 0 1 1 -96 0zm128 0A80 80 0 1 0 64 208a80 80 0 1 0 160 0z"/>
</symbol>
<symbol id="building" viewBox="0 0 384 512">
<path d="M64 32C46.3 32 32 46.3 32 64V448c0 17.7 14.3 32 32 32h64V416c0-35.3 28.7-64 64-64s64 28.7 64 64v64h64c17.7 0 32-14.3 32-32V64c0-17.7-14.3-32-32-32H64zM224 416c0-17.7-14.3-32-32-32s-32 14.3-32 32v64h64V416zm-96 96H64c-35.3 0-64-28.7-64-64V64C0 28.7 28.7 0 64 0H320c35.3 0 64 28.7 64 64V448c0 35.3-28.7 64-64 64H256 224 160 128zM64 120c0-13.3 10.7-24 24-24h48c13.3 0 24 10.7 24 24v48c0 13.3-10.7 24-24 24H88c-13.3 0-24-10.7-24-24V120zm32 8v32h32V128H96zM248 96h48c13.3 0 24 10.7 24 24v48c0 13.3-10.7 24-24 24H248c-13.3 0-24-10.7-24-24V120c0-13.3 10.7-24 24-24zm8 64h32V128H256v32zM64 248c0-13.3 10.7-24 24-24h48c13.3 0 24 10.7 24 24v48c0 13.3-10.7 24-24 24H88c-13.3 0-24-10.7-24-24V248zm32 8v32h32V256H96zm152-32h48c13.3 0 24 10.7 24 24v48c0 13.3-10.7 24-24 24H248c-13.3 0-24-10.7-24-24V248c0-13.3 10.7-24 24-24zm8 64h32V256H256v32z"/>
</symbol>
<symbol id="circle-plus" viewBox="0 0 512 512">
<path d="M256 32a224 224 0 1 1 0 448 224 224 0 1 1 0-448zm0 480A256 256 0 1 0 256 0a256 256 0 1 0 0 512zM240 352c0 8.8 7.2 16 16 16s16-7.2 16-16V272h80c8.8 0 16-7.2 16-16s-7.2-16-16-16H272V160c0-8.8-7.2-16-16-16s-16 7.2-16 16v80H160c-8.8 0-16 7.2-16 16s7.2 16 16 16h80v80z"/>
</symbol>
<symbol id="chevron-left" viewBox="0 0 320 512">
<path d="M20.7 267.3c-6.2-6.2-6.2-16.4 0-22.6l192-192c6.2-6.2 16.4-6.2 22.6 0s6.2 16.4 0 22.6L54.6 256 235.3 436.7c6.2 6.2 6.2 16.4 0 22.6s-16.4 6.2-22.6 0l-192-192z"/>
</symbol>
<symbol id="cloud-showers-heavy" viewBox="0 0 512 512">
<path d="M96 112c0-44.2 35.8-80 80-80c32.2 0 59.9 19 72.6 46.4c2.2 4.8 6.6 8.1 11.8 9s10.4-.8 14.1-4.5c11.6-11.7 27.7-19 45.5-19c35.3 0 64 28.7 64 64l0 .3c0 4.5 1.9 8.8 5.2 11.8s7.8 4.5 12.2 4.1c2.2-.2 4.3-.3 6.6-.3c39.8 0 72 32.2 72 72s-32.2 72-72 72H104c-39.8 0-72-32.2-72-72c0-33.5 22.9-61.7 53.9-69.7c8.2-2.1 13.3-10.3 11.7-18.6c-1-5.1-1.5-10.3-1.5-15.7zM512 216c0-55.2-43-100.3-97.3-103.8C407.2 66.7 367.6 32 320 32c-19.3 0-37.3 5.7-52.4 15.5C247.3 18.8 213.9 0 176 0C114.1 0 64 50.1 64 112c0 2.6 .1 5.3 .3 7.9C26.6 135.5 0 172.6 0 216c0 57.4 46.6 104 104 104H408c57.4 0 104-46.6 104-104zM94.3 375.2c4-7.9 .7-17.5-7.2-21.5s-17.5-.7-21.5 7.2l-64 128c-4 7.9-.7 17.5 7.2 21.5s17.5 .7 21.5-7.2l64-128zm120 0c4-7.9 .7-17.5-7.2-21.5s-17.5-.7-21.5 7.2l-64 128c-4 7.9-.7 17.5 7.2 21.5s17.5 .7 21.5-7.2l64-128zm112 0c4-7.9 .7-17.5-7.2-21.5s-17.5-.7-21.5 7.2l-64 128c-4 7.9-.7 17.5 7.2 21.5s17.5 .7 21.5-7.2l64-128zm120 0c4-7.9 .7-17.5-7.2-21.5s-17.5-.7-21.5 7.2l-64 128c-4 7.9-.7 17.5 7.2 21.5s17.5 .7 21.5-7.2l64-128z"/>
</symbol>
<symbol id="phone-flip" viewBox="0 0 512 512">
<path d="M136.2 275.2c16.4-7 35.4-2.4 46.7 11.4l33.2 40.6c46-26.7 84.4-65.1 111.1-111.1L286.7 183c-13.8-11.3-18.5-30.3-11.4-46.7l48-112C330.8 6.7 349.7-3.1 368.4 .9l112 24C498.8 28.8 512 45.1 512 64v0c0 236.7-183.5 430.5-416 446.9c-4.5 .3-9.1 .6-13.7 .8c0 0 0 0 0 0c0 0-.1 0-.1 0c-6.1 .2-12.1 .4-18.3 .4l0 0c-18.9 0-35.2-13.2-39.1-31.6l-24-112c-4-18.7 5.8-37.6 23.4-45.1l112-48zM64.3 480C293.9 479.8 480 293.7 480 64v0 0 0 0 0 0 0 0 0 0 0 0 0 0 0 0 0 0 0 0 0 0 0 0c0-3.8-2.6-7-6.3-7.8l-112-24c-3.7-.8-7.5 1.2-9 4.7l-48 112c-1.4 3.3-.5 7.1 2.3 9.3l40.6 33.2c12.1 9.9 15.3 27.2 7.4 40.8c-29.5 50.9-71.9 93.3-122.7 122.7c-13.6 7.9-30.9 4.7-40.8-7.4l-33.2-40.6c-2.3-2.8-6.1-3.7-9.3-2.3l-112 48c-3.5 1.5-5.5 5.3-4.7 9l24 112c.8 3.7 4 6.3 7.8 6.3c.1 0 .2 0 .3 0z"/>
</symbol>
<symbol id="arrows-rotate" viewBox="0 0 512 512">
<path d="M69.4 210.6C89.8 126.5 165.6 64 256 64c71.1 0 133.1 38.6 166.3 96H368c-8.8 0-16 7.2-16 16s7.2 16 16 16h80.7H464c8.8 0 16-7.2 16-16V80c0-8.8-7.2-16-16-16s-16 7.2-16 16v60.6C408.8 75.5 337.5 32 256 32C149.6 32 60.5 106.2 37.7 205.6C35.5 215.2 43.1 224 53 224c7.9 0 14.6-5.7 16.5-13.4zm373.2 90.9C422.2 385.5 346.4 448 256 448c-71.1 0-133.1-38.6-166.3-96h54.5c8.8 0 16-7.2 16-16s-7.2-16-16-16H63.3 48.2c-8.8 0-16 7.2-16 16v96c0 8.8 7.2 16 16 16s16-7.2 16-16V371.8C103.4 436.6 174.7 480 256 480c106.4 0 195.5-74.2 218.3-173.6c2.2-9.6-5.4-18.4-15.3-18.4c-7.9 0-14.6 5.7-16.5 13.4z"/>
</symbol>
<symbol id="circle-question" viewBox="0 0 512 512">
<path d="M480 256A224 224 0 1 0 32 256a224 224 0 1 0 448 0zM0 256a256 256 0 1 1 512 0A256 256 0 1 1 0 256zm168.7-86.2c6.5-24.6 28.7-41.8 54.2-41.8H280c35.5 0 64 29 64 64.3c0 24-13.4 46.2-34.9 57.2L272 268.3V288c0 8.8-7.2 16-16 16s-16-7.2-16-16V258.5c0-6 3.4-11.5 8.7-14.3l45.8-23.4c10.7-5.4 17.5-16.6 17.5-28.7c0-17.8-14.4-32.3-32-32.3H222.9c-10.9 0-20.5 7.4-23.2 17.9l-.2 .7c-2.2 8.5-11 13.7-19.5 11.4s-13.7-11-11.4-19.5l.2-.7zM232 352a24 24 0 1 1 48 0 24 24 0 1 1 -48 0z"/>
</symbol>
<symbol id="circle-chevron-right" viewBox="0 0 512 512">
<path d="M480 256A224 224 0 1 1 32 256a224 224 0 1 1 448 0zM0 256a256 256 0 1 0 512 0A256 256 0 1 0 0 256zM235.3 379.3l112-112c6.2-6.2 6.2-16.4 0-22.6l-112-112c-6.2-6.2-16.4-6.2-22.6 0s-6.2 16.4 0 22.6L313.4 256 212.7 356.7c-6.2 6.2-6.2 16.4 0 22.6s16.4 6.2 22.6 0z"/>
</symbol>
<symbol id="circle-exclamation" viewBox="0 0 512 512">
<path d="M256 32a224 224 0 1 1 0 448 224 224 0 1 1 0-448zm0 480A256 256 0 1 0 256 0a256 256 0 1 0 0 512zm0-384c-8.8 0-16 7.2-16 16V272c0 8.8 7.2 16 16 16s16-7.2 16-16V144c0-8.8-7.2-16-16-16zm24 224a24 24 0 1 0 -48 0 24 24 0 1 0 48 0z"/>
</symbol>
<symbol id="chevron-right" viewBox="0 0 320 512">
<path d="M299.3 244.7c6.2 6.2 6.2 16.4 0 22.6l-192 192c-6.2 6.2-16.4 6.2-22.6 0s-6.2-16.4 0-22.6L265.4 256 84.7 75.3c-6.2-6.2-6.2-16.4 0-22.6s16.4-6.2 22.6 0l192 192z"/>
</symbol>
<symbol id="circle" viewBox="0 0 512 512">
<path d="M256 32a224 224 0 1 1 0 448 224 224 0 1 1 0-448zm0 480A256 256 0 1 0 256 0a256 256 0 1 0 0 512z"/>
</symbol>
<symbol id="ear" viewBox="0 0 384 512">
<path d="M352 192c0-88.4-71.6-160-160-160S32 103.6 32 192V368c0 61.9 50.1 112 112 112s112-50.1 112-112c0-16.4 8.2-32.2 22.5-41.4C322.8 298.1 352 248.5 352 192zm32 0c0 67.8-35.1 127.4-88.2 161.5c-4.9 3.2-7.8 8.6-7.8 14.5c0 79.5-64.5 144-144 144S0 447.5 0 368V192C0 86 86 0 192 0S384 86 384 192zm-272 0v6.3c0 10.7 5.3 20.7 14.2 26.6l8.9 5.9c15.5 10.4 24.9 27.8 24.9 46.5c0 16.6-7.4 32.3-20.1 42.9l-33.7 28c-6.8 5.7-16.9 4.7-22.5-2s-4.7-16.9 2-22.5l33.7-28c5.4-4.5 8.6-11.2 8.6-18.3c0-8-4-15.4-10.6-19.9l-8.9-5.9C90.7 239.7 80 219.7 80 198.3V192c0-61.9 50.1-112 112-112s112 50.1 112 112v16c0 8.8-7.2 16-16 16s-16-7.2-16-16V192c0-44.2-35.8-80-80-80s-80 35.8-80 80z"/>
</symbol>
<symbol id="user" viewBox="0 0 448 512">
<path d="M320 128a96 96 0 1 0 -192 0 96 96 0 1 0 192 0zM96 128a128 128 0 1 1 256 0A128 128 0 1 1 96 128zM32 480H416c-1.2-79.7-66.2-144-146.3-144H178.3c-80 0-145 64.3-146.3 144zM0 482.3C0 383.8 79.8 304 178.3 304h91.4C368.2 304 448 383.8 448 482.3c0 16.4-13.3 29.7-29.7 29.7H29.7C13.3 512 0 498.7 0 482.3z"/>
</symbol>
<symbol id="file-lines" viewBox="0 0 384 512">
<path d="M320 480H64c-17.7 0-32-14.3-32-32V64c0-17.7 14.3-32 32-32H192V144c0 26.5 21.5 48 48 48H352V448c0 17.7-14.3 32-32 32zM240 160c-8.8 0-16-7.2-16-16V32.5c2.8 .7 5.4 2.1 7.4 4.2L347.3 152.6c2.1 2.1 3.5 4.6 4.2 7.4H240zM64 0C28.7 0 0 28.7 0 64V448c0 35.3 28.7 64 64 64H320c35.3 0 64-28.7 64-64V163.9c0-12.7-5.1-24.9-14.1-33.9L254.1 14.1c-9-9-21.2-14.1-33.9-14.1H64zm48 256c-8.8 0-16 7.2-16 16s7.2 16 16 16H272c8.8 0 16-7.2 16-16s-7.2-16-16-16H112zm0 64c-8.8 0-16 7.2-16 16s7.2 16 16 16H272c8.8 0 16-7.2 16-16s-7.2-16-16-16H112zm0 64c-8.8 0-16 7.2-16 16s7.2 16 16 16H272c8.8 0 16-7.2 16-16s-7.2-16-16-16H112z"/>
</symbol>
<symbol id="magnifying-glass" viewBox="0 0 512 512">
<path d="M384 208A176 176 0 1 0 32 208a176 176 0 1 0 352 0zM343.3 366C307 397.2 259.7 416 208 416C93.1 416 0 322.9 0 208S93.1 0 208 0S416 93.1 416 208c0 51.7-18.8 99-50 135.3L507.3 484.7c6.2 6.2 6.2 16.4 0 22.6s-16.4 6.2-22.6 0L343.3 366z"/>
</symbol>
<symbol id="cars" viewBox="0 0 640 512">
<path d="M124.2 32H259.8c14.3 0 26.8 9.5 30.8 23.2L306.8 112c-.9 0-1.9 0-2.8 0H80c-.9 0-1.9 0-2.8 0L93.4 55.2C97.4 41.5 109.9 32 124.2 32zM62.7 46.4L41 122.1C16.6 135.8 0 162 0 192v48 16 32 32c0 8.8 7.2 16 16 16s16-7.2 16-16V288H257.6c3.7-3.7 7.7-7.1 11.9-10.2l6.2-21.8H32V240 192c0-26.5 21.5-48 48-48H304c11.8 0 22.6 4.3 31 11.3c10.3-5.5 21.6-9.2 33.6-10.6c-6.8-9.2-15.5-17-25.6-22.6L321.3 46.4C313.5 18.9 288.4 0 259.8 0H124.2C95.6 0 70.5 18.9 62.7 46.4zM80 224a24 24 0 1 0 0-48 24 24 0 1 0 0 48zm300.2-16H515.8c14.3 0 26.8 9.5 30.8 23.2L562.8 288c-.9 0-1.9 0-2.8 0H336c-.9 0-1.9 0-2.8 0l16.2-56.8c3.9-13.7 16.5-23.2 30.8-23.2zm-61.5 14.4L297 298.1c-24.5 13.7-41 39.9-41 69.9v48 16 32 32c0 8.8 7.2 16 16 16s16-7.2 16-16V464H608v32c0 8.8 7.2 16 16 16s16-7.2 16-16V464 432 416 368c0-30-16.6-56.2-41-69.9l-21.6-75.7c-7.8-27.5-33-46.4-61.5-46.4H380.2c-28.6 0-53.7 18.9-61.5 46.4zM608 416v16H288V416 368c0-26.5 21.5-48 48-48H560c26.5 0 48 21.5 48 48v48zM336 400a24 24 0 1 0 0-48 24 24 0 1 0 0 48zm248-24a24 24 0 1 0 -48 0 24 24 0 1 0 48 0z"/>
</symbol>
<symbol id="kiwi-bird" viewBox="0 0 576 512">
<path d="M192 384c33.9 0 65.3-10.5 91.2-28.5c33.7-23.4 78.2-51.5 130.4-51.5H464c44.2 0 80-35.8 80-80s-35.8-80-80-80H413.6c-52.2 0-96.7-28.1-130.4-51.5C257.3 74.5 225.9 64 192 64C103.6 64 32 135.6 32 224s71.6 160 160 160zm311.3-55.1L544 402.3V302.4c-11.4 11.6-25.2 20.7-40.7 26.5zM546 471.8l-75.5-136c-2.1 .1-4.3 .2-6.5 .2H413.6c-41.2 0-78.3 22.3-112.1 45.8c-13.9 9.7-29.2 17.5-45.4 23.3V464c0 8.8-7.2 16-16 16s-16-7.2-16-16V413.3c-10.4 1.7-21.1 2.7-32 2.7c-22.4 0-44-3.8-64-10.9V464c0 8.8-7.2 16-16 16s-16-7.2-16-16V390.3C38.6 357.1 0 295.1 0 224C0 118 86 32 192 32c40.7 0 78.4 12.6 109.4 34.2c33.8 23.5 71 45.8 112.1 45.8H464c61.9 0 112 50.1 112 112V464c0 7.3-4.9 13.7-12 15.5s-14.5-1.3-18-7.7zM448 200a24 24 0 1 1 0 48 24 24 0 1 1 0-48z"/>
</symbol>
<symbol id="scale-balanced" viewBox="0 0 640 512">
<path d="M384 64c0 29.8-20.4 54.9-48 62V480H528c8.8 0 16 7.2 16 16s-7.2 16-16 16H320 112c-8.8 0-16-7.2-16-16s7.2-16 16-16H304V126c-27.6-7.1-48-32.2-48-62H112c-8.8 0-16-7.2-16-16s7.2-16 16-16H264.6C275.6 12.9 296.3 0 320 0s44.4 12.9 55.4 32H512c8.8 0 16 7.2 16 16s-7.2 16-16 16H384zm56.7 298.3C457.8 375.1 482.9 384 512 384s54.2-8.9 71.3-21.7C600.4 349.5 608 334.2 608 320H416v-1.6l0 .1V320c0 14.2 7.6 29.5 24.7 42.3zm71.3-215L426.3 288H597.7L512 147.3zM384 320v-1.6c0-14.7 4-29.1 11.7-41.6l92-151.2c5.2-8.5 14.4-13.7 24.3-13.7s19.2 5.2 24.3 13.7l92 151.2c7.6 12.5 11.7 26.9 11.7 41.6V320c0 53-57.3 96-128 96s-128-43-128-96zM32 320c0 14.2 7.6 29.5 24.7 42.3C73.8 375.1 98.9 384 128 384s54.2-8.9 71.3-21.7C216.4 349.5 224 334.2 224 320H32v-1.6l0 .1V320zm10.3-32H213.7L128 147.3 42.3 288zM128 416C57.3 416 0 373 0 320v-1.6c0-14.7 4-29.1 11.7-41.6l92-151.2c5.2-8.5 14.4-13.7 24.3-13.7s19.2 5.2 24.3 13.7l92 151.2c7.6 12.5 11.7 26.9 11.7 41.6V320c0 53-57.3 96-128 96zM320 96a32 32 0 1 0 0-64 32 32 0 1 0 0 64z"/>
</symbol>
<symbol id="circle-1" viewBox="0 0 512 512">
<path d="M480 256A224 224 0 1 0 32 256a224 224 0 1 0 448 0zM0 256a256 256 0 1 1 512 0A256 256 0 1 1 0 256zM264 130.2c4.9 2.9 8 8.1 8 13.8V352h48c8.8 0 16 7.2 16 16s-7.2 16-16 16H256 192c-8.8 0-16-7.2-16-16s7.2-16 16-16h48V171.6l-32.1 18.3c-7.7 4.4-17.4 1.7-21.8-6s-1.7-17.4 6-21.8l56-32c5-2.8 11-2.8 16 .1z"/>
</symbol>
<symbol id="hand-holding-dollar" viewBox="0 0 576 512">
<path d="M304 24V41.3c8.5 1.2 16.7 3.1 24.1 5.1c8.5 2.3 13.6 11 11.3 19.6s-11 13.6-19.6 11.3c-11.1-3-22-5.2-32.1-5.3c-8.4-.1-17.3 1.8-23.6 5.5c-5.7 3.4-8.1 7.3-8.1 12.8c0 3.7 1.3 6.5 7.3 10.1c6.9 4.1 16.6 7.1 29.2 10.9l.5 .1 0 0c11.3 3.4 25.3 7.6 36.3 14.6c12.1 7.6 22.4 19.7 22.7 38.2c.3 19.3-9.6 33.3-22.9 41.6c-7.7 4.8-16.4 7.6-25.1 9.1V232c0 8.8-7.2 16-16 16s-16-7.2-16-16V214.2c-11.2-2.1-21.7-5.7-30.9-8.9c-2.1-.7-4.2-1.4-6.2-2.1c-8.4-2.8-12.9-11.9-10.1-20.2s11.9-12.9 20.2-10.1c2.5 .8 4.8 1.6 7.1 2.4l0 0 0 0c13.6 4.6 24.6 8.4 36.3 8.7c9.1 .3 17.9-1.7 23.7-5.3c5.1-3.2 7.9-7.3 7.8-14c-.1-4.6-1.8-7.8-7.7-11.6c-6.8-4.3-16.5-7.4-29-11.2l-1.6-.5 0 0c-11-3.3-24.3-7.3-34.8-13.7c-12-7.2-22.6-18.9-22.7-37.3C224 71.1 234.9 57.7 247.9 50c7.5-4.4 15.8-7.2 24.1-8.7V24c0-8.8 7.2-16 16-16s16 7.2 16 16zM151 317.4c13.1-8.8 28.6-13.4 44.4-13.4H344c30.9 0 56 25.1 56 56c0 8.6-1.9 16.7-5.4 24h5.6l94.7-56.4c8.3-4.9 17.8-7.6 27.5-7.6h1.3c28.9 0 52.3 23.4 52.3 52.3c0 17.7-9 34.2-23.8 43.8L432.6 493.9c-18.2 11.8-39.4 18.1-61 18.1H16c-8.8 0-16-7.2-16-16s7.2-16 16-16H371.5c15.5 0 30.6-4.5 43.6-12.9l119.6-77.8c5.8-3.7 9.2-10.2 9.2-17c0-11.2-9.1-20.3-20.3-20.3h-1.3c-3.9 0-7.7 1.1-11.1 3l-98.5 58.7c-2.5 1.5-5.3 2.3-8.2 2.3H344 320 256c-8.8 0-16-7.2-16-16s7.2-16 16-16h64 24c13.3 0 24-10.7 24-24s-10.7-24-24-24H195.4c-9.5 0-18.7 2.8-26.6 8.1L88.9 397.3c-2.6 1.8-5.7 2.7-8.9 2.7H16c-8.8 0-16-7.2-16-16s7.2-16 16-16H75.2L151 317.4z"/>
</symbol>
<symbol id="life-ring" viewBox="0 0 512 512">
<path d="M402.7 425.3C363.4 459.4 312.1 480 256 480s-107.4-20.6-146.7-54.7l91.1-91C216.1 345.4 235.3 352 256 352s39.9-6.6 55.6-17.7l91.1 91zm22.6-22.6l-91-91.1C345.4 295.9 352 276.7 352 256s-6.6-39.9-17.7-55.6l91-91.1C459.4 148.6 480 199.9 480 256s-20.6 107.4-54.7 146.7zM448 425.4c39.8-45.1 64-104.4 64-169.4s-24.2-124.2-64-169.4l11.3-11.3c6.2-6.2 6.2-16.4 0-22.6s-16.4-6.2-22.6 0L425.4 64C380.2 24.2 320.9 0 256 0S131.8 24.2 86.6 64L75.3 52.7c-6.2-6.2-16.4-6.2-22.6 0s-6.2 16.4 0 22.6L64 86.6C24.2 131.8 0 191.1 0 256s24.2 124.2 64 169.4L52.7 436.7c-6.2 6.2-6.2 16.4 0 22.6s16.4 6.2 22.6 0L86.6 448c45.1 39.8 104.4 64 169.4 64s124.2-24.2 169.4-64l11.3 11.3c6.2 6.2 16.4 6.2 22.6 0s6.2-16.4 0-22.6L448 425.4zM402.7 86.7l-91.1 91.1C295.9 166.6 276.7 160 256 160s-39.9 6.6-55.6 17.7L109.3 86.7C148.6 52.6 199.9 32 256 32s107.4 20.6 146.7 54.7zM177.7 311.6L86.7 402.7C52.6 363.4 32 312.1 32 256s20.6-107.4 54.7-146.7l91.1 91.1C166.6 216.1 160 235.3 160 256s6.6 39.9 17.7 55.6zM192 256a64 64 0 1 1 128 0 64 64 0 1 1 -128 0z"/>
</symbol>
<symbol id="glasses" viewBox="0 0 576 512">
<path d="M116.8 64c-14.4 0-26.9 9.7-30.5 23.6L38.1 274.4c31-12 65-18.4 97.6-18.4c40.1 0 82.2 9.6 118.5 27.3c2.6 1.3 4.9 2.9 7 4.7h53.7c2.1-1.8 4.4-3.4 7-4.7c36.2-17.8 78.4-27.3 118.5-27.3c32.6 0 66.6 6.3 97.6 18.4L489.7 87.6C486.1 73.7 473.6 64 459.2 64c-4.9 0-9.7 1.1-14.1 3.3l-22 11c-7.9 4-17.5 .7-21.5-7.2s-.7-17.5 7.2-21.5l22-11c8.8-4.4 18.5-6.7 28.4-6.7c29 0 54.2 19.6 61.5 47.6l50.7 196.6c3 11.8 4.6 23.8 4.6 36V352c0 .2 0 .3 0 .5V368c0 61.9-50.1 112-112 112H419.7c-59.4 0-108.5-46.4-111.8-105.8L304.4 320H271.6l-3.4 54.2C264.9 433.6 215.8 480 156.3 480H112C50.1 480 0 429.9 0 368V352 312.2 312l0-.2c0-12 1.6-23.9 4.6-35.5L55.3 79.6C62.5 51.6 87.8 32 116.8 32c9.9 0 19.6 2.3 28.4 6.7l22 11c7.9 4 11.1 13.6 7.2 21.5s-13.6 11.1-21.5 7.2l-22-11c-4.4-2.2-9.2-3.3-14.1-3.3zM32 312l0 .2V352v16c0 44.2 35.8 80 80 80h44.3c42.5 0 77.5-33.2 79.9-75.6l0-.2 0 0L240 312l0 0c0 0 0 0 0-.1c-31.8-15.5-69-24-104.3-24c-35.1 0-72.2 8.4-103.7 24zm512 0c-31.4-15.6-68.6-24-103.7-24c-35.3 0-72.5 8.5-104.3 24c0 0 0 0 0 .1l0 0 3.8 60.2 0 0 0 .2c2.4 42.4 37.4 75.6 79.9 75.6H464c44.2 0 80-35.8 80-80V312z"/>
</symbol>
<symbol id="phone" viewBox="0 0 512 512">
<path d="M375.8 275.2c-16.4-7-35.4-2.4-46.7 11.4l-33.2 40.6c-46-26.7-84.4-65.1-111.1-111.1L225.3 183c13.8-11.3 18.5-30.3 11.4-46.7l-48-112C181.2 6.7 162.3-3.1 143.6 .9l-112 24C13.2 28.8 0 45.1 0 64v0C0 300.7 183.5 494.5 416 510.9c4.5 .3 9.1 .6 13.7 .8c0 0 0 0 0 0c0 0 0 0 .1 0c6.1 .2 12.1 .4 18.3 .4l0 0c18.9 0 35.2-13.2 39.1-31.6l24-112c4-18.7-5.8-37.6-23.4-45.1l-112-48zM447.7 480C218.1 479.8 32 293.7 32 64v0 0 0 0 0 0 0 0 0 0 0 0 0 0 0 0 0 0 0 0 0 0 0 0c0-3.8 2.6-7 6.3-7.8l112-24c3.7-.8 7.5 1.2 9 4.7l48 112c1.4 3.3 .5 7.1-2.3 9.3l-40.6 33.2c-12.1 9.9-15.3 27.2-7.4 40.8c29.5 50.9 71.9 93.3 122.7 122.7c13.6 7.9 30.9 4.7 40.8-7.4l33.2-40.6c2.3-2.8 6.1-3.7 9.3-2.3l112 48c3.5 1.5 5.5 5.3 4.7 9l-24 112c-.8 3.7-4.1 6.3-7.8 6.3c-.1 0-.2 0-.3 0z"/>
</symbol>
<symbol id="map" viewBox="0 0 576 512">
<path d="M170.1 33.1c3.3-1.3 6.9-1.5 10.3-.5L399.1 95.1l144-57.6c15.8-6.3 32.9 5.3 32.9 22.3V394.6c0 9.8-6 18.6-15.1 22.3l-155 62c-3.3 1.3-6.9 1.5-10.3 .5L176.9 416.9l-144 57.6C17.1 480.8 0 469.2 0 452.2V117.4c0-9.8 6-18.6 15.1-22.3l155-62zM32 122.8V440.4l128-51.2V71.6L32 122.8zm352 320V124.1L192 69.2V387.9l192 54.9zm32-2.4l128-51.2V71.6L416 122.8V440.4z"/>
</symbol>
<symbol id="window-frame" viewBox="0 0 512 512">
<path d="M240 288V480H64V288H240zm32 192V288H448V480H272zm208 0V64c0-35.3-28.7-64-64-64H96C60.7 0 32 28.7 32 64V480H16c-8.8 0-16 7.2-16 16s7.2 16 16 16H32 64 448h32 16c8.8 0 16-7.2 16-16s-7.2-16-16-16H480zM448 256H272V32H416c17.7 0 32 14.3 32 32V256zM96 32H240V256H64V64c0-17.7 14.3-32 32-32z"/>
</symbol>
<symbol id="triangle-exclamation" viewBox="0 0 512 512">
<path d="M34.5 420.4c-1.6 2.8-2.5 6-2.5 9.3c0 10.2 8.2 18.4 18.4 18.4H461.6c10.2 0 18.4-8.2 18.4-18.4c0-3.3-.9-6.4-2.5-9.3L276.5 75.8C272.2 68.5 264.4 64 256 64s-16.2 4.5-20.5 11.8L34.5 420.4zM6.9 404.2l201-344.6C217.9 42.5 236.2 32 256 32s38.1 10.5 48.1 27.6l201 344.6c4.5 7.7 6.9 16.5 6.9 25.4c0 27.8-22.6 50.4-50.4 50.4H50.4C22.6 480 0 457.4 0 429.6c0-8.9 2.4-17.7 6.9-25.4zM256 160c8.8 0 16 7.2 16 16V304c0 8.8-7.2 16-16 16s-16-7.2-16-16V176c0-8.8 7.2-16 16-16zM232 384a24 24 0 1 1 48 0 24 24 0 1 1 -48 0z"/>
</symbol>
<symbol id="car-burst" viewBox="0 0 640 512">
<path d="M190.5 17.3C187.9 11.6 182.2 8 176 8s-11.9 3.6-14.5 9.3L129.4 87.2 54.7 68.7c-6.1-1.5-12.5 .7-16.3 5.6s-4.6 11.6-1.8 17.2l34.6 68.6L10.3 206.9c-5 3.8-7.2 10.2-5.8 16.2s6.2 10.8 12.3 12.1L92 251l-1.4 76.8c-.1 6.2 3.4 12 9.1 14.7s12.3 1.9 17.1-2.1l25.7-21.3c.3-2.9 .8-5.8 1.6-8.7l11.8-43.9-32.7 27 1-55.3c.1-7.7-5.2-14.4-12.7-15.9L57.4 211.1l43.8-33.7c6.1-4.7 8-13 4.5-19.9L80.9 108.1l53.7 13.3c7.5 1.8 15.2-1.9 18.4-8.9L176 62.3l23.1 50.2c3.2 7 10.9 10.7 18.4 8.9l48.2-11.9 23.2-38.7L222.6 87.2 190.5 17.3zM380.9 86.9l164.4 44c13.8 3.7 23.5 16.1 23.7 30.4l1.3 75.7-264-70.7 38.9-64.9c7.3-12.3 21.9-18.2 35.7-14.5zm-63.2-2l-46.2 77c-32.6 2.9-61.4 25.6-70.3 59L175 318.8c-.3 1.3-.6 2.6-.7 3.8l-.3-.1L159.1 378c-2.7 10 3.2 20.2 13.2 22.9s20.2-3.2 22.9-13.2l9.7-36 360.5 96.6-9.7 36.1c-2.7 10 3.2 20.2 13.2 22.9s20.2-3.2 22.9-13.2l15.4-57.5-.1 0c.2-.6 .4-1.1 .5-1.7l26.2-97.8c8.9-33.4-4.6-67.5-31.4-86.3L601 160.8c-.5-28.6-19.8-53.4-47.4-60.8L389.2 56c-27.6-7.4-56.8 4.4-71.5 28.9zM569 269.8c25.6 6.9 40.8 33.2 33.9 58.8l-24.1 90.1L208 319.3l24.1-90.1c6.9-25.6 33.2-40.8 58.8-33.9l278 74.5zM278.3 294a28 28 0 1 0 14.5-54.1A28 28 0 1 0 278.3 294zm286.6 47.8a28 28 0 1 0 -54.1-14.5 28 28 0 1 0 54.1 14.5z"/>
</symbol>
<symbol id="file" viewBox="0 0 384 512">
<path d="M352 448V192H240c-26.5 0-48-21.5-48-48V32H64C46.3 32 32 46.3 32 64V448c0 17.7 14.3 32 32 32H320c17.7 0 32-14.3 32-32zm-.5-288c-.7-2.8-2.1-5.4-4.2-7.4L231.4 36.7c-2.1-2.1-4.6-3.5-7.4-4.2V144c0 8.8 7.2 16 16 16H351.5zM0 64C0 28.7 28.7 0 64 0H220.1c12.7 0 24.9 5.1 33.9 14.1L369.9 129.9c9 9 14.1 21.2 14.1 33.9V448c0 35.3-28.7 64-64 64H64c-35.3 0-64-28.7-64-64V64z"/>
</symbol>
<symbol id="key" viewBox="0 0 512 512">
<path d="M192 176c0-79.5 64.5-144 144-144s144 64.5 144 144s-64.5 144-144 144c-11.1 0-22-1.3-32.4-3.6c-5.4-1.2-11 .4-14.9 4.3L257.4 352H208c-8.8 0-16 7.2-16 16v48H144c-8.8 0-16 7.2-16 16v48H32V398.6L194.8 235.8c4.2-4.2 5.7-10.5 3.9-16.2c-4.4-13.8-6.7-28.4-6.7-43.7zM336 0C238.8 0 160 78.8 160 176c0 15.1 1.9 29.8 5.5 43.9L4.7 380.7c-3 3-4.7 7.1-4.7 11.3V496c0 8.8 7.2 16 16 16H144c8.8 0 16-7.2 16-16V448h48c8.8 0 16-7.2 16-16V384h40c4.2 0 8.3-1.7 11.3-4.7l30-30c10 1.8 20.2 2.7 30.7 2.7c97.2 0 176-78.8 176-176S433.2 0 336 0zm32 168a24 24 0 1 0 0-48 24 24 0 1 0 0 48z"/>
</symbol>
<symbol id="user-helmet-safety" viewBox="0 0 448 512">
<path d="M176 60.8c-28.7 16.6-48 47.6-48 83.2H320c0-35.5-19.3-66.6-48-83.2V80c0 8.8-7.2 16-16 16s-16-7.2-16-16V32H208V80c0 8.8-7.2 16-16 16s-16-7.2-16-16V60.8zM271.2 25C318.5 43.8 352 90 352 144l16 0c8.8 0 16 7.2 16 16s-7.2 16-16 16H80c-8.8 0-16-7.2-16-16s7.2-16 16-16l16 0c0-54 33.5-100.2 80.8-119C180 10.7 192.7 0 208 0h32c15.3 0 28 10.7 31.2 25zM224 320c-65.3 0-119.1-48.9-127-112h32.3c7.6 45.4 47.1 80 94.7 80s87.1-34.6 94.7-80H351c-7.9 63.1-61.7 112-127 112zM415.8 480c-3.3-53.6-47.8-96-102.2-96H134.4C80 384 35.5 426.4 32.2 480H415.8zM0 486.4C0 412.2 60.2 352 134.4 352H224h89.6C387.8 352 448 412.2 448 486.4c0 14.1-11.5 25.6-25.6 25.6H25.6C11.5 512 0 500.5 0 486.4z"/>
</symbol>
<symbol id="plus" viewBox="0 0 448 512">
<path d="M240 64c0-8.8-7.2-16-16-16s-16 7.2-16 16V240H32c-8.8 0-16 7.2-16 16s7.2 16 16 16H208V448c0 8.8 7.2 16 16 16s16-7.2 16-16V272H416c8.8 0 16-7.2 16-16s-7.2-16-16-16H240V64z"/>
</symbol>
<symbol id="bars" viewBox="0 0 448 512">
<path d="M0 80c0-8.8 7.2-16 16-16H432c8.8 0 16 7.2 16 16s-7.2 16-16 16H16C7.2 96 0 88.8 0 80zM0 240c0-8.8 7.2-16 16-16H432c8.8 0 16 7.2 16 16s-7.2 16-16 16H16c-8.8 0-16-7.2-16-16zM448 400c0 8.8-7.2 16-16 16H16c-8.8 0-16-7.2-16-16s7.2-16 16-16H432c8.8 0 16 7.2 16 16z"/>
</symbol>
<symbol id="truck-tow" viewBox="0 0 640 512">
<path d="M96 64V176c0 26.5-21.5 48-48 48s-48-21.5-48-48V160c0-8.8 7.2-16 16-16s16 7.2 16 16v16c0 8.8 7.2 16 16 16s16-7.2 16-16V32C64 20.2 70.4 9.8 80 4.3C84.7 1.6 90.2 0 96 0h3.8 45.9c9.1 0 17.8 3.9 23.9 10.7L384 252V144c0-26.5 21.5-48 48-48h56.5c19.8 0 38.4 9.1 50.5 24.7l90.8 116.8c6.6 8.4 10.1 18.8 10.1 29.5V368c0 26.5-21.5 48-48 48H576c0 53-43 96-96 96s-96-43-96-96H256c0 53-43 96-96 96s-96-43-96-96H48c-26.5 0-48-21.5-48-48V304c0-26.5 21.5-48 48-48H192L96 64zM250.5 384H389.5c13.2-37.3 48.7-64 90.5-64s77.4 26.7 90.5 64H592c8.8 0 16-7.2 16-16V288H416 384 373.2 208 48c-8.8 0-16 7.2-16 16v64c0 8.8 7.2 16 16 16H69.5c13.2-37.3 48.7-64 90.5-64s77.4 26.7 90.5 64zM416 416a64 64 0 1 0 128 0 64 64 0 1 0 -128 0zm97.8-275.6c-6.1-7.8-15.4-12.4-25.3-12.4H432c-8.8 0-16 7.2-16 16V256H603.7L513.8 140.4zM145.6 32l-29.9 0 112 224h117L145.6 32zM224 416A64 64 0 1 0 96 416a64 64 0 1 0 128 0z"/>
</symbol>
<symbol id="user-ninja" viewBox="0 0 448 512">
<path d="M320 128a96 96 0 1 0 -192 0 96 96 0 1 0 192 0zm32 0c0 70.7-57.3 128-128 128c-63.6 0-116.3-46.3-126.3-107.1L59.3 187.3c-6.2 6.2-16.4 6.2-22.6 0s-6.2-16.4 0-22.6L89.4 112 36.7 59.3c-6.2-6.2-6.2-16.4 0-22.6s16.4-6.2 22.6 0l45.2 45.2C123 34 169.6 0 224 0c70.7 0 128 57.3 128 128zM211.1 452.9L128.6 344.7C72.9 364.8 33 417.7 32 480H231.7l-20.2-26.5c-.1-.2-.3-.4-.4-.6zm33.1-9.4L271.9 480H416c-1-62.3-40.9-115.2-96.6-135.3l-75.3 98.8zM418.3 512H264.2h-.4H29.7C13.3 512 0 498.7 0 482.3C0 399.5 56.4 330 132.8 309.9c6-1.6 12.2 .9 15.9 5.8l62.5 83.3c6.4 8.5 19.2 8.5 25.6 0l62.5-83.3c3.7-4.9 9.9-7.4 15.9-5.8C391.6 330 448 399.5 448 482.3c0 16.4-13.3 29.7-29.7 29.7zM176 96h96c8.8 0 16 7.2 16 16s-7.2 16-16 16H176c-8.8 0-16-7.2-16-16s7.2-16 16-16z"/>
</symbol>
<symbol id="xmark" viewBox="0 0 384 512">
<path d="M324.5 411.1c6.2 6.2 16.4 6.2 22.6 0s6.2-16.4 0-22.6L214.6 256 347.1 123.5c6.2-6.2 6.2-16.4 0-22.6s-16.4-6.2-22.6 0L192 233.4 59.5 100.9c-6.2-6.2-16.4-6.2-22.6 0s-6.2 16.4 0 22.6L169.4 256 36.9 388.5c-6.2 6.2-6.2 16.4 0 22.6s16.4 6.2 22.6 0L192 278.6 324.5 411.1z"/>
</symbol>
<symbol id="handshake" viewBox="0 0 640 512">
<path d="M263.9 64c-33.9 0-66.7 12-92.6 33.7L144 120.7v39.1c2.7-.5 5.3-1.7 7.4-3.5l40.5-34c13.3-11.2 28.9-19 45.5-23.1L272.6 64h-8.7zM112 352.3c8.9 1 17.2 5 23.6 11.4l28.6 28.6 15.4 15.4 .1 .1 24.3 24.3c25.1 25.1 65.4 26.2 91.8 2.6c.8-.7 1.6-1.4 2.3-2.2c26.3 21.3 65.3 18.6 88.4-7.3c6-6.7 10.3-14.4 13-22.5c19.2 4 40-.8 55.7-14.8c11.3-10.1 18.2-23.2 20.6-37H528V368c0 26.5 21.5 48 48 48h16c26.5 0 48-21.5 48-48V160c0-17.7-14.3-32-32-32H560 528v32V318.8H473.1c-3.1-8.7-8.1-17-15.1-24l-85.6-85.6 8.1-7.5c6.5-6 6.9-16.1 .9-22.6s-16.1-6.9-22.6-.9l-76.1 70.2c-13.2 12.2-33.6 12.4-47 .4c-15.4-13.7-15.7-37.5-.8-51.6l79.4-75C332.2 105.4 355.8 96 380.4 96c22.7 0 44.6 8 61.9 22.6l44.8 37.7c2.5 2.1 5.6 3.4 8.8 3.7V121.8L462.9 94.1C439.8 74.6 410.6 64 380.4 64c-32.8 0-64.3 12.5-88.1 35l-79.4 75c-28.6 27-27.9 72.7 1.5 98.8c25.8 22.9 64.7 22.5 90-.8l44.5-41 86.5 86.5c13 13 12.4 34.3-1.4 46.5c-10.9 9.7-26.7 10.6-38.6 3c-5-3.3-11.4-3.4-16.6-.5s-8.3 8.6-8 14.6c.4 8.1-2.3 16.3-8.1 22.9c-12.3 13.9-33.8 14.5-46.9 1.4l-8.1-8.1c-3.6-3.6-8.7-5.3-13.7-4.5s-9.4 3.9-11.8 8.4c-1.9 3.6-4.4 6.9-7.6 9.8c-13.8 12.3-34.8 11.7-47.8-1.3l-39.9-39.8-28.6-28.6c-12.4-12.4-28.9-19.8-46.3-20.9V160 128H80 32c-17.7 0-32 14.3-32 32V368c0 26.5 21.5 48 48 48H64c26.5 0 48-21.5 48-48V352.3zM80 160V368c0 8.8-7.2 16-16 16H48c-8.8 0-16-7.2-16-16V160H80zm528 0V368c0 8.8-7.2 16-16 16H576c-8.8 0-16-7.2-16-16V160h48z"/>
</symbol>
<symbol id="mobile-button" viewBox="0 0 384 512">
<path d="M96 32C78.3 32 64 46.3 64 64V448c0 17.7 14.3 32 32 32H288c17.7 0 32-14.3 32-32V64c0-17.7-14.3-32-32-32H96zM32 64C32 28.7 60.7 0 96 0H288c35.3 0 64 28.7 64 64V448c0 35.3-28.7 64-64 64H96c-35.3 0-64-28.7-64-64V64zM192 392a24 24 0 1 1 0 48 24 24 0 1 1 0-48z"/>
</symbol>
<symbol id="square" viewBox="0 0 448 512">
<path d="M384 64c17.7 0 32 14.3 32 32V416c0 17.7-14.3 32-32 32H64c-17.7 0-32-14.3-32-32V96c0-17.7 14.3-32 32-32H384zM64 32C28.7 32 0 60.7 0 96V416c0 35.3 28.7 64 64 64H384c35.3 0 64-28.7 64-64V96c0-35.3-28.7-64-64-64H64z"/>
</symbol>
<symbol id="list" viewBox="0 0 512 512">
<path d="M48 112V80H80v32H48zM16 72v48c0 13.3 10.7 24 24 24H88c13.3 0 24-10.7 24-24V72c0-13.3-10.7-24-24-24H40C26.7 48 16 58.7 16 72zm160 8c-8.8 0-16 7.2-16 16s7.2 16 16 16H496c8.8 0 16-7.2 16-16s-7.2-16-16-16H176zm0 160c-8.8 0-16 7.2-16 16s7.2 16 16 16H496c8.8 0 16-7.2 16-16s-7.2-16-16-16H176zm0 160c-8.8 0-16 7.2-16 16s7.2 16 16 16H496c8.8 0 16-7.2 16-16s-7.2-16-16-16H176zM48 240H80v32H48V240zm-8-32c-13.3 0-24 10.7-24 24v48c0 13.3 10.7 24 24 24H88c13.3 0 24-10.7 24-24V232c0-13.3-10.7-24-24-24H40zm8 224V400H80v32H48zM16 392v48c0 13.3 10.7 24 24 24H88c13.3 0 24-10.7 24-24V392c0-13.3-10.7-24-24-24H40c-13.3 0-24 10.7-24 24z"/>
</symbol>
<symbol id="check" viewBox="0 0 448 512">
<path d="M443.3 100.7c6.2 6.2 6.2 16.4 0 22.6l-272 272c-6.2 6.2-16.4 6.2-22.6 0l-144-144c-6.2-6.2-6.2-16.4 0-22.6s16.4-6.2 22.6 0L160 361.4 420.7 100.7c6.2-6.2 16.4-6.2 22.6 0z"/>
</symbol>
<symbol id="circle-info" viewBox="0 0 512 512">
<path d="M256 32a224 224 0 1 1 0 448 224 224 0 1 1 0-448zm0 480A256 256 0 1 0 256 0a256 256 0 1 0 0 512zM208 352c-8.8 0-16 7.2-16 16s7.2 16 16 16h96c8.8 0 16-7.2 16-16s-7.2-16-16-16H272V240c0-8.8-7.2-16-16-16H216c-8.8 0-16 7.2-16 16s7.2 16 16 16h24v96H208zm48-168a24 24 0 1 0 0-48 24 24 0 1 0 0 48z"/>
</symbol>
<symbol id="star" viewBox="0 0 576 512">
<path d="M226.5 168.8L287.9 42.3l61.4 126.5c4.6 9.5 13.6 16.1 24.1 17.7l137.4 20.3-99.8 98.8c-7.4 7.3-10.8 17.8-9 28.1l23.5 139.5L303 407.7c-9.4-5-20.7-5-30.2 0L150.2 473.2l23.5-139.5c1.7-10.3-1.6-20.7-9-28.1L65 206.8l137.4-20.3c10.5-1.5 19.5-8.2 24.1-17.7zM424.9 509.1c8.1 4.3 17.9 3.7 25.3-1.7s11.2-14.5 9.7-23.5L433.6 328.4 544.8 218.2c6.5-6.4 8.7-15.9 5.9-24.5s-10.3-14.9-19.3-16.3L378.1 154.8 309.5 13.5C305.5 5.2 297.1 0 287.9 0s-17.6 5.2-21.6 13.5L197.7 154.8 44.5 177.5c-9 1.3-16.5 7.6-19.3 16.3s-.5 18.1 5.9 24.5L142.2 328.4 116 483.9c-1.5 9 2.2 18.1 9.7 23.5s17.3 6 25.3 1.7l137-73.2 137 73.2z"/>
</symbol>
<symbol id="school-flag" viewBox="0 0 576 512">
<path d="M304 64h80V32H304V64zM272 16c0-8.8 7.2-16 16-16H400c8.8 0 16 7.2 16 16V80c0 8.8-7.2 16-16 16H315.5l89.6 64H512c35.3 0 64 28.7 64 64V448c0 35.3-28.7 64-64 64H352 320 256 224 64c-35.3 0-64-28.7-64-64V224c0-35.3 28.7-64 64-64H170.9L272 87.8V64 16zm48 400c0-17.7-14.3-32-32-32s-32 14.3-32 32v64h64V416zm32 64H512c17.7 0 32-14.3 32-32V224c0-17.7-14.3-32-32-32H400c-3.3 0-6.6-1-9.3-3L288 115.7 185.3 189c-2.7 1.9-6 3-9.3 3H64c-17.7 0-32 14.3-32 32V448c0 17.7 14.3 32 32 32H224V416c0-35.3 28.7-64 64-64s64 28.7 64 64v64zM256 240a32 32 0 1 0 64 0 32 32 0 1 0 -64 0zm32 64a64 64 0 1 1 0-128 64 64 0 1 1 0 128zM64 256c0-17.7 14.3-32 32-32h32c17.7 0 32 14.3 32 32v32c0 17.7-14.3 32-32 32H96c-17.7 0-32-14.3-32-32V256zm64 0H96v32h32V256zm320-32h32c17.7 0 32 14.3 32 32v32c0 17.7-14.3 32-32 32H448c-17.7 0-32-14.3-32-32V256c0-17.7 14.3-32 32-32zm0 32v32h32V256H448zM64 384c0-17.7 14.3-32 32-32h32c17.7 0 32 14.3 32 32v32c0 17.7-14.3 32-32 32H96c-17.7 0-32-14.3-32-32V384zm64 0H96v32h32V384zm320-32h32c17.7 0 32 14.3 32 32v32c0 17.7-14.3 32-32 32H448c-17.7 0-32-14.3-32-32V384c0-17.7 14.3-32 32-32zm0 32v32h32V384H448z"/>
</symbol>
<symbol id="arrow-right" viewBox="0 0 448 512">
<path d="M443.3 267.3c6.2-6.2 6.2-16.4 0-22.6l-176-176c-6.2-6.2-16.4-6.2-22.6 0s-6.2 16.4 0 22.6L393.4 240 16 240c-8.8 0-16 7.2-16 16s7.2 16 16 16l377.4 0L244.7 420.7c-6.2 6.2-6.2 16.4 0 22.6s16.4 6.2 22.6 0l176-176z"/>
</symbol>
<symbol id="laptop" viewBox="0 0 640 512">
<path d="M512 64H128c-17.7 0-32 14.3-32 32V352H64V96c0-35.3 28.7-64 64-64H512c35.3 0 64 28.7 64 64V352H544V96c0-17.7-14.3-32-32-32zM76.8 448H563.2c20.3 0 37.4-13.5 42.9-32H33.9c5.5 18.5 22.7 32 42.9 32zM0 403.2C0 392.6 8.6 384 19.2 384H620.8c10.6 0 19.2 8.6 19.2 19.2c0 42.4-34.4 76.8-76.8 76.8H76.8C34.4 480 0 445.6 0 403.2z"/>
</symbol>
<symbol id="user-headset" viewBox="0 0 448 512">
<path d="M224 32C135.6 32 64 103.6 64 192v16c0 8.8-7.2 16-16 16s-16-7.2-16-16V192C32 86 118 0 224 0S416 86 416 192v16c0 61.9-50.1 112-112 112H240 224 208c-17.7 0-32-14.3-32-32s14.3-32 32-32h32c17.7 0 32 14.3 32 32h32c44.2 0 80-35.8 80-80V192c0-88.4-71.6-160-160-160zm0 32c70.7 0 128 57.3 128 128c0 13.9-2.2 27.3-6.3 39.8C337.4 246.3 321.8 256 304 256h-8.4c15.2-17 24.4-39.4 24.4-64c0-53-43-96-96-96s-96 43-96 96c0 24.6 9.3 47.1 24.5 64.1c-5.4 9.4-8.5 20.3-8.5 31.9c0 1.4 0 2.7 .1 4C114.8 268.6 96 232.5 96 192c0-70.7 57.3-128 128-128zM208 352h16 16 64 9.6C387.8 352 448 412.2 448 486.4c0 14.1-11.5 25.6-25.6 25.6H25.6C11.5 512 0 500.5 0 486.4C0 412.2 60.2 352 134.4 352H208zm105.6 32H134.4C80 384 35.5 426.4 32.2 480H415.8c-3.3-53.6-47.8-96-102.2-96z"/>
</symbol>
<symbol id="screwdriver-wrench" viewBox="0 0 512 512">
<path d="M64.7 34.6L160 107.9V160H107.9L34.6 64.7 64.7 34.6zM192 169.3c0-.4 0-.9 0-1.3V104c0-7.5-3.5-14.5-9.4-19L78.6 5C69.1-2.4 55.6-1.5 47 7L7 47c-8.5 8.5-9.4 22-2.1 31.6l80 104c4.5 5.9 11.6 9.4 19 9.4h64c.4 0 .9 0 1.3 0L271.2 293.9c-19.5 30-16.2 70.5 10.1 96.8l112 112c12.5 12.5 32.8 12.5 45.3 0l64-64c12.5-12.5 12.5-32.8 0-45.3l-112-112c-26.3-26.3-66.8-29.7-96.8-10.1L192 169.3zM304 304c17.7-17.7 46.3-17.7 64 0L480 416l-64 64L304 368c-17.7-17.7-17.7-46.3 0-64zM104 424a16 16 0 1 0 -32 0 16 16 0 1 0 32 0zM23.2 376.8C8.3 391.7 0 411.8 0 432.8C0 476.5 35.5 512 79.2 512c21 0 41.1-8.3 56-23.2L238.5 385.5c-5.7-11.2-9.3-23.1-10.9-35.3L112.1 465.7c-8.7 8.7-20.6 13.6-32.9 13.6c-25.7 0-46.6-20.8-46.6-46.6c0-12.3 4.9-24.2 13.6-32.9L189.1 257l-23.1-23.1L23.2 376.8zM479.4 160c0 44.8-23.1 84.1-58 106.8l23.5 23.5c40.7-29 67.2-76.6 67.2-130.3c0-24.8-5.7-48.3-15.7-69.3c-4.4-9.2-16.5-10.5-23.7-3.3l-67.9 67.9c-3 3-7.1 4.7-11.3 4.7H368c-8.8 0-16-7.2-16-16V118.6c0-4.2 1.7-8.3 4.7-11.3l67.9-67.9c7.2-7.2 5.9-19.3-3.3-23.7C400.3 5.7 376.8 0 352 0C296.1 0 246.9 28.6 218.3 72.1l26 20C266.8 56.3 306.7 32.6 352 32.6c10.3 0 20.2 1.2 29.7 3.5L333.6 84.2c-9.1 9.1-14.2 21.5-14.2 34.4V144c0 26.9 21.8 48.6 48.6 48.6h25.4c12.9 0 25.3-5.1 34.4-14.2l48.1-48.1c2.3 9.5 3.5 19.5 3.5 29.7z"/>
</symbol>
<symbol id="person-cane" viewBox="0 0 448 512">
<path d="M248 56a24 24 0 1 0 -48 0 24 24 0 1 0 48 0zm-80 0a56 56 0 1 1 112 0A56 56 0 1 1 168 56zM144 164V320h64V161.2c-3.4-.8-6.9-1.2-10.5-1.2H163.3c-6.8 0-13.3 1.4-19.3 4zm-32 38.1L62.1 295.5c-4.2 7.8-13.9 10.7-21.7 6.6s-10.7-13.9-6.6-21.7L92.7 170.3c13.9-26 41-42.3 70.6-42.3h34.2c23.5 0 45.7 10.3 60.9 28.2l89.8 105.5c5.7 6.7 4.9 16.8-1.8 22.6s-16.8 4.9-22.6-1.8L240 183.9V496c0 8.8-7.2 16-16 16s-16-7.2-16-16V352H144V496c0 8.8-7.2 16-16 16s-16-7.2-16-16V202.2zM368 352c-8.8 0-16 7.2-16 16v8c0 8.8-7.2 16-16 16s-16-7.2-16-16v-8c0-26.5 21.5-48 48-48s48 21.5 48 48V496c0 8.8-7.2 16-16 16s-16-7.2-16-16V368c0-8.8-7.2-16-16-16z"/>
</symbol>
<symbol id="moon-stars" viewBox="0 0 512 512">
<path d="M304 0c8.8 0 16 7.2 16 16V48h32c8.8 0 16 7.2 16 16s-7.2 16-16 16H320v32c0 8.8-7.2 16-16 16s-16-7.2-16-16V80H256c-8.8 0-16-7.2-16-16s7.2-16 16-16h32V16c0-8.8 7.2-16 16-16zM156.6 163.9C85.3 180 32 243.8 32 320.2c0 88.5 71.6 160.2 159.8 160.2c25.7 0 50-6.1 71.5-16.9c-87.6-11.3-155.1-86.4-155.1-177.2c0-47.4 18.4-90.4 48.4-122.4zM0 320.2C0 214.1 85.8 128 191.8 128c5.5 0 10.9 .2 16.3 .7c7 .6 12.8 5.7 14.3 12.5s-1.6 13.9-7.7 17.3c-44.4 25.2-74.4 73-74.4 127.8c0 81 65.5 146.6 146.2 146.6c8.6 0 17-.7 25.1-2.2c6.9-1.2 13.8 2.2 17 8.5s1.9 13.8-3.1 18.7c-34.5 33.6-81.7 54.4-133.6 54.4C85.8 512.4 0 426.3 0 320.2zM432 160v64h64c8.8 0 16 7.2 16 16s-7.2 16-16 16H432v64c0 8.8-7.2 16-16 16s-16-7.2-16-16V256H336c-8.8 0-16-7.2-16-16s7.2-16 16-16h64V160c0-8.8 7.2-16 16-16s16 7.2 16 16z"/>
</symbol>
<symbol id="circle-check" viewBox="0 0 512 512">
<path d="M256 32a224 224 0 1 1 0 448 224 224 0 1 1 0-448zm0 480A256 256 0 1 0 256 0a256 256 0 1 0 0 512zM363.3 203.3c6.2-6.2 6.2-16.4 0-22.6s-16.4-6.2-22.6 0L224 297.4l-52.7-52.7c-6.2-6.2-16.4-6.2-22.6 0s-6.2 16.4 0 22.6l64 64c6.2 6.2 16.4 6.2 22.6 0l128-128z"/>
</symbol>
<symbol id="people-arrows" viewBox="0 0 640 512">
<path d="M128 96a32 32 0 1 0 0-64 32 32 0 1 0 0 64zm0-96a64 64 0 1 1 0 128A64 64 0 1 1 128 0zM105.6 192c-25 0-45.8 19.1-47.8 44l-4.1 49.3C52.1 304 66.8 320 85.6 320h45.2c2.3 6.6 6.1 12.7 11.3 17.9L156.1 352H96V496c0 8.8-7.2 16-16 16s-16-7.2-16-16V348.3c-26.5-9.5-44.7-35.8-42.2-65.6l4.1-49.3C29.3 191.9 64 160 105.6 160h44.8c28.3 0 53.4 14.8 67.7 37.3c-4.3 2.2-8.4 5.1-12 8.8l-12.6 12.6c-7.9-15.9-24.3-26.7-43-26.7H105.6zM160 496V355.9l32 32V496c0 8.8-7.2 16-16 16s-16-7.2-16-16zm288 0V387.9l32-32V496c0 8.8-7.2 16-16 16s-16-7.2-16-16zm96-144H483.9l14.1-14.1c5.2-5.2 9-11.4 11.3-17.9h45.2c18.7 0 33.4-16 31.9-34.7L582.2 236c-2.1-24.9-22.9-44-47.8-44H489.6c-18.7 0-35.1 10.8-43 26.7l-12.6-12.6c-3.6-3.6-7.7-6.5-12-8.8c14.2-22.5 39.3-37.3 67.7-37.3h44.8c41.6 0 76.3 31.9 79.7 73.4l4.1 49.3c2.5 29.8-15.7 56.1-42.2 65.6V496c0 8.8-7.2 16-16 16s-16-7.2-16-16V352zM512 96a32 32 0 1 0 0-64 32 32 0 1 0 0 64zm0-96a64 64 0 1 1 0 128A64 64 0 1 1 512 0zM251.3 251.3L214.6 288H425.4l-36.7-36.7c-6.2-6.2-6.2-16.4 0-22.6s16.4-6.2 22.6 0l64 64c6.2 6.2 6.2 16.4 0 22.6l-64 64c-6.2 6.2-16.4 6.2-22.6 0s-6.2-16.4 0-22.6L425.4 320H214.6l36.7 36.7c6.2 6.2 6.2 16.4 0 22.6s-16.4 6.2-22.6 0l-64-64c-6.2-6.2-6.2-16.4 0-22.6l64-64c6.2-6.2 16.4-6.2 22.6 0s6.2 16.4 0 22.6z"/>
</symbol>
<symbol id="file-excel" viewBox="0 0 384 512">
<path d="M320 480H64c-17.7 0-32-14.3-32-32V64c0-17.7 14.3-32 32-32H192V144c0 26.5 21.5 48 48 48H352V448c0 17.7-14.3 32-32 32zM240 160c-8.8 0-16-7.2-16-16V32.5c2.8 .7 5.4 2.1 7.4 4.2L347.3 152.6c2.1 2.1 3.5 4.6 4.2 7.4H240zM64 0C28.7 0 0 28.7 0 64V448c0 35.3 28.7 64 64 64H320c35.3 0 64-28.7 64-64V163.9c0-12.7-5.1-24.9-14.1-33.9L254.1 14.1c-9-9-21.2-14.1-33.9-14.1H64zm85.1 246.8c-5.1-7.2-15-9-22.3-3.9s-9 15-3.9 22.3L172.5 336l-49.6 70.8c-5.1 7.2-3.3 17.2 3.9 22.3s17.2 3.3 22.3-3.9L192 363.9l42.9 61.3c5.1 7.2 15 9 22.3 3.9s9-15 3.9-22.3L211.5 336l49.6-70.8c5.1-7.2 3.3-17.2-3.9-22.3s-17.2-3.3-22.3 3.9L192 308.1l-42.9-61.3z"/>
</symbol>
<symbol id="circle-arrow-right" viewBox="0 0 512 512">
<path d="M480 256A224 224 0 1 1 32 256a224 224 0 1 1 448 0zM0 256a256 256 0 1 0 512 0A256 256 0 1 0 0 256zM283.3 363.3l96-96c6.2-6.2 6.2-16.4 0-22.6l-96-96c-6.2-6.2-16.4-6.2-22.6 0s-6.2 16.4 0 22.6L329.4 240 144 240c-8.8 0-16 7.2-16 16s7.2 16 16 16l185.4 0-68.7 68.7c-6.2 6.2-6.2 16.4 0 22.6s16.4 6.2 22.6 0z"/>
</symbol>
<symbol id="comment-dollar" viewBox="0 0 512 512">
<path d="M32 240c0-91.4 93.8-176 224-176s224 84.6 224 176s-93.8 176-224 176c-32 0-63-5.9-93.5-16.2c-9.9-3.3-20.7-1.8-29.2 4.2c-15.4 10.7-31.4 20-48.4 27.4L91.2 446l-6.4-14.7c-10.5 4.6-21.5 8.6-32.7 11.5c.5-.9 1.1-1.8 1.6-2.6C68 416.5 76.3 391 79.4 363.9c1-9.2-2.1-17.7-7.4-23.9c-24.5-29.4-40-62.9-40-100zM256 32C114.5 32 0 125.2 0 240c0 46.6 19.6 87.1 47.4 120.5c0 .1 .1 .1 .1 .2c-2.6 22.6-9.5 43.5-21.3 63.1c-6.5 10.8-13.5 20.8-21.7 29c-4.5 4.6-5.9 11.5-3.4 17.4s8.3 9.8 14.8 9.8c28.7 0 57.6-8.9 81.6-19.3c19.2-8.4 37.1-18.7 53.9-30.5c.2-.1 .5-.2 .7-.1C185.5 441.3 220 448 256 448c141.5 0 256-93.2 256-208S397.5 32 256 32zm16 104c0-8.8-7.2-16-16-16s-16 7.2-16 16v17.3c-8.3 1.5-16.7 4.3-24.1 8.7c-13 7.7-23.9 21.1-23.8 40.5c.1 18.4 10.8 30.1 22.7 37.3c10.5 6.3 23.8 10.4 34.8 13.7l0 0 0 0 1.6 .5c12.5 3.8 22.2 6.9 29 11.2c5.9 3.7 7.7 7 7.7 11.6c.1 6.6-2.7 10.8-7.8 14c-5.8 3.6-14.5 5.6-23.7 5.3c-11.8-.4-22.7-4.1-36.3-8.7l0 0 0 0 0 0c-2.3-.8-4.7-1.6-7.1-2.4c-8.4-2.8-17.4 1.7-20.2 10.1s1.7 17.4 10.1 20.2c2 .7 4.1 1.4 6.2 2.1l0 0c9.2 3.2 19.7 6.8 30.9 8.9V344c0 8.8 7.2 16 16 16s16-7.2 16-16V326.9c8.7-1.4 17.4-4.3 25.1-9.1c13.3-8.3 23.2-22.2 22.9-41.6c-.2-18.5-10.6-30.6-22.7-38.2c-11-6.9-25-11.2-36.3-14.6l0 0 0 0-.5-.1c-12.6-3.8-22.3-6.8-29.2-10.9c-6-3.6-7.2-6.4-7.3-10.1c0-5.4 2.4-9.4 8.1-12.8c6.2-3.7 15.1-5.7 23.6-5.5c10.1 .2 21 2.3 32.1 5.3c8.5 2.3 17.3-2.8 19.6-11.3s-2.8-17.3-11.3-19.6c-7.5-2-15.6-3.9-24.1-5.1V136z"/>
</symbol>
<symbol id="clock" viewBox="0 0 512 512">
<path d="M480 256A224 224 0 1 1 32 256a224 224 0 1 1 448 0zM0 256a256 256 0 1 0 512 0A256 256 0 1 0 0 256zM240 112V256c0 5.3 2.7 10.3 7.1 13.3l96 64c7.4 4.9 17.3 2.9 22.2-4.4s2.9-17.3-4.4-22.2L272 247.4V112c0-8.8-7.2-16-16-16s-16 7.2-16 16z"/>
</symbol>
<symbol id="chevron-down" viewBox="0 0 512 512">
<path d="M267.3 395.3c-6.2 6.2-16.4 6.2-22.6 0l-192-192c-6.2-6.2-6.2-16.4 0-22.6s16.4-6.2 22.6 0L256 361.4 436.7 180.7c6.2-6.2 16.4-6.2 22.6 0s6.2 16.4 0 22.6l-192 192z"/>
</symbol>
<symbol id="fire" viewBox="0 0 448 512">
<path d="M239.7 109.4c6.1 7.7 15.5 12.1 25.3 12s19.1-4.7 25.1-12.5c8.4-11 16.9-21.7 25.6-31.1c27.8 28.8 52.1 65.5 69.8 101.1c19.6 39.4 30.5 75.7 30.5 97.6C416 388.3 328.8 480 224 480C118 480 32 388.4 32 276.5c0-29.9 14.4-70.8 40.9-115.4c24.7-41.6 59.3-85.3 100.2-124.7c23.5 22.7 45.7 47 66.6 73zm25-20c-6.9-8.6-13.9-17-21-25.2C225.6 43.6 206.7 24 187 5.5c-7.8-7.3-19.9-7.3-27.7-.1c-46.5 43.2-86 92.3-113.9 139.3C17.8 191.2 0 238.1 0 276.5C0 404.1 98.4 512 224 512c124.2 0 224-107.8 224-235.5c0-29.3-13.5-71.1-33.8-111.9c-20.7-41.4-49.9-85-84.5-118c-7.8-7.5-20.1-7.5-28-.1c-5.7 5.4-11.2 11.3-16.5 17.4c-7.3 8.4-14.2 17.2-20.5 25.5zM128 306.8c0-23.7 13-46.3 47.1-89.1c16.8 21.3 46.2 58.7 62.6 79.6c12.5 15.9 36.3 16.3 49.4 1l23.4-27.2c17.8 38.8 9.4 86.6-24.9 110.7C267.1 394 247.7 400 225.7 400c-28.2 0-52.6-9-69.8-24.7c-17-15.5-28-38.4-28-68.5zm72-109.2c-12.7-16.1-37-16.2-49.8-.1C116.8 239.4 96 270.3 96 306.8c0 38.5 14.3 70.2 38.4 92.1c23.9 21.8 56.4 33.1 91.3 33.1c28.5 0 54.1-8 77.7-23.7l0 0 .3-.2c51.2-35.7 59.1-104.2 33.9-154.6c-10.7-21.4-37.3-19.7-49.9-5.1l-24.9 29 0 0c-16.5-21-46-58.5-62.8-79.8z"/>
</symbol>
<symbol id="minus" viewBox="0 0 448 512">
<path d="M432 256c0 8.8-7.2 16-16 16L32 272c-8.8 0-16-7.2-16-16s7.2-16 16-16l384 0c8.8 0 16 7.2 16 16z"/>
</symbol>
<symbol id="car-rear" viewBox="0 0 512 512">
<path d="M159.6 64H352.4c21.2 0 39.9 13.9 46 34.2l28.3 94.4c-3.5-.4-7.1-.6-10.7-.6H96c-3.6 0-7.2 .2-10.7 .6l28.3-94.4c6.1-20.3 24.8-34.2 46-34.2zM74.7 227.9l.1-.3c6.6-2.3 13.8-3.6 21.2-3.6H416c7.4 0 14.5 1.3 21.2 3.6l.1 .3 .5-.1c24.6 8.9 42.3 32.5 42.3 60.2H432c-8.8 0-16 7.2-16 16s7.2 16 16 16h48v32c0 17.7-14.3 32-32 32H352V352c0-17.7-14.3-32-32-32H192c-17.7 0-32 14.3-32 32v32H64c-17.7 0-32-14.3-32-32V320H80c8.8 0 16-7.2 16-16s-7.2-16-16-16H32c0-27.7 17.6-51.3 42.3-60.2l.5 .1zM320 384H192V352H320v32zM48.7 203.4l-.4 1.3C19.4 221.2 0 252.3 0 288v64c0 23.7 12.9 44.4 32 55.4V464c0 8.8 7.2 16 16 16s16-7.2 16-16V416H448v48c0 8.8 7.2 16 16 16s16-7.2 16-16V407.4c19.1-11.1 32-31.7 32-55.4V288c0-35.7-19.4-66.8-48.3-83.3l-.4-1.3L429 89c-10.2-33.8-41.3-57-76.6-57H159.6C124.3 32 93.1 55.2 83 89L48.7 203.4z"/>
</symbol>
</svg>